<svg width="81" height="81" viewBox="0 0 81 81" fill="none" xmlns="http://www.w3.org/2000/svg">
<path d="M80.8828 40.6133C80.8828 62.7047 62.9742 80.6133 40.8828 80.6133C18.7914 80.6133 0.882812 62.7047 0.882812 40.6133C0.882812 18.5219 18.7914 0.613281 40.8828 0.613281C62.9742 0.613281 80.8828 18.5219 80.8828 40.6133Z" fill="#04472B"/>
<path d="M78.9257 40.6123C78.9257 61.6222 61.8937 78.6542 40.8837 78.6542C19.8738 78.6542 2.8418 61.6222 2.8418 40.6123C2.8418 19.6023 19.8738 2.57031 40.8837 2.57031C61.8937 2.57031 78.9257 19.6023 78.9257 40.6123Z" fill="white"/>
<path d="M76.4064 40.6143C76.4064 60.234 60.5015 76.1388 40.8819 76.1388C21.2623 76.1388 5.35742 60.234 5.35742 40.6143C5.35742 20.9947 21.2623 5.08984 40.8819 5.08984C60.5015 5.08984 76.4064 20.9947 76.4064 40.6143Z" fill="#0B6D44"/>
<path d="M62.981 40.6135C62.981 52.8179 53.0874 62.7114 40.8831 62.7114C28.6787 62.7114 18.7852 52.8179 18.7852 40.6135C18.7852 28.4092 28.6787 18.5156 40.8831 18.5156C53.0874 18.5156 62.981 28.4092 62.981 40.6135Z" fill="white"/>
<path d="M60.7437 40.614C60.7437 51.5825 51.852 60.4742 40.8836 60.4742C29.9151 60.4742 21.0234 51.5825 21.0234 40.614C21.0234 29.6456 29.9151 20.7539 40.8836 20.7539C51.852 20.7539 60.7437 29.6456 60.7437 40.614Z" fill="#007721"/>
<path d="M61.7031 28.5054C61.1535 27.6249 60.769 26.7577 60.5495 25.9037C60.3373 25.0452 60.2855 24.2737 60.3941 23.5891C60.5028 22.9044 60.721 22.2981 61.0486 21.77C61.3836 21.2374 61.8094 20.8099 62.3261 20.4874C62.8428 20.1649 63.4103 19.9725 64.0286 19.9102C64.6588 19.8506 65.303 19.9187 65.9612 20.1147C66.6239 20.3178 67.2942 20.7034 67.9722 21.2712C68.6501 21.839 69.2548 22.5486 69.7862 23.4001C70.3176 24.2515 70.6821 25.0705 70.8798 25.8572C71.0775 26.6438 71.1194 27.3508 71.0053 27.9781C70.7717 29.2564 70.1455 30.2135 69.1267 30.8493C68.61 31.1718 68.0339 31.3746 67.3982 31.4579C66.7671 31.5484 66.1184 31.5134 65.452 31.353C64.7974 31.1953 64.137 30.8743 63.4709 30.3901C62.8119 29.9014 62.2227 29.2732 61.7031 28.5054ZM67.2872 28.0235C67.6365 27.8055 67.8613 27.4933 67.9616 27.0869C68.0692 26.676 67.964 26.2158 67.6461 25.7064C67.3327 25.2043 66.9483 24.8881 66.4928 24.7578C66.0374 24.6274 65.6168 24.6826 65.2311 24.9233C64.8454 25.1641 64.6338 25.5135 64.5962 25.9718C64.5586 26.43 64.6761 26.8775 64.9486 27.3141C65.2256 27.758 65.5992 28.0406 66.0692 28.1618C66.5392 28.2831 66.9452 28.2369 67.2872 28.0235Z" fill="white"/>
<path d="M57.3369 21.0244C57.2195 21.1724 57.0505 21.2673 56.8299 21.309C56.6143 21.3438 56.3972 21.2928 56.1785 21.1561C55.762 20.8977 55.2756 20.5676 54.7192 20.1659C54.1628 19.7641 53.6617 19.3811 53.2158 19.0169C53.0172 18.8523 52.9006 18.6622 52.8658 18.4467C52.836 18.2241 52.8729 18.0339 52.9764 17.8758C53.7188 16.8037 54.3587 15.8955 54.896 15.1514C55.4384 14.4003 55.8386 13.8534 56.0966 13.5107C56.2874 13.2464 56.2646 13.0289 56.0282 12.8582L55.0893 12.1802C54.9432 12.0748 54.8501 11.9546 54.8099 11.8198C54.7697 11.685 54.8055 11.5256 54.9171 11.3417C55.0357 11.1628 55.1628 10.9795 55.2984 10.7917C55.4339 10.6039 55.5529 10.4465 55.6553 10.3194C55.7696 10.1903 55.9006 10.1262 56.0482 10.1269C56.2077 10.1258 56.3466 10.1679 56.4648 10.2532C57.379 10.8922 58.608 11.769 60.1519 12.8838C61.6958 13.9987 62.7966 14.8041 63.4542 15.3001C63.5674 15.3924 63.6476 15.5085 63.6947 15.6483C63.7488 15.7932 63.7291 15.9377 63.6357 16.0818C63.5542 16.224 63.4481 16.3855 63.3176 16.5663C63.187 16.7471 63.058 16.9185 62.9305 17.0803C62.6837 17.3782 62.4003 17.4117 62.0804 17.1807L61.1415 16.5028C60.905 16.332 60.6989 16.3684 60.5232 16.6118C59.9113 17.5031 59.3493 18.3035 58.837 19.0128C58.3248 19.7222 57.8248 20.3927 57.3369 21.0244Z" fill="white"/>
<path d="M47.0495 15.1423L46.8173 16.1979C46.7381 16.5581 46.4486 16.6965 45.9488 16.6129C45.4573 16.5312 44.9226 16.4268 44.3445 16.2996C43.7748 16.1744 43.1259 16.0097 42.3979 15.8057C42.1586 15.7355 41.9801 15.6084 41.8625 15.4245C41.7532 15.2424 41.7072 15.0522 41.7245 14.854C41.8196 14.102 42.0403 12.9384 42.3867 11.3634C42.7349 9.77998 43.0133 8.63354 43.222 7.92409C43.4307 7.21465 43.8753 6.93035 44.5558 7.0712C45.3386 7.22579 46.174 7.40072 47.0621 7.59601C47.9502 7.7913 48.9067 8.01481 49.9316 8.26656C50.965 8.52014 51.7255 9.09579 52.2131 9.99351C52.7008 10.8912 52.8451 11.7925 52.6462 12.6973C52.4472 13.6021 51.9942 14.2842 51.2871 14.7435C50.5801 15.2028 49.6695 15.31 48.5552 15.065L47.575 14.8494C47.4661 14.8255 47.3572 14.8411 47.2485 14.8962C47.1398 14.9513 47.0734 15.0333 47.0495 15.1423ZM48.0373 10.5903L47.5512 12.9207C47.5162 13.0799 47.5866 13.1788 47.7626 13.2175C48.282 13.3317 48.7196 13.2787 49.0755 13.0583C49.4416 12.8314 49.6679 12.521 49.7545 12.1273C49.8411 11.7335 49.7733 11.3629 49.5511 11.0154C49.3373 10.6698 48.9581 10.4371 48.4135 10.3173C48.2124 10.2731 48.087 10.3641 48.0373 10.5903Z" fill="white"/>
<path d="M40.5006 6.62665C40.6704 6.602 40.7676 6.67457 40.7923 6.84435C40.8083 6.95471 40.7789 7.08033 40.704 7.22123L38.5079 12.1558C38.6077 12.8434 38.7319 13.8482 38.8805 15.1701C38.8991 15.3581 38.8437 15.5439 38.7144 15.7274C38.5837 15.9023 38.3923 16.0168 38.1401 16.0708C37.6612 16.175 37.0821 16.2764 36.403 16.375C35.7239 16.4736 35.0975 16.5472 34.5238 16.5958C34.2666 16.6158 34.0506 16.5605 33.8756 16.4298C33.6994 16.2907 33.5934 16.1284 33.5578 15.9429C33.4164 15.0879 33.2785 14.1978 33.1442 13.2725L29.9453 9.32924C29.7896 9.15247 29.7025 9.00042 29.684 8.87309C29.6224 8.44863 29.7996 8.20621 30.2155 8.14582L34.5667 7.48812C34.8129 7.45238 35.001 7.46408 35.1309 7.52323C35.2694 7.58114 35.4407 7.71662 35.645 7.92967L36.6639 9.48501C36.8269 9.65205 36.9508 9.72941 37.0357 9.71708C37.1291 9.70353 37.2283 9.6111 37.3335 9.43981L38.3365 7.21387C38.455 7.01465 38.6245 6.89902 38.8452 6.86697L40.5006 6.62665Z" fill="white"/>
<path d="M22.6599 15.2999L24.2413 17.0793C24.3483 17.2023 24.4697 17.2047 24.6056 17.0865C25.007 16.7375 25.2252 16.3544 25.2604 15.9373C25.2964 15.5081 25.1821 15.1414 24.9176 14.8372C24.653 14.533 24.315 14.3665 23.9035 14.3378C23.4985 14.3035 23.0857 14.4693 22.6649 14.8351C22.5096 14.9702 22.5079 15.1252 22.6599 15.2999ZM27.7283 15.9909C27.9639 16.0134 28.8258 16.1221 30.314 16.3171C30.41 16.336 30.4777 16.3681 30.5171 16.4134C30.6634 16.5817 30.6622 16.7306 30.5133 16.86C30.1759 17.1648 29.8324 17.4692 29.4828 17.7732C29.1398 18.0715 28.7939 18.3666 28.4452 18.6585C28.2575 18.8217 28.0212 18.8964 27.7364 18.8826L25.8038 18.3466C25.7376 18.3359 25.6763 18.3438 25.6197 18.3702C25.4824 18.4214 25.4672 18.5085 25.5741 18.6315L26.4353 19.6219C26.6774 19.9002 26.6224 20.2095 26.2703 20.5498C25.9247 20.8844 25.5351 21.2403 25.1014 21.6175C24.6677 21.9946 24.1293 22.4344 23.4862 22.9367C23.2873 23.087 23.0789 23.1546 22.861 23.1394C22.6497 23.1186 22.4696 23.0422 22.3207 22.9102C21.7735 22.3856 20.9709 21.5148 19.9126 20.2979C18.8487 19.0746 18.0942 18.1676 17.6489 17.5772C17.2037 16.9868 17.2404 16.4603 17.7591 15.9979C18.2454 15.5636 18.9125 14.9778 19.7605 14.2404C20.6084 13.503 21.3164 12.8988 21.8843 12.4276C22.6982 11.7426 23.6141 11.469 24.6321 11.6069C25.65 11.7447 26.4771 12.1794 27.1131 12.9108C27.4846 13.338 27.7277 13.8201 27.8422 14.3571C27.9633 14.8885 27.9253 15.4331 27.7283 15.9909Z" fill="white"/>
<path d="M19.9291 29.6938C19.1959 31.0527 18.2719 31.9431 17.1572 32.365C16.039 32.7753 14.8495 32.6403 13.5889 31.96C12.8188 31.5445 12.2104 31.0554 11.7636 30.4926C11.3208 29.9222 11.05 29.3131 10.9513 28.6652C10.7572 27.3811 11.0635 25.9917 11.8701 24.4969C12.3915 23.5307 13.0451 22.6357 13.8307 21.812C14.1511 21.5072 14.5491 21.4832 15.0247 21.7398C15.6739 22.0902 15.8885 22.4692 15.6686 22.8768C15.6319 22.9448 15.4815 23.1512 15.2174 23.496C14.9534 23.8409 14.7806 24.0888 14.6991 24.2398C14.4099 24.7758 14.3746 25.2928 14.5931 25.7909C14.8082 26.2774 15.1762 26.6612 15.6971 26.9423C16.2105 27.2193 16.7367 27.3278 17.2759 27.2679C17.8151 27.2079 18.2186 26.948 18.4862 26.4881C18.6724 26.1792 18.9835 25.6209 19.4194 24.8131C19.6312 24.4206 19.9323 24.3052 20.3225 24.4671C20.4706 24.5178 20.6164 24.5818 20.7598 24.6592C20.8957 24.7326 21.0293 24.8192 21.1605 24.9193C21.4078 25.1112 21.4938 25.4306 21.4184 25.8773C21.3355 26.3199 21.1441 26.9184 20.8443 27.6729C20.5519 28.4314 20.2469 29.105 19.9291 29.6938Z" fill="white"/>
<path d="M64.4708 49.2776L72.726 48.8465C73.0564 48.8257 73.309 48.861 73.4838 48.9524C73.651 49.0398 73.7407 49.1739 73.7527 49.3544C73.7648 49.535 73.7231 49.7165 73.6277 49.8989L71.7077 53.5704C71.5129 53.9428 71.3193 54.1465 71.1268 54.1814C71.0653 54.1879 70.9636 54.188 70.8218 54.1816L69.9419 54.1426C69.6698 54.1261 69.4232 54.2923 69.2019 54.6413L68.075 56.7963C67.9915 56.9559 67.9431 57.0855 67.9298 57.185C67.9165 57.2846 67.9491 57.3887 68.0277 57.4976L68.7187 58.4253C68.8158 58.5728 68.8671 58.7061 68.8726 58.8252C68.8705 58.9403 68.8237 59.0852 68.7323 59.26L68.1957 60.2862C68.0406 60.5827 67.8507 60.6867 67.626 60.5982C67.5916 60.5899 67.5592 60.5778 67.5288 60.5619C67.354 60.4704 67.2165 60.326 67.1165 60.1285L62.6889 53.2682C62.2749 52.616 62.2686 51.9061 62.6701 51.1384L63.1471 50.2262C63.4651 49.6181 63.9064 49.3019 64.4708 49.2776ZM65.4578 54.4984L66.2211 55.5655C66.2737 55.6317 66.3265 55.6787 66.3797 55.7065C66.5774 55.8099 66.7259 55.7665 66.8253 55.5765L67.3679 54.5389C67.4513 54.3793 67.471 54.2492 67.4268 54.1486C67.375 54.0441 67.3186 53.9759 67.2578 53.9441C67.197 53.9123 67.1302 53.8919 67.0575 53.8829L65.8503 53.8034C65.605 53.7912 65.4446 53.8574 65.369 54.0018C65.2935 54.1462 65.3231 54.3118 65.4578 54.4984Z" fill="white"/>
<path d="M66.5982 61.9616C66.7064 62.1274 66.7473 62.3188 66.7211 62.5355C66.7016 62.747 66.5958 62.9389 66.4039 63.1111C65.8767 63.5788 65.4342 63.9529 65.0764 64.2334C64.7186 64.5138 64.2834 64.8277 63.7708 65.1749C63.373 65.4322 63.0502 65.4236 62.8024 65.1492C62.7057 65.0397 62.5826 64.8965 62.4329 64.7195C62.278 64.5357 62.1382 64.3783 62.0136 64.2471C61.8957 64.1106 61.7713 64.0283 61.6403 64.0002C61.516 63.9668 61.3729 64.0136 61.2108 64.1406L60.4513 64.7359C60.2893 64.8629 60.2062 64.9934 60.2022 65.1273C60.205 65.256 60.2551 65.3965 60.3528 65.5488C60.4571 65.6959 60.58 65.8666 60.7215 66.0609C60.8576 66.2485 60.9672 66.4023 61.0505 66.5224C61.2577 66.8286 61.189 67.1441 60.8441 67.4689C60.3844 67.8836 59.9521 68.2498 59.547 68.5673C59.1487 68.8795 58.6595 69.2357 58.0794 69.6358C57.8663 69.7811 57.6513 69.8406 57.4345 69.8143C57.2245 69.7827 57.0519 69.6946 56.9167 69.5499C56.397 68.9981 55.6212 68.064 54.5893 66.7475C53.5574 65.4309 52.9015 64.5663 52.6216 64.1536C52.3364 63.7341 52.1855 63.4164 52.1689 63.2005C52.147 62.9779 52.2778 62.7555 52.5614 62.5332L55.0324 60.5964C55.2687 60.4112 55.5314 60.3361 55.8204 60.3712C56.1162 60.4009 56.3646 60.5441 56.5657 60.8006L58.2326 62.9273C58.4231 63.1703 58.623 63.2098 58.8323 63.0458L59.9564 62.1647C60.1657 62.0007 60.1751 61.7971 59.9846 61.5541L58.3177 59.4274C58.1166 59.1708 58.0336 58.8981 58.0686 58.609C58.1104 58.3147 58.2494 58.0749 58.4857 57.8897L60.8251 56.0561C61.1086 55.8339 61.3559 55.76 61.5668 55.8344C61.7725 55.9021 62.0449 56.1245 62.3841 56.5017C62.7181 56.8721 63.401 57.7156 64.4328 59.0321C65.4647 60.3486 66.1865 61.3251 66.5982 61.9616Z" fill="white"/>
<path d="M48.1876 73.9001C46.6959 74.2989 45.4142 74.2376 44.3425 73.7161C43.2768 73.1841 42.5589 72.2262 42.1889 70.8422C41.9629 69.997 41.9014 69.2187 42.0042 68.5075C42.1154 67.7941 42.3728 67.1792 42.7764 66.6628C43.5775 65.6406 44.7984 64.9102 46.4393 64.4715C47.5 64.1879 48.5995 64.0493 49.7378 64.0557C50.1793 64.0798 50.4699 64.3528 50.6094 64.8749C50.8 65.5876 50.6715 66.0037 50.224 66.1234C50.1494 66.1433 49.8961 66.1755 49.464 66.22C49.0319 66.2645 48.733 66.3089 48.5673 66.3532C47.9789 66.5105 47.5785 66.8396 47.3661 67.3403C47.1598 67.8306 47.133 68.3616 47.2859 68.9334C47.4366 69.4969 47.7187 69.9543 48.1322 70.3054C48.5458 70.6566 49.0117 70.7718 49.5299 70.651C49.8824 70.5745 50.502 70.4177 51.3887 70.1807C51.8196 70.0654 52.1101 70.2053 52.2601 70.6003C52.3248 70.7428 52.3782 70.8928 52.4203 71.0503C52.4602 71.1994 52.4888 71.3561 52.506 71.5202C52.536 71.8318 52.3627 72.1134 51.986 72.3651C51.6071 72.6085 51.0404 72.8799 50.2858 73.1793C49.5334 73.487 48.834 73.7273 48.1876 73.9001Z" fill="white"/>
<path d="M36.6378 73.3188C36.587 73.5007 36.468 73.6537 36.2809 73.7778C36.0957 73.8935 35.8758 73.9307 35.6212 73.8895C35.137 73.8129 34.5607 73.6974 33.892 73.543C33.2234 73.3885 32.6129 73.2299 32.0606 73.0672C31.8138 72.9925 31.6325 72.8626 31.5168 72.6774C31.403 72.4839 31.3632 72.2942 31.3973 72.1084C31.6656 70.8322 31.9031 69.7469 32.1097 68.8526C32.3181 67.9499 32.4748 67.2906 32.5797 66.8746C32.6531 66.557 32.5477 66.3654 32.2635 66.2998L31.1351 66.0392C30.9596 65.9986 30.8272 65.924 30.7378 65.8154C30.6485 65.7067 30.6196 65.5459 30.6511 65.3331C30.691 65.1222 30.737 64.904 30.7892 64.6783C30.8413 64.4526 30.8899 64.2614 30.9349 64.1045C30.9902 63.9412 31.086 63.8313 31.2224 63.7747C31.369 63.7117 31.5133 63.6966 31.6554 63.7295C32.7458 63.9637 34.2188 64.2951 36.0742 64.7237C37.9297 65.1522 39.2567 65.4675 40.0552 65.6695C40.1954 65.7107 40.3143 65.7866 40.412 65.8972C40.5181 66.0098 40.556 66.1506 40.5258 66.3197C40.5058 66.4823 40.4707 66.6723 40.4205 66.8896C40.3703 67.1069 40.3179 67.3149 40.2632 67.5136C40.1513 67.8839 39.9031 68.0247 39.5186 67.9359L38.3903 67.6752C38.1061 67.6096 37.9302 67.7231 37.8627 68.0156C37.6445 69.0745 37.437 70.0302 37.2401 70.8827C37.0432 71.7353 36.8424 72.5473 36.6378 73.3188Z" fill="white"/>
<path d="M28.4029 62.3903L27.9042 70.6417C27.8878 70.9723 27.8244 71.2193 27.7139 71.3828C27.6082 71.5391 27.465 71.6131 27.2842 71.6049C27.1035 71.5966 26.9278 71.5348 26.7572 71.4195L23.3246 69.0993C22.9763 68.8639 22.7957 68.6487 22.7827 68.4535C22.7831 68.3916 22.7944 68.2906 22.8167 68.1504L22.9543 67.2804C23.0012 67.0119 22.8637 66.7481 22.5418 66.4891L20.527 65.1273C20.3778 65.0264 20.2544 64.9638 20.157 64.9393C20.0597 64.9149 19.9525 64.9357 19.8355 65.0015L18.8361 65.584C18.6785 65.6639 18.5403 65.6999 18.4214 65.692C18.3073 65.677 18.1685 65.6143 18.005 65.5038L17.0456 64.8553C16.7684 64.6679 16.6864 64.4676 16.7996 64.2541C16.8117 64.2209 16.8274 64.1901 16.8466 64.1617C16.9571 63.9982 17.1161 63.8779 17.3236 63.8007L24.6377 60.1715C25.3322 59.8333 26.0383 59.9068 26.7561 60.392L27.609 60.9684C28.1775 61.3527 28.4422 61.8267 28.4029 62.3903ZM23.1043 62.7848L21.9582 63.4234C21.8866 63.4681 21.8339 63.5154 21.8003 63.5651C21.6754 63.7499 21.7018 63.9024 21.8795 64.0224L22.8496 64.6781C22.9988 64.779 23.1259 64.8131 23.2308 64.7805C23.3405 64.7408 23.4145 64.6925 23.453 64.6356C23.4914 64.5787 23.5192 64.5147 23.5363 64.4434L23.7508 63.2528C23.7905 63.0104 23.7427 62.8435 23.6077 62.7523C23.4727 62.661 23.3049 62.6718 23.1043 62.7848Z" fill="white"/>
<path d="M18.3043 51.6971C18.1288 52.1721 17.8781 52.7471 17.5523 53.422C17.2339 54.0925 17.0283 54.5506 16.9353 54.7962C16.8424 55.0418 16.8202 55.205 16.8687 55.286C16.9216 55.3743 17.0157 55.423 17.151 55.4319C17.2863 55.4409 17.7997 55.4634 18.6912 55.4996C19.5827 55.5358 20.2755 55.5909 20.7697 55.6649C21.2713 55.7345 21.5743 55.8481 21.6786 56.0056C21.7829 56.1631 21.9121 56.3707 22.0664 56.6283C22.2206 56.8859 22.3939 57.192 22.5863 57.5468C22.7786 57.9015 22.8232 58.1847 22.72 58.3965C22.6286 58.6112 22.4386 58.8199 22.1501 59.0226C21.4038 59.5294 20.3903 60.1662 19.1096 60.9329C17.8364 61.6952 16.8119 62.2635 16.0363 62.6379C15.8508 62.7289 15.6529 62.7574 15.4426 62.7234C15.2323 62.6894 15.0654 62.5693 14.942 62.3632C14.6659 61.9187 14.3626 61.4204 14.0321 60.8684C13.706 60.3238 13.4571 59.8829 13.2853 59.5459C13.2222 59.4237 13.2024 59.2906 13.2261 59.1464C13.2616 59.0052 13.347 58.8891 13.4824 58.798L15.2643 57.6412C15.4366 57.5281 15.5117 57.4281 15.4897 57.3413C15.4721 57.2618 15.3868 57.2279 15.2338 57.2396C14.3085 57.2637 13.2449 57.2406 12.043 57.1703C11.7459 57.1582 11.529 57.0381 11.3924 56.81C11.2558 56.5818 11.2502 56.3302 11.3755 56.0553C11.5892 55.5773 12.1072 54.6724 12.9294 53.3403C12.981 53.2594 12.9987 53.1888 12.9826 53.1285C12.9708 53.0755 12.9282 53.0461 12.8547 53.0401C12.7811 53.0342 12.6854 53.0664 12.5677 53.1369L10.7131 54.1723C10.5688 54.2487 10.4173 54.2544 10.2585 54.1895C10.107 54.1202 9.98134 54.0105 9.88144 53.8604L9.22711 52.7674C9.1155 52.5643 9.08848 52.3605 9.14605 52.1561C9.20803 51.959 9.31705 51.7988 9.4731 51.6753C10.0929 51.2243 11.0909 50.5868 12.4672 49.7628C13.8509 48.9344 14.8776 48.3448 15.5473 47.9938C15.8696 47.8308 16.1507 47.7575 16.3904 47.7739C16.6302 47.7904 16.8404 47.9494 17.0211 48.2512C17.9464 49.7968 18.4355 50.6387 18.4883 50.7771C18.5411 50.9154 18.4798 51.2221 18.3043 51.6971Z" fill="white"/>
<path d="M60.7437 40.614C60.7437 51.5825 51.852 60.4742 40.8836 60.4742C29.9151 60.4742 21.0234 51.5825 21.0234 40.614C21.0234 29.6456 29.9151 20.7539 40.8836 20.7539C51.852 20.7539 60.7437 29.6456 60.7437 40.614Z" fill="#04472B"/>
<path d="M27.5391 51.0039H54.5182L-nan -nanL54.5182 51.0039C54.4164 52.7994 53.5318 54.4705 51.9041 55.2354C49.667 56.2866 45.9591 57.5443 41.0233 57.5443C36.087 57.5443 32.3789 56.2864 30.1419 55.2351C28.5153 54.4708 27.634 52.7986 27.5391 51.0039L-nan -nanL27.5391 51.0039Z" fill="white"/>
<g clip-path="url(#clip0_1678_320)">
<path fill-rule="evenodd" clip-rule="evenodd" d="M41.1529 64.9816C43.9718 64.9816 46.257 62.6964 46.257 59.8775C46.257 57.0586 43.9718 54.7734 41.1529 54.7734C38.334 54.7734 36.0488 57.0586 36.0488 59.8775C36.0488 62.6964 38.334 64.9816 41.1529 64.9816Z" fill="white"/>
<path fill-rule="evenodd" clip-rule="evenodd" d="M41.1529 64.1119C43.4915 64.1119 45.3873 62.2161 45.3873 59.8775C45.3873 57.5389 43.4915 55.6431 41.1529 55.6431C38.8143 55.6431 36.9185 57.5389 36.9185 59.8775C36.9185 62.2161 38.8143 64.1119 41.1529 64.1119ZM46.257 59.8775C46.257 62.6964 43.9718 64.9816 41.1529 64.9816C38.334 64.9816 36.0488 62.6964 36.0488 59.8775C36.0488 57.0586 38.334 54.7734 41.1529 54.7734C43.9718 54.7734 46.257 57.0586 46.257 59.8775Z" fill="#EFA12B"/>
<g clip-path="url(#clip1_1678_320)">
<path d="M39.5994 57.5078L38.248 59.0784L41.1501 63.314L44.0511 59.078L42.7082 57.5078H39.5994Z" fill="#0094D4"/>
<path fill-rule="evenodd" clip-rule="evenodd" d="M38.169 59.1335C38.1446 59.098 38.1472 59.0506 38.1753 59.018L39.5267 57.4473C39.5448 57.4262 39.5714 57.4141 39.5993 57.4141H42.7082C42.7362 57.4141 42.7628 57.4263 42.781 57.4476L44.124 59.0177C44.1519 59.0504 44.1544 59.0976 44.1302 59.133L41.2292 63.3691C41.2113 63.3951 41.1817 63.4107 41.1501 63.4107C41.1185 63.4107 41.0889 63.3951 41.071 63.3691L38.169 59.1335ZM38.248 59.0799L39.5993 57.5093H42.7082L44.0511 59.0794L41.1501 63.3155L38.248 59.0799Z" fill="#0094D4"/>
<path d="M41.1543 57.5078H39.5996L39.9727 59.0784L41.1543 57.5078Z" fill="#04CEFE"/>
<path d="M38.2479 59.0781H39.9727L39.5993 57.5075L38.2479 59.0781Z" fill="#6AD9FD"/>
<path d="M44.0508 59.0777L42.334 59.0781L42.7073 57.5075L44.0508 59.0777Z" fill="#1ECFFF"/>
<path d="M42.3359 59.0781H39.9727L41.1543 57.5075L42.3359 59.0781Z" fill="#ACEAFF"/>
<path d="M41.1524 57.5078H42.707L42.3339 59.0784L41.1524 57.5078Z" fill="#00BEFC"/>
<path d="M39.9719 59.0781L41.1497 63.3141L38.248 59.0786L39.9719 59.0781Z" fill="#00AAF4"/>
<path d="M42.3277 59.0781L41.1492 63.3146L44.0508 59.0781H42.3277Z" fill="#008BD8"/>
<path d="M42.3333 59.0781H39.9707L41.149 63.3141L42.3333 59.0781Z" fill="#3BD1FF"/>
</g>
</g>
<path d="M39.8535 53.8111C39.8535 53.1351 40.4376 52.9883 41.1581 52.9883C41.8785 52.9883 42.4626 53.1351 42.4626 53.8111V55.8497C42.4626 56.5257 41.8785 56.6673 41.1581 56.6673C40.4376 56.6673 39.8535 56.5257 39.8535 55.8497V53.8111Z" fill="#EFA12B"/>
<path fill-rule="evenodd" clip-rule="evenodd" d="M42.2017 55.8497V53.8111C42.2017 53.6804 42.1738 53.5934 42.137 53.5327C42.1003 53.4722 42.0445 53.421 41.9613 53.3783C41.7839 53.2872 41.5114 53.2492 41.1581 53.2492C40.8047 53.2492 40.5322 53.2872 40.3548 53.3783C40.2716 53.421 40.2158 53.4722 40.1791 53.5327C40.1423 53.5934 40.1144 53.6804 40.1144 53.8111V55.8497C40.1144 55.9804 40.1423 56.0669 40.1788 56.1269C40.2152 56.1866 40.2707 56.2372 40.3537 56.2794C40.5313 56.3695 40.8039 56.4063 41.1581 56.4063C41.5123 56.4063 41.7849 56.3695 41.9624 56.2794C42.0455 56.2372 42.1009 56.1866 42.1373 56.1269C42.1738 56.0669 42.2017 55.9804 42.2017 55.8497ZM41.1581 52.9883C40.4376 52.9883 39.8535 53.1351 39.8535 53.8111V55.8497C39.8535 56.5257 40.4376 56.6673 41.1581 56.6673C41.8785 56.6673 42.4626 56.5257 42.4626 55.8497V53.8111C42.4626 53.1351 41.8785 52.9883 41.1581 52.9883Z" fill="white"/>
<path d="M51.3013 53.3596C44.0004 54.9884 37.924 55.0195 30.8962 53.3596C19.6212 50.6965 16.3218 40.0269 26.2535 30.0016C26.7281 29.5226 26.9184 28.8296 26.8156 28.1633C26.3536 25.168 27.0781 21.2218 29.9822 18.0702C30.5033 17.5046 31.3541 17.4046 32.0028 17.8176C34.0784 19.1389 35.4782 20.7649 36.3109 23.6766C36.462 24.2052 37.0222 24.5148 37.5519 24.3674C39.8523 23.7272 41.927 23.807 43.9641 24.3233C44.5684 24.4765 45.2049 24.0339 45.3751 23.4341C45.8971 21.594 47.4668 19.1947 50.0842 17.7432C50.7837 17.3553 51.6492 17.5907 52.1379 18.224C53.6794 20.2214 55.2697 22.8773 54.816 28.1759C54.76 28.8297 55.0314 29.4732 55.5333 29.8958C64.6034 37.5323 63.1925 50.7068 51.3013 53.3596Z" fill="#FFC369"/>
<path d="M42.6966 25.5081C42.6916 24.878 43.1984 24.3632 43.8285 24.3582C44.4586 24.3533 44.9734 24.8601 44.9783 25.4902L45.0176 30.51C45.0226 31.1401 44.5158 31.6549 43.8857 31.6598C43.2556 31.6647 42.7408 31.158 42.7359 30.5279L42.6966 25.5081Z" fill="#C37807"/>
<path d="M39.7598 25.0003C39.7598 24.3702 40.2706 23.8594 40.9007 23.8594C41.5308 23.8594 42.0416 24.3702 42.0416 25.0003V30.5297C42.0416 31.1598 41.5308 31.8057 40.9007 31.8057C40.2706 31.8057 39.7598 31.1598 39.7598 30.5297V25.0003Z" fill="#C37807"/>
<path d="M36.8468 25.4061C36.8645 24.7762 37.3895 24.28 38.0194 24.2977C38.6492 24.3155 39.1454 24.8404 39.1277 25.4703L38.9865 30.4883C38.9687 31.1181 38.4438 31.6144 37.8139 31.5966C37.1841 31.5789 36.6878 31.0539 36.7056 30.4241L36.8468 25.4061Z" fill="#C37807"/>
<path d="M22.1839 39.5312C21.5538 39.5312 21.043 39.0205 21.043 38.3903C21.043 37.7602 21.5538 37.2494 22.1839 37.2494L25.8348 37.2494C26.4649 37.2494 26.9757 37.7602 26.9757 38.3903C26.9757 39.0204 26.4649 39.5312 25.8348 39.5312L22.1839 39.5312Z" fill="#C37807"/>
<path d="M56.2112 39.5312C55.5811 39.5312 55.0703 39.0205 55.0703 38.3903C55.0703 37.7602 55.5811 37.2494 56.2112 37.2494L59.8621 37.2494C60.4922 37.2494 61.003 37.7602 61.003 38.3903C61.003 39.0204 60.4922 39.5312 59.8621 39.5312L56.2112 39.5312Z" fill="#C37807"/>
<path d="M56.3184 44.224C55.6938 44.1413 55.2545 43.5678 55.3372 42.9432C55.4199 42.3185 55.9934 41.8792 56.618 41.962L60.2373 42.4413C60.8619 42.5241 61.3012 43.0975 61.2185 43.7221C61.1358 44.3468 60.5623 44.7861 59.9377 44.7034L56.3184 44.224Z" fill="#C37807"/>
<path d="M21.9443 44.691C21.331 44.8357 20.7165 44.456 20.5718 43.8427C20.427 43.2295 20.8067 42.615 21.42 42.4702L24.9732 41.6313C25.5864 41.4865 26.2009 41.8663 26.3457 42.4795C26.4905 43.0928 26.1107 43.7073 25.4975 43.8521L21.9443 44.691Z" fill="#C37807"/>
<path fill-rule="evenodd" clip-rule="evenodd" d="M51.8104 18.476C51.4272 17.9794 50.7794 17.83 50.2885 18.1065C47.8236 19.4951 46.4638 21.7889 46.0215 23.5313C45.9118 23.9636 45.6384 24.3008 45.3172 24.5097C45.0043 24.7132 44.5749 24.838 44.1309 24.7277C42.0958 24.2222 39.9309 24.1448 37.6615 24.7676C36.9145 24.9727 36.1271 24.5378 35.9132 23.7898C35.11 20.981 33.7762 19.4362 31.7806 18.1658C31.2957 17.8571 30.6675 17.9358 30.286 18.3498C27.4774 21.3977 26.7786 25.213 27.2239 28.0998C27.3444 28.8809 27.1237 29.7098 26.5469 30.2921C21.6429 35.2423 20.0749 40.2778 21.0246 44.347C21.9726 48.4085 25.4628 51.6511 30.991 52.9569C37.954 54.6015 43.967 54.5718 51.2111 52.9557C57 51.6642 60.191 47.8353 60.869 43.4332C61.5498 39.0129 59.7054 33.9485 55.2668 30.2115C54.6637 29.7037 54.3363 28.9298 54.4039 28.1402C54.6266 25.5393 54.3462 23.6088 53.8334 22.0941C53.3205 20.5791 52.5677 19.4572 51.8104 18.476ZM52.499 17.9447C51.8916 17.1577 50.7832 16.8296 49.8616 17.3488C47.1645 18.8682 45.6719 21.3738 45.1786 23.3174C45.0771 23.7171 44.6646 23.9642 44.3405 23.8837C42.1807 23.3472 39.863 23.2615 37.4313 23.929C37.1388 24.0093 36.8308 23.8352 36.7494 23.5507C35.8843 20.5253 34.4117 18.8098 32.2477 17.4321C31.4176 16.9037 30.3212 17.0281 29.6464 17.7604C26.6369 21.0264 25.8838 25.1173 26.3644 28.2324C26.4478 28.7729 26.2902 29.3155 25.9291 29.68C20.8947 34.7617 19.1375 40.0881 20.1777 44.5447C21.2198 49.0097 25.0325 52.4431 30.7911 53.8033C37.8904 55.4801 44.0368 55.4473 51.4004 53.8045C57.5191 52.4395 60.993 48.3414 61.7286 43.5656C62.461 38.8098 60.4687 33.4543 55.827 29.5462C55.4367 29.2177 55.2273 28.718 55.2704 28.2144C55.5019 25.5115 55.2136 23.4588 54.6572 21.8152C54.1008 20.1718 53.2846 18.9627 52.499 17.9447Z" fill="#C37807"/>
<path fill-rule="evenodd" clip-rule="evenodd" d="M41.1907 43.1211C41.5191 43.1211 41.8069 43.3277 41.8933 43.6255C42.1888 44.6441 42.9527 45.2399 43.7571 45.387C44.5483 45.5316 45.4813 45.2602 46.1771 44.3258C46.4077 44.0161 46.8618 43.9408 47.1913 44.1576C47.5207 44.3744 47.6009 44.8012 47.3702 45.1109C46.3669 46.4583 44.8725 46.9856 43.4791 46.7309C42.5706 46.5648 41.7498 46.0742 41.1714 45.333C40.5178 46.1163 39.5715 46.6336 38.6028 46.8157C37.1266 47.0933 35.4763 46.6027 34.7022 45.0016C34.5357 44.6574 34.6976 44.2516 35.0638 44.0952C35.4299 43.9387 35.8616 44.0909 36.028 44.4351C36.4675 45.344 37.366 45.6521 38.3172 45.4732C39.2973 45.289 40.2061 44.598 40.4882 43.6255C40.5746 43.3277 40.8624 43.1211 41.1907 43.1211Z" fill="#444444"/>
<path d="M34.856 38.1646C34.856 39.4248 34.0387 40.4464 33.0305 40.4464C32.0224 40.4464 31.2051 39.4248 31.2051 38.1646C31.2051 36.9044 32.0224 35.8828 33.0305 35.8828C34.0387 35.8828 34.856 36.9044 34.856 38.1646Z" fill="#444444"/>
<path d="M50.563 38.1646C50.563 39.4248 49.7457 40.4464 48.7376 40.4464C47.7294 40.4464 46.9121 39.4248 46.9121 38.1646C46.9121 36.9044 47.7294 35.8828 48.7376 35.8828C49.7457 35.8828 50.563 36.9044 50.563 38.1646Z" fill="#444444"/>
<path d="M41.1353 39.4906C42.3475 39.4808 43.3338 39.9633 43.3384 40.5683C43.3429 41.1733 42.364 41.6717 41.1518 41.6815C39.9397 41.6913 38.9533 41.2088 38.9488 40.6038C38.9442 39.9988 39.9232 39.5004 41.1353 39.4906Z" fill="#FF7A9A"/>
<path d="M34.5486 24.8465C34.0413 23.5006 32.8878 21.7251 31.7111 20.6625C31.1595 20.1644 30.3668 20.4452 30.1089 21.1422C29.6098 22.4909 28.9338 24.737 29.0261 26.8154C29.0494 27.3382 29.4271 27.7773 29.9459 27.8465C31.3229 28.0301 33.1054 27.7154 34.4167 25.8598C34.6256 25.5641 34.6763 25.1853 34.5486 24.8465Z" fill="#FFEFD7"/>
<path d="M47.4456 24.8465C47.9528 23.5006 49.1064 21.7251 50.283 20.6625C50.8346 20.1644 51.6273 20.4452 51.8853 21.1422C52.3844 22.4909 53.0604 24.737 52.968 26.8154C52.9448 27.3382 52.567 27.7773 52.0483 27.8465C50.6712 28.0301 48.8888 27.7154 47.5775 25.8598C47.3685 25.5641 47.3179 25.1853 47.4456 24.8465Z" fill="#FFEFD7"/>
<defs>
<clipPath id="clip0_1678_320">
<rect width="10.2081" height="10.2081" fill="white" transform="translate(36.0488 54.7734)"/>
</clipPath>
<clipPath id="clip1_1678_320">
<rect width="6" height="6" fill="white" transform="translate(38.1523 57.4141)"/>
</clipPath>
</defs>
</svg>
