<svg width="81" height="81" viewBox="0 0 81 81" fill="none" xmlns="http://www.w3.org/2000/svg">
<path d="M80.5605 40.1992C80.5605 62.2906 62.6519 80.1992 40.5605 80.1992C18.4692 80.1992 0.560547 62.2906 0.560547 40.1992C0.560547 18.1078 18.4692 0.199219 40.5605 0.199219C62.6519 0.199219 80.5605 18.1078 80.5605 40.1992Z" fill="#04472B"/>
<path d="M78.6034 40.1982C78.6034 61.2082 61.5715 78.2402 40.5615 78.2402C19.5515 78.2402 2.51953 61.2082 2.51953 40.1982C2.51953 19.1882 19.5515 2.15625 40.5615 2.15625C61.5715 2.15625 78.6034 19.1882 78.6034 40.1982Z" fill="white"/>
<path d="M76.0841 40.2003C76.0841 59.8199 60.1793 75.7247 40.5596 75.7247C20.94 75.7247 5.03516 59.8199 5.03516 40.2003C5.03516 20.5806 20.94 4.67578 40.5596 4.67578C60.1793 4.67578 76.0841 20.5806 76.0841 40.2003Z" fill="#0B6D44"/>
<path d="M62.6587 40.1995C62.6587 52.4038 52.7651 62.2974 40.5608 62.2974C28.3565 62.2974 18.4629 52.4038 18.4629 40.1995C18.4629 27.9951 28.3565 18.1016 40.5608 18.1016C52.7651 18.1016 62.6587 27.9951 62.6587 40.1995Z" fill="white"/>
<path d="M60.4215 40.2C60.4215 51.1684 51.5298 60.0601 40.5613 60.0601C29.5929 60.0601 20.7012 51.1684 20.7012 40.2C20.7012 29.2315 29.5929 20.3398 40.5613 20.3398C51.5298 20.3398 60.4215 29.2315 60.4215 40.2Z" fill="#007721"/>
<path d="M27.2168 50.5898H54.1959L-nan -nanL54.1959 50.5898C54.0942 52.3854 53.2095 54.0565 51.5818 54.8213C49.3448 55.8725 45.6368 57.1302 40.701 57.1302C35.7648 57.1302 32.0566 55.8723 29.8197 54.8211C28.1931 54.0567 27.3117 52.3846 27.2168 50.5898L-nan -nanL27.2168 50.5898Z" fill="white"/>
<g clip-path="url(#clip0_1518_2170)">
<path fill-rule="evenodd" clip-rule="evenodd" d="M40.8306 64.5675C43.6495 64.5675 45.9347 62.2823 45.9347 59.4634C45.9347 56.6445 43.6495 54.3594 40.8306 54.3594C38.0117 54.3594 35.7266 56.6445 35.7266 59.4634C35.7266 62.2823 38.0117 64.5675 40.8306 64.5675Z" fill="white"/>
<path fill-rule="evenodd" clip-rule="evenodd" d="M40.8306 63.6978C43.1692 63.6978 45.065 61.802 45.065 59.4634C45.065 57.1249 43.1692 55.2291 40.8306 55.2291C38.4921 55.2291 36.5963 57.1249 36.5963 59.4634C36.5963 61.802 38.4921 63.6978 40.8306 63.6978ZM45.9347 59.4634C45.9347 62.2823 43.6495 64.5675 40.8306 64.5675C38.0117 64.5675 35.7266 62.2823 35.7266 59.4634C35.7266 56.6445 38.0117 54.3594 40.8306 54.3594C43.6495 54.3594 45.9347 56.6445 45.9347 59.4634Z" fill="#EFA12B"/>
<g clip-path="url(#clip1_1518_2170)">
<path d="M39.2771 57.0938L37.9258 58.6644L40.8279 62.9L43.7289 58.6639L42.3859 57.0938H39.2771Z" fill="#0094D4"/>
<path fill-rule="evenodd" clip-rule="evenodd" d="M37.8467 58.7194C37.8224 58.6839 37.825 58.6366 37.8531 58.6039L39.2044 57.0333C39.2226 57.0122 39.2491 57 39.2771 57H42.3859C42.4139 57 42.4406 57.0122 42.4588 57.0335L43.8017 58.6037C43.8296 58.6363 43.8322 58.6835 43.8079 58.719L40.9069 62.955C40.8891 62.981 40.8595 62.9966 40.8278 62.9966C40.7962 62.9966 40.7666 62.981 40.7488 62.955L37.8467 58.7194ZM37.9258 58.6658L39.2771 57.0952H42.3859L43.7288 58.6654L40.8278 62.9014L37.9258 58.6658Z" fill="#0094D4"/>
<path d="M40.832 57.0938H39.2773L39.6505 58.6644L40.832 57.0938Z" fill="#04CEFE"/>
<path d="M37.9257 58.6641H39.6504L39.277 57.0934L37.9257 58.6641Z" fill="#6AD9FD"/>
<path d="M43.7286 58.6636L42.0117 58.6641L42.3851 57.0934L43.7286 58.6636Z" fill="#1ECFFF"/>
<path d="M42.0136 58.6641H39.6504L40.832 57.0934L42.0136 58.6641Z" fill="#ACEAFF"/>
<path d="M40.8301 57.0938H42.3848L42.0116 58.6644L40.8301 57.0938Z" fill="#00BEFC"/>
<path d="M39.6496 58.6641L40.8274 62.9L37.9258 58.6645L39.6496 58.6641Z" fill="#00AAF4"/>
<path d="M42.0054 58.6641L40.8269 62.9006L43.7285 58.6641H42.0054Z" fill="#008BD8"/>
<path d="M42.0111 58.6641H39.6484L40.8268 62.9L42.0111 58.6641Z" fill="#3BD1FF"/>
</g>
</g>
<path d="M39.5312 53.3971C39.5312 52.721 40.1153 52.5742 40.8358 52.5742C41.5563 52.5742 42.1403 52.721 42.1403 53.3971V55.4356C42.1403 56.1117 41.5563 56.2532 40.8358 56.2532C40.1153 56.2532 39.5312 56.1117 39.5312 55.4356V53.3971Z" fill="#EFA12B"/>
<path fill-rule="evenodd" clip-rule="evenodd" d="M41.8794 55.4356V53.3971C41.8794 53.2664 41.8516 53.1793 41.8147 53.1186C41.7781 53.0582 41.7223 53.0069 41.6391 52.9642C41.4616 52.8731 41.1891 52.8351 40.8358 52.8351C40.4825 52.8351 40.21 52.8731 40.0325 52.9642C39.9493 53.0069 39.8935 53.0582 39.8568 53.1186C39.82 53.1793 39.7922 53.2664 39.7922 53.3971V55.4356C39.7922 55.5664 39.82 55.6529 39.8566 55.7128C39.8929 55.7725 39.9484 55.8231 40.0315 55.8653C40.209 55.9554 40.4816 55.9923 40.8358 55.9923C41.19 55.9923 41.4626 55.9554 41.6401 55.8653C41.7232 55.8231 41.7786 55.7725 41.815 55.7128C41.8515 55.6529 41.8794 55.5664 41.8794 55.4356ZM40.8358 52.5742C40.1153 52.5742 39.5312 52.721 39.5312 53.3971V55.4356C39.5312 56.1117 40.1153 56.2532 40.8358 56.2532C41.5563 56.2532 42.1403 56.1117 42.1403 55.4356V53.3971C42.1403 52.721 41.5563 52.5742 40.8358 52.5742Z" fill="white"/>
<path d="M50.979 52.9455C43.6781 54.5743 37.6017 54.6055 30.574 52.9455C19.2989 50.2824 15.9995 39.6128 25.9313 29.5876C26.4058 29.1086 26.5962 28.4156 26.4934 27.7492C26.0313 24.754 26.7559 20.8077 29.66 17.6561C30.1811 17.0906 31.0319 16.9905 31.6806 17.4035C33.7562 18.7249 35.156 20.3508 35.9886 23.2626C36.1398 23.7911 36.7 24.1007 37.2296 23.9533C39.53 23.3131 41.6047 23.3929 43.6418 23.9092C44.2461 24.0624 44.8826 23.6198 45.0528 23.02C45.5749 21.18 47.1446 18.7806 49.7619 17.3291C50.4614 16.9412 51.3269 17.1766 51.8156 17.8099C53.3571 19.8073 54.9475 22.4632 54.4937 27.7619C54.4377 28.4156 54.7091 29.0592 55.211 29.4818C64.2811 37.1182 62.8702 50.2927 50.979 52.9455Z" fill="#FFC369"/>
<path d="M42.3743 25.094C42.3694 24.4639 42.8761 23.9491 43.5062 23.9442C44.1363 23.9392 44.6511 24.446 44.656 25.0761L44.6954 30.0959C44.7003 30.726 44.1935 31.2408 43.5634 31.2457C42.9333 31.2507 42.4186 30.7439 42.4136 30.1138L42.3743 25.094Z" fill="#C37807"/>
<path d="M39.4375 24.5862C39.4375 23.9561 39.9483 23.4453 40.5784 23.4453C41.2085 23.4453 41.7193 23.9561 41.7193 24.5862V30.1156C41.7193 30.7457 41.2085 31.3916 40.5784 31.3916C39.9483 31.3916 39.4375 30.7457 39.4375 30.1156V24.5862Z" fill="#C37807"/>
<path d="M36.5245 24.992C36.5423 24.3622 37.0672 23.8659 37.6971 23.8837C38.3269 23.9014 38.8232 24.4264 38.8054 25.0562L38.6642 30.0742C38.6465 30.7041 38.1215 31.2003 37.4916 31.1826C36.8618 31.1648 36.3656 30.6399 36.3833 30.01L36.5245 24.992Z" fill="#C37807"/>
<path d="M21.8616 39.1172C21.2315 39.1172 20.7207 38.6064 20.7207 37.9763C20.7207 37.3462 21.2315 36.8354 21.8616 36.8354L25.5125 36.8354C26.1426 36.8354 26.6534 37.3462 26.6534 37.9763C26.6534 38.6064 26.1426 39.1172 25.5125 39.1172L21.8616 39.1172Z" fill="#C37807"/>
<path d="M55.8889 39.1172C55.2588 39.1172 54.748 38.6064 54.748 37.9763C54.748 37.3462 55.2588 36.8354 55.8889 36.8354L59.5398 36.8354C60.1699 36.8354 60.6807 37.3462 60.6807 37.9763C60.6807 38.6064 60.1699 39.1172 59.5398 39.1172L55.8889 39.1172Z" fill="#C37807"/>
<path d="M55.9961 43.81C55.3715 43.7272 54.9322 43.1538 55.0149 42.5291C55.0976 41.9045 55.6711 41.4652 56.2957 41.5479L59.915 42.0273C60.5397 42.11 60.979 42.6834 60.8963 43.3081C60.8135 43.9327 60.2401 44.372 59.6154 44.2893L55.9961 43.81Z" fill="#C37807"/>
<path d="M21.622 44.2769C21.0088 44.4217 20.3943 44.0419 20.2495 43.4287C20.1047 42.8154 20.4845 42.2009 21.0977 42.0561L24.6509 41.2173C25.2642 41.0725 25.8787 41.4522 26.0234 42.0655C26.1682 42.6787 25.7885 43.2932 25.1752 43.438L21.622 44.2769Z" fill="#C37807"/>
<path fill-rule="evenodd" clip-rule="evenodd" d="M51.4882 18.062C51.1049 17.5653 50.4571 17.4159 49.9662 17.6925C47.5013 19.0811 46.1415 21.3748 45.6993 23.1172C45.5895 23.5495 45.3161 23.8867 44.9949 24.0956C44.682 24.2991 44.2527 24.424 43.8086 24.3136C41.7736 23.8081 39.6086 23.7307 37.3393 24.3536C36.5922 24.5586 35.8049 24.1237 35.591 23.3758C34.7878 20.5669 33.4539 19.0221 31.4584 17.7517C30.9734 17.443 30.3452 17.5217 29.9637 17.9357C27.1551 20.9836 26.4563 24.799 26.9016 27.6857C27.0221 28.4668 26.8015 29.2958 26.2247 29.878C21.3206 34.8282 19.7526 39.8637 20.7024 43.9329C21.6503 47.9944 25.1405 51.237 30.6688 52.5428C37.6317 54.1874 43.6447 54.1578 50.8888 52.5416C56.6777 51.2502 59.8688 47.4212 60.5467 43.0191C61.2275 38.5989 59.3831 33.5345 54.9446 29.7975C54.3414 29.2897 54.014 28.5157 54.0816 27.7261C54.3044 25.1253 54.024 23.1947 53.5112 21.68C52.9983 20.1651 52.2454 19.0432 51.4882 18.062ZM52.1767 17.5306C51.5694 16.7436 50.4609 16.4156 49.5394 16.9347C46.8422 18.4542 45.3496 20.9597 44.8563 22.9033C44.7548 23.3031 44.3423 23.5501 44.0183 23.4696C41.8585 22.9331 39.5407 22.8475 37.1091 23.5149C36.8166 23.5952 36.5085 23.4211 36.4272 23.1366C35.562 20.1112 34.0894 18.3957 31.9254 17.0181C31.0954 16.4896 29.999 16.614 29.3241 17.3464C26.3146 20.6124 25.5615 24.7032 26.0421 27.8183C26.1255 28.3589 25.9679 28.9014 25.6068 29.2659C20.5725 34.3477 18.8153 39.674 19.8554 44.1306C20.8976 48.5956 24.7103 52.0291 30.4689 53.3892C37.5681 55.066 43.7145 55.0333 51.0782 53.3905C57.1969 52.0254 60.6707 47.9273 61.4063 43.1515C62.1388 38.3957 60.1464 33.0402 55.5047 29.1322C55.1145 28.8036 54.905 28.304 54.9482 27.8003C55.1796 25.0975 54.8914 23.0447 54.3349 21.4011C53.7786 19.7577 52.9623 18.5486 52.1767 17.5306Z" fill="#C37807"/>
<path fill-rule="evenodd" clip-rule="evenodd" d="M40.8685 42.707C41.1969 42.707 41.4846 42.9136 41.571 43.2115C41.8665 44.23 42.6305 44.8259 43.4348 44.9729C44.226 45.1175 45.159 44.8462 45.8548 43.9117C46.0855 43.602 46.5395 43.5267 46.869 43.7435C47.1985 43.9603 47.2786 44.3871 47.048 44.6969C46.0446 46.0442 44.5502 46.5715 43.1568 46.3168C42.2483 46.1508 41.4275 45.6602 40.8491 44.9189C40.1955 45.7022 39.2492 46.2196 38.2805 46.4017C36.8043 46.6792 35.1541 46.1886 34.3799 44.5876C34.2135 44.2434 34.3754 43.8376 34.7415 43.6811C35.1076 43.5247 35.5393 43.6769 35.7058 44.021C36.1453 44.93 37.0437 45.238 37.9949 45.0592C38.975 44.8749 39.8838 44.1839 40.1659 43.2115C40.2523 42.9136 40.5401 42.707 40.8685 42.707Z" fill="#444444"/>
<path d="M34.5337 37.7506C34.5337 39.0108 33.7164 40.0324 32.7083 40.0324C31.7001 40.0324 30.8828 39.0108 30.8828 37.7506C30.8828 36.4903 31.7001 35.4688 32.7083 35.4688C33.7164 35.4688 34.5337 36.4903 34.5337 37.7506Z" fill="#444444"/>
<path d="M50.2407 37.7506C50.2407 39.0108 49.4235 40.0324 48.4153 40.0324C47.4071 40.0324 46.5898 39.0108 46.5898 37.7506C46.5898 36.4903 47.4071 35.4688 48.4153 35.4688C49.4235 35.4688 50.2407 36.4903 50.2407 37.7506Z" fill="#444444"/>
<path d="M40.8131 39.0765C42.0252 39.0667 43.0116 39.5492 43.0161 40.1542C43.0207 40.7592 42.0417 41.2576 40.8296 41.2674C39.6174 41.2772 38.6311 40.7947 38.6265 40.1897C38.6219 39.5847 39.6009 39.0863 40.8131 39.0765Z" fill="#FF7A9A"/>
<path d="M34.2263 24.4324C33.719 23.0865 32.5655 21.311 31.3889 20.2484C30.8373 19.7503 30.0446 20.0311 29.7866 20.7281C29.2875 22.0769 28.6115 24.323 28.7039 26.4013C28.7271 26.9241 29.1048 27.3632 29.6236 27.4324C31.0007 27.616 32.7831 27.3013 34.0944 25.4457C34.3034 25.15 34.354 24.7712 34.2263 24.4324Z" fill="#FFEFD7"/>
<path d="M47.1233 24.4324C47.6306 23.0865 48.7841 21.311 49.9607 20.2484C50.5124 19.7503 51.3051 20.0311 51.563 20.7281C52.0621 22.0769 52.7381 24.323 52.6458 26.4013C52.6225 26.9241 52.2448 27.3632 51.726 27.4324C50.349 27.616 48.5665 27.3013 47.2552 25.4457C47.0462 25.15 46.9956 24.7712 47.1233 24.4324Z" fill="#FFEFD7"/>
<defs>
<clipPath id="clip0_1518_2170">
<rect width="10.2081" height="10.2081" fill="white" transform="translate(35.7266 54.3594)"/>
</clipPath>
<clipPath id="clip1_1518_2170">
<rect width="6" height="6" fill="white" transform="translate(37.8301 57)"/>
</clipPath>
</defs>
</svg>
