<svg width="151" height="150" viewBox="0 0 151 150" fill="none" xmlns="http://www.w3.org/2000/svg">
<g clip-path="url(#clip0_1415_3946)">
<circle cx="75.7559" cy="75.0078" r="75" fill="white"/>
<path d="M75.7559 145.008C57.0538 145.008 39.4831 137.725 26.2609 124.503C13.0387 111.281 5.75586 93.7098 5.75586 75.0078C5.75586 56.3058 13.0387 38.7351 26.2609 25.5129C39.4831 12.2906 57.0538 5.00781 75.7559 5.00781C94.4579 5.00781 112.029 12.2906 125.251 25.5129C138.473 38.7351 145.756 56.3058 145.756 75.0078C145.756 93.7098 138.473 111.281 125.251 124.503C112.029 137.725 94.4579 145.008 75.7559 145.008ZM75.7559 10.6997C40.2963 10.6997 11.4478 39.5482 11.4478 75.0078C11.4478 110.467 40.2963 139.316 75.7559 139.316C111.215 139.316 140.064 110.467 140.064 75.0078C140.064 39.5482 111.215 10.6997 75.7559 10.6997ZM67.4124 54.5028L26.5437 44.3916L53.6953 76.5987L31.4225 112.377L70.4528 96.5028L97.6043 128.71L94.5639 86.7098L133.594 70.8361L92.7256 60.725L89.6852 18.725L67.4124 54.5028Z" fill="#DB2777"/>
</g>
<defs>
<clipPath id="clip0_1415_3946">
<rect width="150" height="150" fill="white" transform="translate(0.755859 0.0078125)"/>
</clipPath>
</defs>
</svg>
