<svg width="81" height="81" viewBox="0 0 81 81" fill="none" xmlns="http://www.w3.org/2000/svg">
<path d="M61.3808 28.0914C60.8313 27.2108 60.4467 26.3436 60.2272 25.4897C60.015 24.6312 59.9632 23.8596 60.0719 23.175C60.1805 22.4904 60.3987 21.884 60.7264 21.3559C61.0613 20.8233 61.4871 20.3958 62.0038 20.0733C62.5205 19.7509 63.088 19.5585 63.7064 19.4961C64.3365 19.4365 64.9807 19.5047 65.6389 19.7006C66.3016 19.9038 66.972 20.2893 67.6499 20.8571C68.3279 21.4249 68.9325 22.1346 69.4639 22.986C69.9953 23.8374 70.3598 24.6565 70.5576 25.4431C70.7553 26.2298 70.7971 26.9367 70.683 27.5641C70.4494 28.8424 69.8232 29.7994 68.8044 30.4353C68.2878 30.7577 67.7116 30.9606 67.076 31.0438C66.4449 31.1343 65.7961 31.0994 65.1297 30.9389C64.4752 30.7812 63.8148 30.4602 63.1486 29.9761C62.4897 29.4874 61.9004 28.8591 61.3808 28.0914ZM66.965 27.6094C67.3143 27.3914 67.5391 27.0792 67.6394 26.6728C67.7469 26.2619 67.6417 25.8018 67.3238 25.2924C67.0104 24.7902 66.626 24.474 66.1706 24.3437C65.7151 24.2134 65.2945 24.2686 64.9088 24.5093C64.5231 24.75 64.3115 25.0995 64.2739 25.5577C64.2364 26.016 64.3538 26.4634 64.6263 26.9C64.9034 27.3439 65.2769 27.6265 65.7469 27.7478C66.2169 27.869 66.623 27.8229 66.965 27.6094Z" fill="white"/>
<path d="M57.0146 20.6104C56.8972 20.7584 56.7282 20.8532 56.5076 20.895C56.292 20.9298 56.0749 20.8788 55.8562 20.742C55.4397 20.4836 54.9533 20.1535 54.3969 19.7518C53.8406 19.3501 53.3394 18.9671 52.8936 18.6028C52.695 18.4382 52.5783 18.2482 52.5435 18.0326C52.5137 17.8101 52.5506 17.6198 52.6541 17.4618C53.3966 16.3896 54.0364 15.4815 54.5738 14.7373C55.1161 13.9862 55.5163 13.4393 55.7743 13.0966C55.9652 12.8323 55.9423 12.6148 55.7059 12.4441L54.767 11.7662C54.621 11.6607 54.5279 11.5406 54.4877 11.4057C54.4475 11.2709 54.4832 11.1116 54.5948 10.9276C54.7134 10.7488 54.8405 10.5654 54.9761 10.3777C55.1117 10.1899 55.2307 10.0324 55.333 9.90532C55.4474 9.77627 55.5783 9.71213 55.7259 9.71289C55.8855 9.71171 56.0244 9.75381 56.1426 9.83918C57.0567 10.4781 58.2857 11.355 59.8297 12.4698C61.3736 13.5846 62.4743 14.39 63.1319 14.886C63.2451 14.9783 63.3253 15.0944 63.3725 15.2343C63.4266 15.3791 63.4069 15.5236 63.3134 15.6677C63.2319 15.8099 63.1259 15.9714 62.9953 16.1522C62.8647 16.333 62.7357 16.5044 62.6082 16.6663C62.3614 16.9642 62.078 16.9976 61.7581 16.7666L60.8192 16.0887C60.5828 15.918 60.3767 15.9543 60.2009 16.1977C59.589 17.089 59.027 17.8894 58.5148 18.5988C58.0026 19.3081 57.5025 19.9787 57.0146 20.6104Z" fill="white"/>
<path d="M46.7272 14.7282L46.4951 15.7838C46.4158 16.1441 46.1263 16.2824 45.6265 16.1988C45.1351 16.1171 44.6003 16.0127 44.0222 15.8856C43.4525 15.7603 42.8036 15.5957 42.0756 15.3916C41.8363 15.3215 41.6579 15.1944 41.5402 15.0104C41.431 14.8283 41.385 14.6381 41.4022 14.4399C41.4973 13.6879 41.718 12.5244 42.0644 10.9493C42.4126 9.36591 42.6911 8.21948 42.8998 7.51003C43.1085 6.80059 43.5531 6.51629 44.2335 6.65714C45.0163 6.81172 45.8518 6.98666 46.7398 7.18195C47.6279 7.37724 48.5844 7.60075 49.6094 7.85249C50.6427 8.10608 51.4032 8.68173 51.8909 9.57944C52.3785 10.4772 52.5229 11.3784 52.3239 12.2832C52.1249 13.1881 51.6719 13.8701 50.9649 14.3295C50.2578 14.7888 49.3472 14.8959 48.2329 14.6509L47.2527 14.4354C47.1438 14.4114 47.035 14.427 46.9262 14.4821C46.8175 14.5373 46.7511 14.6193 46.7272 14.7282ZM47.715 10.1762L47.2289 12.5066C47.1939 12.6658 47.2644 12.7647 47.4403 12.8034C47.9597 12.9177 48.3974 12.8646 48.7533 12.6442C49.1193 12.4173 49.3457 12.107 49.4323 11.7132C49.5189 11.3195 49.4511 10.9488 49.2288 10.6014C49.015 10.2557 48.6358 10.023 48.0912 9.90325C47.8902 9.85903 47.7648 9.95003 47.715 10.1762Z" fill="white"/>
<path d="M40.1784 6.21259C40.3481 6.18794 40.4454 6.2605 40.47 6.43029C40.486 6.54064 40.4566 6.66627 40.3817 6.80716L38.1856 11.7417C38.2855 12.4293 38.4097 13.4341 38.5582 14.7561C38.5769 14.9441 38.5215 15.1298 38.3921 15.3133C38.2615 15.4883 38.0701 15.6027 37.8179 15.6567C37.3389 15.7609 36.7599 15.8623 36.0807 15.9609C35.4016 16.0595 34.7752 16.1331 34.2015 16.1817C33.9444 16.2017 33.7283 16.1464 33.5533 16.0158C33.3771 15.8767 33.2712 15.7143 33.2356 15.5288C33.0941 14.6739 32.9562 13.7838 32.8219 12.8585L29.623 8.91517C29.4673 8.73841 29.3802 8.58636 29.3618 8.45902C29.3001 8.03457 29.4773 7.79215 29.8933 7.73176L34.2445 7.07405C34.4907 7.03831 34.6787 7.05002 34.8087 7.10917C34.9471 7.16708 35.1185 7.30256 35.3227 7.51561L36.3417 9.07095C36.5046 9.23799 36.6285 9.31535 36.7134 9.30302C36.8068 9.28947 36.9061 9.19704 37.0112 9.02575L38.0143 6.79981C38.1327 6.60059 38.3023 6.48495 38.523 6.45291L40.1784 6.21259Z" fill="white"/>
<path d="M22.3376 14.8859L23.9191 16.6652C24.026 16.7882 24.1474 16.7906 24.2834 16.6724C24.6847 16.3234 24.9029 15.9404 24.9381 15.5233C24.9741 15.0941 24.8598 14.7274 24.5953 14.4231C24.3307 14.1189 23.9927 13.9524 23.5813 13.9238C23.1763 13.8894 22.7634 14.0552 22.3427 14.4211C22.1873 14.5562 22.1856 14.7111 22.3376 14.8859ZM27.406 15.5768C27.6416 15.5993 28.5035 15.7081 29.9918 15.9031C30.0877 15.9219 30.1554 15.954 30.1948 15.9993C30.3412 16.1676 30.3399 16.3165 30.191 16.446C29.8536 16.7508 29.5101 17.0551 29.1606 17.3591C28.8175 17.6574 28.4716 17.9525 28.1229 18.2444C27.9352 18.4076 27.699 18.4824 27.4141 18.4686L25.4815 17.9325C25.4154 17.9218 25.354 17.9297 25.2974 17.9561C25.1601 18.0074 25.1449 18.0945 25.2518 18.2175L26.1131 19.2078C26.3551 19.4862 26.3001 19.7955 25.948 20.1357C25.6024 20.4704 25.2128 20.8263 24.7791 21.2034C24.3454 21.5805 23.8071 22.0203 23.164 22.5227C22.965 22.673 22.7566 22.7405 22.5388 22.7253C22.3274 22.7045 22.1473 22.6281 21.9984 22.4961C21.4513 21.9715 20.6486 21.1008 19.5903 19.8839C18.5265 18.6605 17.7719 17.7536 17.3267 17.1631C16.8814 16.5727 16.9181 16.0463 17.4368 15.5838C17.9231 15.1496 18.5902 14.5637 19.4382 13.8264C20.2862 13.089 20.9941 12.4847 21.562 12.0135C22.3759 11.3285 23.2919 11.0549 24.3098 11.1928C25.3278 11.3307 26.1548 11.7653 26.7909 12.4968C27.1624 12.924 27.4054 13.4061 27.52 13.9431C27.641 14.4744 27.603 15.019 27.406 15.5768Z" fill="white"/>
<path d="M19.6069 29.2798C18.8736 30.6386 17.9496 31.529 16.8349 31.951C15.7167 32.3613 14.5273 32.2263 13.2666 31.546C12.4966 31.1305 11.8882 30.6413 11.4413 30.0785C10.9985 29.5082 10.7278 28.8991 10.629 28.2512C10.435 26.967 10.7412 25.5776 11.5478 24.0829C12.0693 23.1166 12.7228 22.2216 13.5084 21.3979C13.8288 21.0932 14.2268 21.0691 14.7024 21.3258C15.3517 21.6761 15.5663 22.0551 15.3463 22.4628C15.3096 22.5307 15.1593 22.7371 14.8952 23.082C14.6311 23.4268 14.4583 23.6748 14.3769 23.8257C14.0876 24.3617 14.0523 24.8788 14.2709 25.3769C14.486 25.8633 14.854 26.2471 15.3749 26.5282C15.8882 26.8052 16.4145 26.9137 16.9537 26.8538C17.4929 26.7939 17.8963 26.534 18.164 26.0741C18.3502 25.7652 18.6612 25.2068 19.0971 24.3991C19.3089 24.0065 19.61 23.8912 20.0003 24.053C20.1484 24.1037 20.2941 24.1678 20.4376 24.2452C20.5734 24.3185 20.707 24.4052 20.8382 24.5052C21.0855 24.6972 21.1715 25.0165 21.0962 25.4632C21.0133 25.9058 20.8219 26.5044 20.522 27.2588C20.2296 28.0173 19.9246 28.691 19.6069 29.2798Z" fill="white"/>
<path d="M64.1486 48.8636L72.4038 48.4325C72.7341 48.4116 72.9867 48.4469 73.1615 48.5383C73.3288 48.6258 73.4184 48.7598 73.4305 48.9403C73.4425 49.1209 73.4009 49.3024 73.3055 49.4848L71.3855 53.1563C71.1907 53.5288 70.997 53.7324 70.8046 53.7673C70.7431 53.7739 70.6414 53.7739 70.4995 53.7675L69.6197 53.7285C69.3476 53.712 69.1009 53.8783 68.8797 54.2272L67.7527 56.3823C67.6692 56.5419 67.6208 56.6715 67.6075 56.771C67.5942 56.8705 67.6268 56.9747 67.7054 57.0835L68.3965 58.0112C68.4935 58.1588 68.5448 58.2921 68.5503 58.4111C68.5482 58.5262 68.5015 58.6711 68.41 58.846L67.8734 59.8722C67.7184 60.1686 67.5285 60.2726 67.3037 60.1841C67.2693 60.1758 67.2369 60.1637 67.2065 60.1478C67.0317 60.0564 66.8943 59.9119 66.7943 59.7144L62.3666 52.8541C61.9526 52.202 61.9463 51.492 62.3478 50.7243L62.8248 49.8121C63.1429 49.204 63.5841 48.8878 64.1486 48.8636ZM65.1356 54.0843L65.8989 55.1514C65.9514 55.2176 66.0043 55.2646 66.0575 55.2924C66.2551 55.3958 66.4036 55.3524 66.503 55.1624L67.0456 54.1248C67.1291 53.9652 67.1487 53.8351 67.1045 53.7345C67.0527 53.63 66.9964 53.5618 66.9356 53.53C66.8748 53.4982 66.808 53.4778 66.7352 53.4688L65.5281 53.3893C65.2827 53.3772 65.1223 53.4433 65.0468 53.5877C64.9712 53.7322 65.0008 53.8977 65.1356 54.0843Z" fill="white"/>
<path d="M66.2759 61.5475C66.3841 61.7134 66.4251 61.9047 66.3988 62.1215C66.3793 62.333 66.2735 62.5248 66.0816 62.6971C65.5544 63.1648 65.1119 63.5388 64.7541 63.8193C64.3963 64.0998 63.9611 64.4136 63.4485 64.7609C63.0508 65.0181 62.728 65.0096 62.4802 64.7351C62.3835 64.6257 62.2603 64.4824 62.1107 64.3054C61.9557 64.1217 61.816 63.9642 61.6913 63.833C61.5735 63.6965 61.449 63.6142 61.318 63.5861C61.1937 63.5527 61.0506 63.5995 60.8886 63.7265L60.129 64.3219C59.967 64.4489 59.884 64.5793 59.88 64.7133C59.8827 64.8419 59.9329 64.9824 60.0305 65.1348C60.1349 65.2818 60.2578 65.4525 60.3992 65.6469C60.5353 65.8345 60.645 65.9883 60.7282 66.1083C60.9355 66.4145 60.8667 66.73 60.5218 67.0548C60.0622 67.4696 59.6298 67.8357 59.2247 68.1532C58.8264 68.4654 58.3372 68.8216 57.7571 69.2218C57.544 69.367 57.3291 69.4265 57.1123 69.4002C56.9023 69.3687 56.7296 69.2805 56.5944 69.1359C56.0747 68.5841 55.299 67.6499 54.2671 66.3334C53.2352 65.0169 52.5793 64.1522 52.2994 63.7395C52.0142 63.32 51.8633 63.0023 51.8466 62.7864C51.8247 62.5638 51.9556 62.3414 52.2391 62.1191L54.7101 60.1824C54.9464 59.9972 55.2091 59.9221 55.4981 59.9571C55.7939 59.9868 56.0424 60.13 56.2434 60.3865L57.9103 62.5132C58.1008 62.7563 58.3007 62.7958 58.51 62.6317L59.6341 61.7507C59.8434 61.5866 59.8528 61.3831 59.6623 61.14L57.9954 59.0133C57.7943 58.7568 57.7113 58.484 57.7463 58.195C57.7881 57.9006 57.9272 57.6609 58.1635 57.4757L60.5028 55.6421C60.7864 55.4198 61.0336 55.3459 61.2446 55.4204C61.4502 55.488 61.7226 55.7105 62.0619 56.0876C62.3958 56.4581 63.0787 57.3015 64.1106 58.618C65.1425 59.9346 65.8642 60.911 66.2759 61.5475Z" fill="white"/>
<path d="M47.8653 73.486C46.3737 73.8848 45.092 73.8235 44.0202 73.302C42.9545 72.7701 42.2367 71.8121 41.8667 70.4282C41.6407 69.5829 41.5791 68.8046 41.682 68.0934C41.7931 67.38 42.0505 66.7651 42.4541 66.2487C43.2552 65.2265 44.4762 64.4961 46.117 64.0574C47.1777 63.7738 48.2772 63.6352 49.4155 63.6417C49.857 63.6657 50.1476 63.9387 50.2872 64.4608C50.4777 65.1735 50.3492 65.5897 49.9017 65.7093C49.8272 65.7293 49.5738 65.7615 49.1418 65.806C48.7097 65.8504 48.4108 65.8948 48.245 65.9392C47.6566 66.0965 47.2563 66.4255 47.0438 66.9263C46.8375 67.4165 46.8108 67.9475 46.9636 68.5193C47.1143 69.0829 47.3964 69.5402 47.81 69.8914C48.2235 70.2425 48.6894 70.3577 49.2076 70.2369C49.5601 70.1604 50.1797 70.0037 51.0664 69.7666C51.4973 69.6514 51.7878 69.7913 51.9378 70.1863C52.0025 70.3288 52.056 70.4788 52.0981 70.6362C52.1379 70.7854 52.1665 70.942 52.1837 71.1061C52.2138 71.4177 52.0404 71.6994 51.6638 71.951C51.2849 72.1944 50.7181 72.4658 49.9635 72.7652C49.2111 73.073 48.5117 73.3132 47.8653 73.486Z" fill="white"/>
<path d="M36.3155 72.9047C36.2647 73.0867 36.1457 73.2397 35.9586 73.3637C35.7734 73.4794 35.5535 73.5167 35.2989 73.4755C34.8148 73.3989 34.2384 73.2833 33.5697 73.1289C32.9011 72.9745 32.2906 72.8159 31.7384 72.6531C31.4915 72.5785 31.3102 72.4486 31.1945 72.2634C31.0807 72.0698 31.0409 71.8801 31.075 71.6943C31.3434 70.4181 31.5808 69.3329 31.7874 68.4385C31.9959 67.5359 32.1526 66.8766 32.2574 66.4606C32.3308 66.143 32.2254 65.9514 31.9412 65.8857L30.8129 65.6251C30.6374 65.5846 30.5049 65.51 30.4156 65.4013C30.3262 65.2926 30.2973 65.1319 30.3289 64.9191C30.3688 64.7082 30.4148 64.4899 30.4669 64.2642C30.519 64.0386 30.5676 63.8473 30.6126 63.6904C30.668 63.5271 30.7638 63.4172 30.9001 63.3606C31.0467 63.2977 31.191 63.2826 31.3331 63.3154C32.4235 63.5496 33.8965 63.881 35.752 64.3096C37.6075 64.7381 38.9345 65.0534 39.733 65.2555C39.8731 65.2967 39.9921 65.3725 40.0898 65.4832C40.1958 65.5957 40.2338 65.7365 40.2035 65.9056C40.1835 66.0683 40.1485 66.2582 40.0983 66.4756C40.0481 66.6929 39.9956 66.9008 39.9409 67.0995C39.829 67.4698 39.5808 67.6106 39.1963 67.5218L38.068 67.2612C37.7838 67.1956 37.608 67.309 37.5404 67.6015C37.3222 68.6604 37.1147 69.6162 36.9178 70.4687C36.7209 71.3212 36.5201 72.1332 36.3155 72.9047Z" fill="white"/>
<path d="M28.0806 61.9762L27.5819 70.2276C27.5655 70.5582 27.5021 70.8052 27.3916 70.9687C27.2859 71.1251 27.1427 71.1991 26.962 71.1908C26.7812 71.1825 26.6055 71.1207 26.435 71.0054L23.0023 68.6853C22.6541 68.4499 22.4734 68.2346 22.4604 68.0394C22.4608 67.9776 22.4722 67.8765 22.4945 67.7363L22.632 66.8664C22.679 66.5978 22.5415 66.3341 22.2195 66.0751L20.2047 64.7132C20.0555 64.6123 19.9322 64.5497 19.8348 64.5253C19.7374 64.5009 19.6302 64.5216 19.5132 64.5875L18.5138 65.1699C18.3563 65.2498 18.218 65.2858 18.0991 65.2779C17.985 65.2629 17.8462 65.2002 17.6828 65.0897L16.7233 64.4412C16.4462 64.2539 16.3642 64.0535 16.4774 63.8401C16.4895 63.8069 16.5051 63.776 16.5243 63.7476C16.6348 63.5841 16.7938 63.4638 17.0013 63.3866L24.3154 59.7574C25.0099 59.4192 25.7161 59.4927 26.4339 59.9779L27.2867 60.5544C27.8553 60.9386 28.1199 61.4126 28.0806 61.9762ZM22.782 62.3707L21.636 63.0093C21.5643 63.0541 21.5117 63.1013 21.478 63.1511C21.3531 63.3359 21.3795 63.4883 21.5572 63.6084L22.5273 64.2641C22.6765 64.365 22.8036 64.3991 22.9085 64.3664C23.0182 64.3267 23.0923 64.2784 23.1307 64.2215C23.1691 64.1647 23.1969 64.1006 23.214 64.0294L23.4286 62.8388C23.4682 62.5963 23.4205 62.4295 23.2855 62.3382C23.1504 62.2469 22.9826 62.2578 22.782 62.3707Z" fill="white"/>
<path d="M17.982 51.283C17.8065 51.758 17.5558 52.333 17.2301 53.0079C16.9117 53.6785 16.706 54.1365 16.6131 54.3821C16.5202 54.6277 16.4979 54.791 16.5464 54.8719C16.5993 54.9603 16.6934 55.0089 16.8287 55.0178C16.9641 55.0268 17.4775 55.0494 18.3689 55.0855C19.2604 55.1217 19.9533 55.1768 20.4475 55.2508C20.9491 55.3205 21.252 55.434 21.3563 55.5915C21.4606 55.749 21.5899 55.9566 21.7441 56.2142C21.8983 56.4718 22.0716 56.778 22.264 57.1327C22.4564 57.4874 22.501 57.7707 22.3978 57.9824C22.3064 58.1971 22.1164 58.4058 21.8278 58.6085C21.0815 59.1154 20.068 59.7521 18.7874 60.5188C17.5141 61.2811 16.4897 61.8495 15.714 62.2238C15.5286 62.3149 15.3307 62.3434 15.1203 62.3093C14.91 62.2753 14.7431 62.1552 14.6198 61.9492C14.3436 61.5046 14.0403 61.0063 13.7098 60.4543C13.3838 59.9097 13.1348 59.4689 12.963 59.1318C12.8999 59.0097 12.8802 58.8765 12.9038 58.7323C12.9393 58.5912 13.0247 58.475 13.1602 58.3839L14.9421 57.2271C15.1143 57.114 15.1894 57.0141 15.1675 56.9272C15.1499 56.8478 15.0646 56.8139 14.9116 56.8255C13.9862 56.8496 12.9226 56.8265 11.7208 56.7562C11.4236 56.7442 11.2067 56.6241 11.0701 56.3959C10.9335 56.1677 10.9279 55.9162 11.0532 55.6412C11.267 55.1633 11.785 54.2583 12.6071 52.9262C12.6587 52.8454 12.6764 52.7748 12.6603 52.7145C12.6486 52.6615 12.6059 52.632 12.5324 52.6261C12.4588 52.6201 12.3632 52.6524 12.2454 52.7229L10.3908 53.7582C10.2466 53.8346 10.095 53.8403 9.93621 53.7755C9.78475 53.7062 9.65907 53.5964 9.55918 53.4463L8.90484 52.3533C8.79323 52.1502 8.76621 51.9464 8.82378 51.742C8.88576 51.5449 8.99478 51.3847 9.15084 51.2613C9.77062 50.8102 10.7687 50.1727 12.145 49.3487C13.5286 48.5204 14.5553 47.9307 15.225 47.5797C15.5473 47.4168 15.8284 47.3435 16.0682 47.3599C16.308 47.3763 16.5182 47.5354 16.6988 47.8371C17.6242 49.3827 18.1132 50.2247 18.1661 50.363C18.2189 50.5013 18.1575 50.808 17.982 51.283Z" fill="white"/>
</svg>
