<svg width="357" height="408" viewBox="0 0 357 408" fill="none" xmlns="http://www.w3.org/2000/svg">
<path d="M64.959 288.527H294.133L-nan -nanL294.133 288.527C293.269 303.78 285.754 317.975 271.928 324.472C252.925 333.401 221.428 344.085 179.501 344.085C137.57 344.085 106.071 333.399 87.069 324.469C73.2521 317.976 65.7651 303.773 64.959 288.527L-nan -nanL64.959 288.527Z" fill="white"/>
<g clip-path="url(#clip0_1420_3677)">
<path fill-rule="evenodd" clip-rule="evenodd" d="M180.601 407.272C204.546 407.272 223.957 387.86 223.957 363.915C223.957 339.97 204.546 320.559 180.601 320.559C156.656 320.559 137.244 339.97 137.244 363.915C137.244 387.86 156.656 407.272 180.601 407.272Z" fill="white"/>
<path fill-rule="evenodd" clip-rule="evenodd" d="M180.601 399.884C200.466 399.884 216.569 383.78 216.569 363.915C216.569 344.05 200.466 327.946 180.601 327.946C160.736 327.946 144.632 344.05 144.632 363.915C144.632 383.78 160.736 399.884 180.601 399.884ZM223.957 363.915C223.957 387.86 204.546 407.272 180.601 407.272C156.655 407.272 137.244 387.86 137.244 363.915C137.244 339.97 156.655 320.559 180.601 320.559C204.546 320.559 223.957 339.97 223.957 363.915Z" fill="#EFA12B"/>
<g clip-path="url(#clip1_1420_3677)">
<path d="M167.407 343.797L155.928 357.139L180.579 393.118L205.222 357.135L193.814 343.797H167.407Z" fill="#0094D4"/>
<path fill-rule="evenodd" clip-rule="evenodd" d="M155.256 357.594C155.05 357.292 155.072 356.89 155.311 356.613L166.789 343.271C166.944 343.092 167.169 342.988 167.407 342.988H193.815C194.053 342.988 194.279 343.092 194.433 343.273L205.841 356.611C206.079 356.888 206.1 357.289 205.894 357.59L181.251 393.573C181.1 393.794 180.848 393.926 180.58 393.926C180.311 393.926 180.059 393.794 179.908 393.573L155.256 357.594ZM155.928 357.139L167.407 343.797H193.815L205.222 357.135L180.58 393.118L155.928 357.139Z" fill="#0094D4"/>
<path d="M180.608 343.797H167.402L170.572 357.139L180.608 343.797Z" fill="#04CEFE"/>
<path d="M155.926 357.141H170.576L167.405 343.799L155.926 357.141Z" fill="#6AD9FD"/>
<path d="M205.223 357.137L190.639 357.141L193.81 343.799L205.223 357.137Z" fill="#1ECFFF"/>
<path d="M190.645 357.141H170.57L180.607 343.799L190.645 357.141Z" fill="#ACEAFF"/>
<path d="M180.606 343.797H193.812L190.643 357.139L180.606 343.797Z" fill="#00BEFC"/>
<path d="M170.571 357.133L180.576 393.115L155.928 357.137L170.571 357.133Z" fill="#00AAF4"/>
<path d="M190.588 357.133L180.577 393.12L205.225 357.133H190.588Z" fill="#008BD8"/>
<path d="M190.638 357.137H170.568L180.578 393.119L190.638 357.137Z" fill="#3BD1FF"/>
</g>
</g>
<path d="M169.58 312.384C169.58 306.642 174.541 305.395 180.662 305.395C186.782 305.395 191.743 306.642 191.743 312.384V329.701C191.743 335.443 186.782 336.646 180.662 336.646C174.541 336.646 169.58 335.443 169.58 329.701V312.384Z" fill="#EFA12B"/>
<path fill-rule="evenodd" clip-rule="evenodd" d="M189.527 329.701V312.384C189.527 311.274 189.29 310.534 188.977 310.019C188.666 309.505 188.192 309.07 187.485 308.708C185.978 307.934 183.663 307.611 180.662 307.611C177.66 307.611 175.345 307.934 173.838 308.708C173.131 309.07 172.657 309.505 172.346 310.019C172.033 310.534 171.796 311.274 171.796 312.384V329.701C171.796 330.811 172.033 331.546 172.344 332.055C172.653 332.562 173.123 332.992 173.829 333.351C175.337 334.116 177.653 334.429 180.662 334.429C183.67 334.429 185.986 334.116 187.494 333.351C188.2 332.992 188.671 332.562 188.98 332.055C189.29 331.546 189.527 330.811 189.527 329.701ZM180.662 305.395C174.541 305.395 169.58 306.642 169.58 312.384V329.701C169.58 335.443 174.541 336.646 180.662 336.646C186.782 336.646 191.743 335.443 191.743 329.701V312.384C191.743 306.642 186.782 305.395 180.662 305.395Z" fill="white"/>
<path d="M266.797 308.539C204.779 322.375 153.164 322.64 93.4664 308.539C-2.30959 285.918 -30.3365 195.285 54.0288 110.125C58.0598 106.056 59.6768 100.17 58.8035 94.509C54.8784 69.0661 61.0333 35.5446 85.7022 8.77325C90.1288 3.96942 97.3558 3.11965 102.866 6.62767C120.497 17.8519 132.388 31.6634 139.461 56.3975C140.745 60.8874 145.504 63.5171 150.002 62.2651C169.544 56.8269 187.167 57.5047 204.471 61.8905C209.604 63.1916 215.011 59.4318 216.457 54.3372C220.891 38.7068 234.225 18.3255 256.458 5.99581C262.4 2.70043 269.752 4.70052 273.904 10.0797C286.998 27.0469 300.507 49.6073 296.652 94.6168C296.177 100.17 298.482 105.637 302.746 109.226C379.791 174.094 367.807 286.005 266.797 308.539Z" fill="#FFC369"/>
<path d="M193.716 71.9763C193.674 66.624 197.979 62.2511 203.331 62.2092C208.683 62.1673 213.056 66.4721 213.098 71.8244L213.432 114.465C213.474 119.818 209.169 124.19 203.817 124.232C198.465 124.274 194.092 119.969 194.05 114.617L193.716 71.9763Z" fill="#C37807"/>
<path d="M168.768 67.6484C168.768 62.296 173.107 57.957 178.459 57.957C183.811 57.957 188.15 62.296 188.15 67.6484V114.618C188.15 119.97 183.811 125.457 178.459 125.457C173.107 125.457 168.768 119.97 168.768 114.618V67.6484Z" fill="#C37807"/>
<path d="M144.03 71.1095C144.181 65.7592 148.64 61.544 153.99 61.6946C159.341 61.8452 163.556 66.3046 163.405 71.6549L162.205 114.28C162.055 119.63 157.595 123.846 152.245 123.695C146.895 123.544 142.68 119.085 142.83 113.735L144.03 71.1095Z" fill="#C37807"/>
<path d="M19.4746 191.098C14.1222 191.098 9.7832 186.759 9.7832 181.406C9.7832 176.054 14.1222 171.715 19.4746 171.715L50.4871 171.715C55.8395 171.715 60.1785 176.054 60.1785 181.406C60.1785 186.759 55.8395 191.098 50.4871 191.098L19.4746 191.098Z" fill="#C37807"/>
<path d="M308.514 191.098C303.161 191.098 298.822 186.759 298.822 181.406C298.822 176.054 303.161 171.715 308.514 171.715L339.526 171.715C344.879 171.715 349.218 176.054 349.218 181.406C349.218 186.759 344.879 191.098 339.526 191.098L308.514 191.098Z" fill="#C37807"/>
<path d="M309.421 230.956C304.115 230.253 300.383 225.382 301.086 220.076C301.789 214.77 306.66 211.038 311.966 211.741L342.71 215.813C348.016 216.516 351.748 221.387 351.045 226.693C350.342 231.999 345.471 235.731 340.165 235.028L309.421 230.956Z" fill="#C37807"/>
<path d="M17.4373 234.898C12.2281 236.128 7.00819 232.902 5.77834 227.693C4.54848 222.484 7.77437 217.264 12.9836 216.034L43.1663 208.908C48.3755 207.678 53.5954 210.904 54.8252 216.113C56.0551 221.322 52.8292 226.542 47.62 227.772L17.4373 234.898Z" fill="#C37807"/>
<path fill-rule="evenodd" clip-rule="evenodd" d="M271.133 12.2281C267.878 8.00943 262.375 6.74015 258.205 9.08929C237.267 20.8849 225.716 40.3693 221.959 55.1702C221.027 58.8423 218.704 61.7067 215.976 63.481C213.318 65.2096 209.671 66.27 205.899 65.333C188.612 61.039 170.222 60.3812 150.945 65.6723C144.599 67.414 137.911 63.7197 136.094 57.3661C129.271 33.5064 117.941 20.3842 100.99 9.59273C96.8706 6.97033 91.5342 7.63881 88.2935 11.1557C64.4362 37.0463 58.4999 69.4555 62.2828 93.977C63.3064 100.612 61.432 107.654 56.5324 112.599C14.8748 154.649 1.55523 197.423 9.62305 231.989C17.6756 266.49 47.3227 294.034 94.2827 305.126C153.43 319.096 204.507 318.844 266.042 305.116C315.216 294.145 342.322 261.62 348.081 224.227C353.864 186.679 338.197 143.659 300.494 111.915C295.37 107.602 292.589 101.028 293.163 94.3204C295.055 72.2274 292.673 55.8281 288.317 42.9615C283.961 30.0928 277.565 20.5628 271.133 12.2281ZM276.982 7.71452C271.823 1.02963 262.407 -1.75713 254.579 2.65276C231.668 15.5596 218.989 36.8431 214.799 53.3528C213.937 56.7487 210.433 58.8471 207.68 58.1632C189.333 53.6059 169.645 52.8787 148.99 58.5481C146.505 59.2301 143.888 57.7516 143.197 55.3349C135.848 29.6357 123.339 15.063 104.957 3.36077C97.9064 -1.12793 88.593 -0.0712625 82.8607 6.14957C57.2963 33.8927 50.8994 68.642 54.9815 95.1033C55.6899 99.6952 54.3513 104.304 51.2841 107.4C8.51967 150.567 -6.40704 195.812 2.42877 233.668C11.2813 271.596 43.6682 300.762 92.5845 312.315C152.889 326.559 205.1 326.281 267.65 312.326C319.626 300.731 349.135 265.92 355.383 225.351C361.605 184.953 344.68 139.461 305.252 106.264C301.937 103.473 300.158 99.2287 300.524 94.9508C302.49 71.9914 300.042 54.5544 295.315 40.5925C290.589 26.6327 283.656 16.3622 276.982 7.71452Z" fill="#C37807"/>
<path fill-rule="evenodd" clip-rule="evenodd" d="M180.917 221.574C183.707 221.574 186.151 223.329 186.885 225.859C189.395 234.511 195.885 239.573 202.717 240.822C209.438 242.05 217.363 239.745 223.274 231.808C225.233 229.177 229.09 228.537 231.889 230.378C234.687 232.22 235.368 235.846 233.409 238.477C224.886 249.922 212.192 254.401 200.356 252.238C192.639 250.827 185.666 246.66 180.753 240.363C175.201 247.017 167.163 251.411 158.934 252.958C146.394 255.316 132.376 251.149 125.8 237.548C124.386 234.625 125.762 231.177 128.872 229.849C131.982 228.52 135.649 229.812 137.063 232.736C140.796 240.457 148.428 243.074 156.508 241.555C164.833 239.989 172.553 234.12 174.95 225.859C175.684 223.329 178.128 221.574 180.917 221.574Z" fill="#444444"/>
<path d="M127.112 179.465C127.112 190.17 120.17 198.848 111.606 198.848C103.042 198.848 96.0996 190.17 96.0996 179.465C96.0996 168.76 103.042 160.082 111.606 160.082C120.17 160.082 127.112 168.76 127.112 179.465Z" fill="#444444"/>
<path d="M260.526 179.465C260.526 190.17 253.584 198.848 245.02 198.848C236.456 198.848 229.514 190.17 229.514 179.465C229.514 168.76 236.456 160.082 245.02 160.082C253.584 160.082 260.526 168.76 260.526 179.465Z" fill="#444444"/>
<path d="M180.447 190.743C190.744 190.659 199.122 194.758 199.161 199.897C199.199 205.036 190.884 209.27 180.587 209.353C170.29 209.436 161.912 205.338 161.873 200.199C161.834 195.06 170.15 190.826 180.447 190.743Z" fill="#FF7A9A"/>
<path d="M124.508 66.3601C120.199 54.9276 110.401 39.8456 100.406 30.8193C95.7201 26.5879 88.9865 28.9731 86.7954 34.8941C82.5558 46.3508 76.8135 65.4305 77.5979 83.0848C77.7953 87.5262 81.0041 91.2559 85.4109 91.8435C97.1081 93.4031 112.249 90.7299 123.388 74.9678C125.163 72.4559 125.593 69.2382 124.508 66.3601Z" fill="#FFEFD7"/>
<path d="M234.054 66.3601C238.363 54.9276 248.162 39.8456 258.157 30.8193C262.842 26.5879 269.576 28.9731 271.767 34.8941C276.007 46.3508 281.749 65.4305 280.965 83.0848C280.767 87.5262 277.558 91.2559 273.152 91.8435C261.454 93.4031 246.313 90.7299 235.175 74.9678C233.399 72.4559 232.969 69.2382 234.054 66.3601Z" fill="#FFEFD7"/>
<defs>
<clipPath id="clip0_1420_3677">
<rect width="86.713" height="86.713" fill="white" transform="translate(137.244 320.559)"/>
</clipPath>
<clipPath id="clip1_1420_3677">
<rect width="50.967" height="50.967" fill="white" transform="translate(155.115 342.988)"/>
</clipPath>
</defs>
</svg>
