<svg width="357" height="407" viewBox="0 0 357 407" fill="none" xmlns="http://www.w3.org/2000/svg">
<path d="M64.9688 288.008H294.143L-nan -nanL294.143 288.008C293.279 303.26 285.764 317.455 271.938 323.952C252.935 332.881 221.438 343.565 179.51 343.565C137.58 343.565 106.081 332.88 87.0788 323.95C73.2618 317.457 65.7749 303.253 64.9688 288.008L-nan -nanL64.9688 288.008Z" fill="white"/>
<g clip-path="url(#clip0_1374_3520)">
<path fill-rule="evenodd" clip-rule="evenodd" d="M180.61 406.752C204.555 406.752 223.967 387.341 223.967 363.396C223.967 339.45 204.555 320.039 180.61 320.039C156.665 320.039 137.254 339.45 137.254 363.396C137.254 387.341 156.665 406.752 180.61 406.752Z" fill="white"/>
<path fill-rule="evenodd" clip-rule="evenodd" d="M180.61 399.364C200.475 399.364 216.579 383.261 216.579 363.396C216.579 343.531 200.475 327.427 180.61 327.427C160.745 327.427 144.642 343.531 144.642 363.396C144.642 383.261 160.745 399.364 180.61 399.364ZM223.967 363.396C223.967 387.341 204.555 406.752 180.61 406.752C156.665 406.752 137.254 387.341 137.254 363.396C137.254 339.45 156.665 320.039 180.61 320.039C204.555 320.039 223.967 339.45 223.967 363.396Z" fill="#EFA12B"/>
<g clip-path="url(#clip1_1374_3520)">
<path d="M167.416 343.277L155.938 356.619L180.589 392.598L205.232 356.615L193.824 343.277H167.416Z" fill="#0094D4"/>
<path fill-rule="evenodd" clip-rule="evenodd" d="M155.266 357.074C155.059 356.773 155.082 356.371 155.32 356.093L166.799 342.752C166.954 342.572 167.179 342.469 167.417 342.469H193.824C194.063 342.469 194.289 342.573 194.443 342.753L205.851 356.091C206.088 356.368 206.11 356.769 205.904 357.07L181.261 393.054C181.11 393.275 180.858 393.407 180.589 393.407C180.321 393.407 180.069 393.275 179.918 393.054L155.266 357.074ZM155.938 356.619L167.417 343.277H193.824L205.232 356.615L180.589 392.598L155.938 356.619Z" fill="#0094D4"/>
<path d="M180.618 343.277H167.412L170.582 356.619L180.618 343.277Z" fill="#04CEFE"/>
<path d="M155.935 356.621H170.586L167.415 343.279L155.935 356.621Z" fill="#6AD9FD"/>
<path d="M205.232 356.617L190.648 356.621L193.82 343.279L205.232 356.617Z" fill="#1ECFFF"/>
<path d="M190.654 356.621H170.58L180.617 343.279L190.654 356.621Z" fill="#ACEAFF"/>
<path d="M180.616 343.277H193.822L190.653 356.619L180.616 343.277Z" fill="#00BEFC"/>
<path d="M170.581 356.613L180.585 392.596L155.938 356.617L170.581 356.613Z" fill="#00AAF4"/>
<path d="M190.597 356.613L180.587 392.6L205.234 356.613H190.597Z" fill="#008BD8"/>
<path d="M190.648 356.617H170.578L180.587 392.6L190.648 356.617Z" fill="#3BD1FF"/>
</g>
</g>
<path d="M169.59 311.865C169.59 306.122 174.551 304.875 180.671 304.875C186.791 304.875 191.753 306.122 191.753 311.865V329.181C191.753 334.924 186.791 336.126 180.671 336.126C174.551 336.126 169.59 334.924 169.59 329.181V311.865Z" fill="#EFA12B"/>
<path fill-rule="evenodd" clip-rule="evenodd" d="M189.536 329.181V311.865C189.536 310.755 189.3 310.015 188.987 309.499C188.676 308.986 188.201 308.551 187.495 308.188C185.988 307.414 183.673 307.091 180.671 307.091C177.67 307.091 175.355 307.414 173.848 308.188C173.141 308.551 172.667 308.986 172.356 309.499C172.043 310.015 171.806 310.755 171.806 311.865V329.181C171.806 330.292 172.043 331.027 172.353 331.536C172.662 332.043 173.133 332.473 173.839 332.831C175.347 333.597 177.663 333.91 180.671 333.91C183.68 333.91 185.996 333.597 187.504 332.831C188.209 332.473 188.68 332.043 188.989 331.536C189.3 331.027 189.536 330.292 189.536 329.181ZM180.671 304.875C174.551 304.875 169.59 306.122 169.59 311.865V329.181C169.59 334.924 174.551 336.126 180.671 336.126C186.791 336.126 191.753 334.924 191.753 329.181V311.865C191.753 306.122 186.791 304.875 180.671 304.875Z" fill="white"/>
<path d="M266.807 308.02C204.789 321.856 153.173 322.12 93.4761 308.02C-2.29983 285.398 -30.3268 194.765 54.0386 109.606C58.0696 105.537 59.6866 99.6502 58.8133 93.9895C54.8882 68.5466 61.0431 35.025 85.712 8.25372C90.1386 3.44989 97.3655 2.60012 102.876 6.10814C120.507 17.3324 132.398 31.1439 139.471 55.878C140.755 60.3678 145.513 62.9976 150.012 61.7456C169.553 56.3074 187.177 56.9852 204.481 61.371C209.614 62.6721 215.021 58.9123 216.466 53.8176C220.901 38.1873 234.235 17.806 256.468 5.47628C262.41 2.1809 269.762 4.18098 273.913 9.56017C287.008 26.5274 300.517 49.0877 296.662 94.0973C296.187 99.6505 298.492 105.117 302.756 108.707C379.801 173.575 367.817 285.485 266.807 308.02Z" fill="#FFC369"/>
<path d="M193.725 71.4567C193.683 66.1045 197.988 61.7316 203.341 61.6897C208.693 61.6477 213.066 65.9526 213.108 71.3049L213.442 113.946C213.484 119.298 209.179 123.671 203.827 123.713C198.474 123.755 194.101 119.45 194.059 114.098L193.725 71.4567Z" fill="#C37807"/>
<path d="M168.777 67.1289C168.777 61.7765 173.116 57.4375 178.469 57.4375C183.821 57.4375 188.16 61.7765 188.16 67.1289V114.098C188.16 119.451 183.821 124.937 178.469 124.937C173.116 124.937 168.777 119.451 168.777 114.098V67.1289Z" fill="#C37807"/>
<path d="M144.04 70.59C144.19 65.2397 148.65 61.0245 154 61.1751C159.35 61.3257 163.566 65.785 163.415 71.1353L162.215 113.761C162.065 119.111 157.605 123.326 152.255 123.176C146.905 123.025 142.689 118.566 142.84 113.215L144.04 70.59Z" fill="#C37807"/>
<path d="M19.4844 190.578C14.132 190.578 9.79297 186.239 9.79297 180.887C9.79297 175.534 14.132 171.195 19.4844 171.195L50.4969 171.195C55.8493 171.195 60.1883 175.534 60.1883 180.887C60.1883 186.239 55.8493 190.578 50.4969 190.578L19.4844 190.578Z" fill="#C37807"/>
<path d="M308.523 190.578C303.171 190.578 298.832 186.239 298.832 180.887C298.832 175.534 303.171 171.195 308.523 171.195L339.536 171.195C344.888 171.195 349.227 175.534 349.227 180.887C349.227 186.239 344.888 190.578 339.536 190.578L308.523 190.578Z" fill="#C37807"/>
<path d="M309.431 230.437C304.125 229.734 300.393 224.863 301.096 219.557C301.798 214.25 306.67 210.519 311.976 211.222L342.72 215.293C348.026 215.996 351.757 220.867 351.055 226.173C350.352 231.479 345.481 235.211 340.175 234.508L309.431 230.437Z" fill="#C37807"/>
<path d="M17.4471 234.379C12.2378 235.608 7.01796 232.382 5.7881 227.173C4.55824 221.964 7.78414 216.744 12.9933 215.514L43.176 208.388C48.3852 207.159 53.6051 210.384 54.835 215.594C56.0648 220.803 52.839 226.023 47.6298 227.253L17.4471 234.379Z" fill="#C37807"/>
<path fill-rule="evenodd" clip-rule="evenodd" d="M271.143 11.7085C267.887 7.4899 262.385 6.22062 258.215 8.56976C237.277 20.3654 225.726 39.8497 221.969 54.6507C221.037 58.3228 218.714 61.1871 215.986 62.9614C213.328 64.69 209.681 65.7505 205.909 64.8135C188.622 60.5194 170.232 59.8617 150.955 65.1528C144.609 66.8945 137.921 63.2002 136.104 56.8465C129.281 32.9868 117.951 19.8646 101 9.0732C96.8804 6.4508 91.544 7.11928 88.3033 10.6362C64.4459 36.5268 58.5097 68.936 62.2926 93.4574C63.3162 100.093 61.4418 107.134 56.5421 112.08C14.8846 154.13 1.565 196.903 9.63282 231.47C17.6853 265.97 47.3325 293.514 94.2924 304.606C153.439 318.576 204.516 318.324 266.052 304.596C315.226 293.626 342.332 261.101 348.091 223.707C353.874 186.159 338.206 143.14 300.503 111.396C295.38 107.082 292.599 100.508 293.173 93.8009C295.065 71.7079 292.683 55.3086 288.327 42.442C283.97 29.5733 277.575 20.0433 271.143 11.7085ZM276.992 7.19499C271.833 0.510103 262.417 -2.27666 254.589 2.13323C231.678 15.0401 218.999 36.3235 214.808 52.8333C213.946 56.2292 210.443 58.3275 207.69 57.6437C189.343 53.0864 169.655 52.3592 149 58.0286C146.515 58.7106 143.898 57.232 143.207 54.8154C135.858 29.1161 123.349 14.5435 104.967 2.84124C97.9161 -1.64746 88.6027 -0.590794 82.8705 5.63004C57.3061 33.3731 50.9091 68.1225 54.9913 94.5838C55.6997 99.1757 54.361 103.784 51.2939 106.881C8.52944 150.048 -6.39728 195.292 2.43854 233.149C11.2911 271.077 43.678 300.242 92.5942 311.796C152.899 326.04 205.11 325.761 267.66 311.807C319.635 300.211 349.144 265.4 355.392 224.832C361.614 184.433 344.69 138.941 305.262 105.744C301.946 102.953 300.167 98.7091 300.534 94.4313C302.5 71.4718 300.051 54.0348 295.325 40.073C290.599 26.1132 283.665 15.8427 276.992 7.19499Z" fill="#C37807"/>
<path fill-rule="evenodd" clip-rule="evenodd" d="M180.927 221.055C183.717 221.055 186.161 222.81 186.895 225.34C189.405 233.992 195.894 239.053 202.727 240.302C209.448 241.531 217.373 239.226 223.284 231.288C225.243 228.657 229.1 228.017 231.898 229.859C234.697 231.701 235.378 235.326 233.419 237.957C224.896 249.402 212.202 253.881 200.366 251.718C192.648 250.307 185.676 246.14 180.763 239.843C175.21 246.497 167.172 250.892 158.944 252.439C146.404 254.796 132.386 250.629 125.81 237.029C124.396 234.105 125.771 230.658 128.881 229.329C131.992 228 135.659 229.293 137.072 232.216C140.806 239.937 148.438 242.554 156.517 241.035C164.843 239.47 172.563 233.6 174.959 225.34C175.693 222.81 178.138 221.055 180.927 221.055Z" fill="#444444"/>
<path d="M127.122 178.945C127.122 189.65 120.179 198.328 111.616 198.328C103.052 198.328 96.1094 189.65 96.1094 178.945C96.1094 168.24 103.052 159.562 111.616 159.562C120.179 159.562 127.122 168.24 127.122 178.945Z" fill="#444444"/>
<path d="M260.536 178.945C260.536 189.65 253.594 198.328 245.03 198.328C236.466 198.328 229.523 189.65 229.523 178.945C229.523 168.24 236.466 159.562 245.03 159.562C253.594 159.562 260.536 168.24 260.536 178.945Z" fill="#444444"/>
<path d="M180.457 190.223C190.753 190.14 199.132 194.238 199.171 199.378C199.209 204.517 190.894 208.75 180.597 208.834C170.3 208.917 161.922 204.818 161.883 199.679C161.844 194.54 170.16 190.306 180.457 190.223Z" fill="#FF7A9A"/>
<path d="M124.518 65.8405C120.209 54.4081 110.411 39.326 100.416 30.2998C95.7299 26.0684 88.9963 28.4536 86.8052 34.3746C82.5656 45.8312 76.8233 64.9109 77.6077 82.5652C77.8051 87.0066 81.0139 90.7364 85.4206 91.3239C97.1179 92.8836 112.259 90.2103 123.398 74.4482C125.173 71.9364 125.603 68.7186 124.518 65.8405Z" fill="#FFEFD7"/>
<path d="M234.064 65.8405C238.373 54.4081 248.171 39.326 258.167 30.2998C262.852 26.0684 269.586 28.4536 271.777 34.3746C276.016 45.8312 281.759 64.9109 280.974 82.5652C280.777 87.0066 277.568 90.7364 273.161 91.3239C261.464 92.8836 246.323 90.2103 235.184 74.4482C233.409 71.9364 232.979 68.7186 234.064 65.8405Z" fill="#FFEFD7"/>
<defs>
<clipPath id="clip0_1374_3520">
<rect width="86.713" height="86.713" fill="white" transform="translate(137.254 320.039)"/>
</clipPath>
<clipPath id="clip1_1374_3520">
<rect width="50.967" height="50.967" fill="white" transform="translate(155.125 342.469)"/>
</clipPath>
</defs>
</svg>
