<svg width="121" height="103" viewBox="0 0 121 103" fill="none" xmlns="http://www.w3.org/2000/svg">
<g clip-path="url(#clip0_1031_2044)">
<path d="M3.63768 38.2279C5.15969 40.2942 7.39786 42.7362 8.4891 47.808C20.1896 102.189 75.2674 108.67 95.2438 95.7086C115.22 82.7473 126.635 50.0219 115.22 26.6754C103.234 2.16162 84.6849 1.26178 81.5457 2.16163C74.4113 3.85222 75.5528 12.3053 82.6872 13.4323C96.9561 17.3771 106.518 33.1561 103.379 41.0456C100.574 38.9714 98.4078 37.8322 96.9561 36.2555C96.9561 36.2555 92.39 31.4655 90.107 27.239C87.9546 23.2543 83.9904 17.8693 81.1772 19.913C79.8334 15.9682 73.5551 14.8411 72.4136 21.6036C71.5004 27.0136 71.8429 30.902 73.5551 38.2279C72.1282 41.3274 71.177 42.0787 71.2721 44.9903C69.8452 44.145 67.5622 44.145 65.5646 44.9903C64.1377 40.7638 61.5693 30.0567 61.5693 24.703C61.5693 17.9289 56.1471 13.4323 52.4372 21.4345C50.2436 21.2531 47.4783 23.354 45.3028 28.3661C43.8931 26.8924 42.8449 25.2997 41.647 23.8577C40.9693 23.0419 40.2436 22.2742 39.3775 21.6036C36.506 19.3803 32.0905 18.2237 22.758 19.913C8.48909 11.1782 9.174 22.3926 14.1966 26.6754L10.7721 30.902C6.49145 28.3661 -3.49676 24.703 3.63768 38.2279Z" fill="white"/>
<path d="M30.464 72.8843C29.0942 75.702 30.4069 77.7307 23.3295 79.0832C24.7564 83.2158 30.5781 92.0446 42.4498 94.2987C44.3523 90.1661 47.0159 80.323 42.4498 74.0114C39.3922 69.7849 33.2036 67.249 30.464 72.8843Z" fill="#92836E"/>
<path d="M51.0111 82.7462C50.155 79.0832 51.0111 76.185 55.8625 73.4479C57.8602 72.3208 60.1432 72.4335 60.1432 76.2656C60.4286 77.9562 62.1408 81.3374 66.7069 81.3374C70.9875 81.9009 71.0446 86.9164 66.7069 88.9451C62.3692 90.9738 53.9791 87.9307 51.0111 82.7462Z" fill="#F1C184"/>
<path d="M98.9545 75.4202C95.2446 71.7573 80.9758 67.8125 75.839 79.0832C74.317 84.7186 74.0696 96.7783 85.2564 99.9341C89.2517 98.807 98.3267 95.0313 102.664 88.9451C102.664 85.6578 101.922 78.3506 98.9545 75.4202Z" fill="#BAAA96"/>
<path d="M91.2493 29.4921C89.2517 32.028 84.2861 36.4236 80.405 33.7186C80.212 33.2183 80.0183 32.6474 79.8395 32.028C78.0089 33.8313 74.3169 32.7794 72.6998 32.028C71.1017 22.1098 73.5559 17.9396 74.9828 17.0943C80.0055 17.0943 81.1991 19.5363 81.1681 20.7573C81.7291 20.2714 82.4189 19.8853 83.2588 19.6302C85.2564 20.5694 89.6512 23.8567 91.2493 29.4921Z" fill="#92836E"/>
<path d="M53.0088 20.7573C58.7163 11.1772 62.7116 22.4479 61.8555 30.3374H56.1479C55.8625 30.9009 55.463 32.7042 56.1479 35.4092C53.4844 36.3484 47.4154 37.3252 44.4475 33.7186C45.7792 29.9617 45.3036 22.7296 53.0088 20.7573Z" fill="#92836E"/>
<path d="M15.9097 28.0832C25.8979 27.2379 30.464 23.0114 30.464 19.0666L27.8956 19.3484L25.0418 19.6302H21.9026L20.4758 18.7849L17.9074 17.6578L15.339 16.8125H13.0559L11.6291 17.6578L11.0583 19.6302L11.6291 22.7296L13.0559 25.2655L14.1975 26.9561L12.7706 28.9285L11.0583 30.9009L9.63141 30.3374L7.34839 29.4921L4.78 28.6468H2.49698L1.35547 29.4921V32.028L2.49698 35.4092L4.20924 39.3539L7.91915 44.9893C8.20453 46.586 8.94651 50.6247 9.63141 54.0059C18.7635 49.4976 18.4781 32.028 15.9097 28.0832Z" fill="#BAAA96"/>
<path d="M91.7037 63.4782C90.8476 59.8153 98.3838 54.9004 102.664 55.464C106.945 56.0275 110.233 64.7341 105.895 66.7629C101.558 68.7916 94.6716 68.6628 91.7037 63.4782Z" fill="#F1C184"/>
<path fill-rule="evenodd" clip-rule="evenodd" d="M95.571 3.87563C102.34 7.16944 110.152 13.7127 116.249 26.1836C122.111 38.1717 122.082 52.493 118.097 65.413C114.112 78.3287 106.128 89.9942 95.8716 96.6487C85.4939 103.382 66.3223 104.951 48.3506 98.0606C30.2838 91.1334 13.3082 75.6242 7.37339 48.0404C6.46751 43.8301 4.75831 41.583 3.3045 39.6716C3.10223 39.4057 2.90491 39.1463 2.71538 38.889L2.6654 38.8211L2.62614 38.7467C0.826492 35.3351 6.12354e-07 32.8242 0 31.019C-2.72157e-07 30.0896 0.21924 29.2616 0.726753 28.6093C1.23996 27.9497 1.94968 27.5958 2.6834 27.4388C4.07606 27.1409 5.75618 27.5058 7.22315 28.0082C8.37388 28.4023 9.51522 28.9246 10.4903 29.4449L12.659 26.7683C11.6242 25.662 10.8229 24.3133 10.3345 22.9601C9.73877 21.3096 9.54211 19.4561 10.1962 17.9633C10.5345 17.1911 11.0977 16.53 11.9088 16.0934C12.7089 15.6628 13.6737 15.4911 14.7633 15.5555C16.8343 15.6777 19.5399 16.6623 22.9848 18.7258C30.4936 17.4153 35.0189 17.9218 38.1695 19.5072C38.2591 14.2903 40.322 11.7707 42.1142 11.2262C42.7167 11.0431 43.3555 11.377 43.5409 11.972C43.7263 12.5669 43.3881 13.1976 42.7856 13.3807C42.3497 13.5131 40.1357 15.0663 40.484 21.0391C40.7712 21.2811 41.0427 21.5316 41.3014 21.7879C43.0359 18.3597 45.5706 16.7218 46.9656 16.298C47.5682 16.115 48.2069 16.4489 48.3923 17.0438C48.5777 17.6387 48.2396 18.2694 47.637 18.4525C46.8141 18.7025 44.4227 20.1091 42.9482 23.6559C43.2595 24.0477 43.564 24.4467 43.8629 24.8384C44.0114 25.0332 44.1586 25.2261 44.3046 25.4155C44.5398 25.7204 44.7756 26.0213 45.017 26.3174C45.9406 24.548 46.959 23.1732 48.0216 22.1856C49.1776 21.1111 50.4424 20.4477 51.7157 20.3182C52.6237 18.5586 53.6772 17.325 54.8516 16.6433C56.2282 15.8442 57.679 15.8626 58.938 16.5343C60.1381 17.1745 61.0756 18.3545 61.7069 19.7469C62.345 21.1545 62.7117 22.8647 62.7117 24.7012C62.7117 27.2532 63.3314 31.1709 64.1501 35.0369C64.8368 38.2796 65.6466 41.4086 66.3003 43.5448C67.6004 43.1934 68.9744 43.1236 70.1962 43.3868C70.2967 42.5887 70.501 41.9158 70.7932 41.2369C71.0069 40.7405 71.2662 40.2444 71.537 39.7262L71.5695 39.6641C71.8117 39.2006 72.0739 38.697 72.3562 38.103C70.7011 30.9374 70.3576 26.9312 71.2885 21.4165C71.6019 19.5601 72.2872 18.1322 73.2572 17.1451C74.236 16.149 75.4496 15.661 76.6772 15.615C78.6885 15.5397 80.6603 16.6452 81.7362 18.4273C82.4384 18.2601 83.1568 18.3328 83.8382 18.5708C84.8706 18.9313 85.8398 19.6705 86.6973 20.5159C88.4239 22.218 90.0155 24.671 91.1151 26.7067C92.2038 28.7222 93.8602 30.909 95.2728 32.6176C95.9741 33.4659 96.6055 34.1845 97.061 34.6904C97.2886 34.9433 97.4719 35.1425 97.5976 35.2779C97.6605 35.3456 97.7089 35.3972 97.7412 35.4315L97.7774 35.4699L97.788 35.481L97.795 35.4883L97.8016 35.4956C98.425 36.1726 99.223 36.7827 100.261 37.5013C100.574 37.718 100.912 37.9462 101.27 38.1881C101.722 38.4938 102.207 38.8216 102.716 39.1758C102.953 37.7497 102.842 36.0723 102.371 34.2315C101.732 31.7323 100.449 29.0183 98.6217 26.3969C94.9706 21.1603 89.2424 16.4315 82.4407 14.5326C78.4586 13.8774 75.9797 11.135 75.6324 8.13445C75.2763 5.0582 77.1965 2.0418 81.2557 1.06968C82.2733 0.786232 84.1946 0.699968 86.6117 1.04793C89.0922 1.405 92.1951 2.23281 95.571 3.87563ZM104.722 40.6367C105.323 38.5485 105.214 36.1395 104.584 33.6796C103.868 30.8781 102.456 27.9214 100.502 25.1188C96.6007 19.5228 90.4365 14.4022 82.9959 12.3452L82.933 12.3278L82.8684 12.3176C79.7552 11.8258 78.1221 9.79203 77.9006 7.8785C77.6867 6.02998 78.7545 3.9805 81.813 3.25576L81.8391 3.24957L81.8649 3.24218C82.4242 3.08186 83.9859 2.9479 86.2824 3.27849C88.5374 3.60311 91.4096 4.36365 94.5617 5.89754C100.849 8.95714 108.305 15.1207 114.193 27.1636C119.747 38.5221 119.775 52.2367 115.913 64.7562C112.049 77.2802 104.338 88.458 94.6178 94.7649C85.0191 100.993 66.6636 102.664 49.1771 95.9593C31.7858 89.2912 15.3722 74.3694 9.60657 47.572C8.59201 42.8565 6.60437 40.25 5.12549 38.3106C4.9458 38.075 4.77362 37.8492 4.61161 37.6307C2.87449 34.3233 2.28302 32.2424 2.28302 31.019C2.28302 30.4295 2.4205 30.1326 2.53725 29.9825C2.64831 29.8398 2.83039 29.7138 3.16683 29.6418C3.91451 29.4819 5.08816 29.6629 6.47496 30.1379C7.81419 30.5965 9.16967 31.2647 10.1857 31.8666C10.6756 32.1568 11.3074 32.0447 11.6644 31.6042L15.0889 27.3777C15.4723 26.9045 15.4081 26.2167 14.9436 25.8206C13.8527 24.8903 12.9734 23.5566 12.485 22.2035C11.9856 20.8197 11.9611 19.6125 12.2915 18.8582C12.4455 18.5068 12.676 18.2478 13.0015 18.0726C13.3381 17.8915 13.8527 17.7599 14.627 17.8056C16.2091 17.899 18.6474 18.7204 22.1573 20.8691C22.3982 21.0165 22.686 21.0702 22.9647 21.0198C32.169 19.3536 36.1819 20.5592 38.674 22.4887C39.4509 23.0902 40.1172 23.7905 40.7653 24.5707C41.1913 25.0835 41.5925 25.6093 42.015 26.163C42.1691 26.365 42.3261 26.5707 42.4881 26.7809C42.9968 27.4407 43.541 28.1243 44.1549 28.7967C44.0612 31.6089 43.0742 34.6934 41.8011 37.4892C40.4689 40.415 38.8704 42.9233 37.8232 44.3169C37.4476 44.8168 37.5535 45.5228 38.0598 45.8937C38.5661 46.2646 39.2811 46.16 39.6567 45.6601C40.7974 44.1421 42.4808 41.494 43.8834 38.4135C45.247 35.4189 46.3904 31.918 46.4433 28.6025C47.448 26.3438 48.5473 24.7927 49.5864 23.8269C50.662 22.8272 51.5959 22.5184 52.275 22.5514C52.9179 22.5826 53.5604 22.9306 54.0851 23.767C54.623 24.6243 55.0065 25.9672 55.0065 27.8007V27.819L55.8632 53.7601C55.8838 54.3822 56.4112 54.8701 57.0413 54.8498C57.6714 54.8295 58.1656 54.3087 58.145 53.6866L57.2895 27.7819C57.2869 25.6788 56.8501 23.8937 56.026 22.58C55.52 21.7735 54.8592 21.1381 54.0785 20.7442C54.7595 19.586 55.4317 18.9213 56.0086 18.5865C56.6921 18.1897 57.2924 18.2185 57.8527 18.5174C58.4719 18.8478 59.1218 19.562 59.6231 20.6678C60.1175 21.7585 60.4287 23.1507 60.4287 24.7012C60.4287 27.5029 61.0932 31.6155 61.9154 35.4982C62.7413 39.3984 63.7506 43.177 64.4825 45.3449C64.5835 45.6439 64.8066 45.8876 65.0978 46.0167C65.389 46.1458 65.7217 46.1486 66.0151 46.0245C67.7893 45.2737 69.6658 45.3508 70.6857 45.955C71.044 46.1672 71.4911 46.1692 71.8514 45.9602C72.2116 45.7512 72.4274 45.3645 72.4139 44.9522C72.3715 43.6546 72.557 42.9022 72.8943 42.1186C73.0741 41.7009 73.2985 41.2714 73.5873 40.7188L73.5984 40.6976C73.8876 40.1442 74.2258 39.4948 74.5952 38.6925C74.699 38.467 74.7247 38.214 74.6683 37.9727C72.9741 30.7241 72.6611 26.9964 73.5405 21.7871C73.7979 20.2622 74.3254 19.2951 74.8957 18.7148C75.457 18.1436 76.111 17.892 76.7637 17.8675C77.9064 17.8247 79.1255 18.4844 79.7889 19.6037C77.7472 21.586 76.8031 25.0095 77.8819 28.6785C79.7754 35.1178 79.2923 39.475 78.847 40.9678C78.2545 41.5629 77.9042 42.4344 77.6748 43.2431C77.3907 44.2443 77.2167 45.4349 77.1197 46.639C76.9259 49.0443 77.0261 51.6818 77.2788 53.3286C77.3732 53.9441 77.9551 54.3674 78.5784 54.2741C79.2018 54.1809 79.6305 53.6064 79.5361 52.9909C79.3131 51.5383 79.2136 49.0759 79.3955 46.8178C79.4864 45.6903 79.6441 44.6585 79.8732 43.8511C80.1203 42.9801 80.3862 42.6074 80.5192 42.509L80.786 42.3114L80.9031 42.003C81.5867 40.2034 82.1734 35.1884 80.0744 28.05C79.0946 24.7176 80.2369 21.9941 81.8545 20.819C82.1998 20.5682 82.5652 20.5172 83.0768 20.6959C83.6462 20.8947 84.3301 21.3676 85.0843 22.1111C86.5812 23.5868 88.0479 25.8186 89.1007 27.7675C90.295 29.9786 92.0632 32.3001 93.5043 34.0431C94.2299 34.9207 94.8827 35.6637 95.3547 36.188C95.5908 36.4503 95.7821 36.6583 95.915 36.8014C95.9446 36.8332 95.9713 36.8619 95.995 36.8872C96.0245 36.9188 96.0492 36.9452 96.069 36.9662L96.1102 37.0098L96.1187 37.0188C96.921 37.8884 97.8928 38.6148 98.9509 39.3471C99.3005 39.5891 99.6578 39.8307 100.027 40.0799C100.806 40.6068 101.637 41.1684 102.555 41.8426C105.213 43.7935 108.487 46.6083 112.314 51.587C112.695 52.0828 113.411 52.1797 113.914 51.8034C114.416 51.4271 114.514 50.7201 114.133 50.2243C110.534 45.5419 107.376 42.6705 104.722 40.6367ZM15.543 45.3915C17.3232 43.7154 19.7743 42.3234 22.8084 42.4537C23.4383 42.4807 23.9267 43.0068 23.8993 43.6286C23.8719 44.2505 23.3391 44.7327 22.7093 44.7057C20.4925 44.6105 18.6153 45.6136 17.1185 47.0228C15.6142 48.4391 14.5854 50.1864 14.1132 51.3309C13.8753 51.9073 13.2092 52.1843 12.6253 51.9494C12.0415 51.7146 11.761 51.0569 11.9989 50.4804C12.573 49.0889 13.7701 47.0606 15.543 45.3915ZM27.2371 45.6821C27.4796 46.2567 27.2044 46.9165 26.6224 47.156C21.5565 49.2401 19.4333 53.5886 19.0206 55.3819C18.8808 55.9889 18.2692 56.3692 17.6544 56.2312C17.0397 56.0933 16.6546 55.4894 16.7943 54.8824C17.3328 52.5431 19.8518 47.4994 25.7443 45.0752C26.3263 44.8358 26.9946 45.1075 27.2371 45.6821Z" fill="#444444"/>
<path d="M24.0456 38.3302C23.6172 39.334 22.0694 39.6483 20.5886 39.0321C19.1078 38.4159 18.2547 37.1026 18.6832 36.0988C19.1116 35.095 20.6594 34.7808 22.1402 35.397C23.621 36.0131 24.4741 37.3264 24.0456 38.3302Z" fill="#585858"/>
<path d="M32.6081 28.1857C32.1797 29.1895 30.6319 29.5037 29.1511 28.8875C27.6703 28.2713 26.8172 26.9581 27.2457 25.9543C27.6741 24.9505 29.2219 24.6362 30.7027 25.2524C32.1835 25.8686 33.0366 27.1819 32.6081 28.1857Z" fill="#585858"/>
<path d="M28.3155 36.9626C27.296 36.5465 26.9671 35.0205 27.581 33.5542C28.1949 32.0879 29.5191 31.2366 30.5386 31.6528C31.5582 32.0689 31.8871 33.5949 31.2732 35.0612C30.6593 36.5275 29.3351 37.3788 28.3155 36.9626Z" fill="#C85555"/>
</g>
<defs>
<clipPath id="clip0_1031_2044">
<rect width="121" height="102" fill="white" transform="translate(0 0.820312)"/>
</clipPath>
</defs>
</svg>
