<svg width="180" height="172" viewBox="0 0 180 172" fill="none" xmlns="http://www.w3.org/2000/svg">
<g clip-path="url(#clip0_1237_5209)">
<path d="M20.7742 126.294C26.9331 136.974 40.3162 149.98 59.8891 131.498C84.4099 150.903 108.006 126.069 112.985 121.788C116.376 118.872 118.263 116.313 118.905 114.285C125.175 110.067 136.727 100.96 141.765 92.9105C154.206 86.7573 161.37 73.9868 161.02 69.743C172.572 60.6365 168.112 54.9693 156.308 58.5077C156.113 57.1611 153.547 53.858 152.256 53.3156C169.341 44.4093 153.143 41.3978 146.399 45.5442C139.093 42.3233 133.73 42.0806 129.712 43.8826C128.545 44.4058 127.492 45.1014 126.538 45.9465C124.206 48.0121 122.464 50.971 121.1 54.4896C120.587 55.8118 120.204 52.3681 119.867 50.1784C119.419 47.2588 117.237 40.7889 113.047 37.4506C110.188 34.1251 102.145 34.8431 104.643 43.0241C105.582 46.0998 108.341 55.9575 104.31 59.4232C101.419 61.4961 94.5826 64.8956 87.2841 64.5607C85.5577 61.9135 79.9196 59.353 75.0909 61.4108C75.3371 60.1462 75.5816 56.4188 75.5836 54.7899C75.5949 45.6906 67.1109 46.375 64.9986 56.8676C64.1802 59.9125 58.8158 68.3813 48.2523 79.1169C46.0516 81.3534 43.2549 89.6113 46.3258 96.0602C45.1475 99.9655 44.7677 111.034 49.5382 118.501C50.6436 120.231 49.5926 126.717 39.5475 127.504C27.2229 126.12 27.6941 110.841 32.9358 103.029C37.4545 96.2941 30.6604 88.8722 23.2849 98.5193C20.5126 102.969 14.8165 110.924 20.7742 126.294Z" fill="#7A7A7A"/>
<path d="M19.3709 121.303C21.9422 122.535 27.6592 123.844 29.9558 119.226C27.5962 112.165 32.1172 103.898 33.7134 101.534C35.7086 98.5789 33.2433 89.9566 24.471 97.4995C21.942 99.6741 17.3814 107.479 19.3709 121.303Z" fill="white"/>
<path d="M73.2676 65.0444C70.6791 66.0307 65.0236 66.6793 63.1097 61.384C65.4382 55.9388 68.3627 44.4725 74.5886 50.2743C75.3533 52.9221 76.1595 59.5831 73.2676 65.0444Z" fill="white"/>
<path d="M79.9821 76.2105C71.9005 79.441 54.888 88.3676 51.4911 98.2294C48.5037 103.388 46.6866 118.061 63.3404 126.878C71.7986 129.521 82.1619 125.65 92.13 115.757C98.6543 109.596 109.832 95.5784 111.47 85.4936C112.016 82.1319 111.988 75.5452 107.469 73.6467C102.95 71.7483 94.3493 70.4674 79.9821 76.2105Z" fill="white"/>
<path d="M107.598 125.594C101.96 123.832 98.8558 117.824 103.663 112.864C107.064 110.904 114.9 107.995 119.037 112.039C116.946 117.281 112.037 122.603 107.598 125.594Z" fill="white"/>
<path d="M139.523 78.312C136.972 80.7808 130.829 84.7956 126.665 81.1042C125.784 77.0418 123.712 67.1177 127.578 65.859C131.517 66.6036 137.772 73.2067 139.523 78.312Z" fill="white"/>
<path d="M106.872 51.8498C109.579 53.2401 115.401 52.9445 119.215 47.0208C115.67 40.9796 111.571 30.4569 104.498 39.0173C104.268 42.1072 107.246 49.2148 106.872 51.8498Z" fill="white"/>
<path d="M138.888 68.9416C136.412 69.4186 125.225 61.6844 129.519 54.6875C134.359 49.2861 142.04 53.4234 144.057 59.1262C146.008 64.6424 141.365 68.4647 138.888 68.9416Z" fill="white"/>
<path fill-rule="evenodd" clip-rule="evenodd" d="M71.2695 49.7222C69.6768 49.9529 67.2442 52.0612 66.2262 57.1181L66.2183 57.1573L66.2079 57.1959C65.7347 58.9566 64.0663 61.9944 61.2966 65.8423C58.4911 69.7399 54.4667 74.5895 49.1457 79.9972C48.2918 80.865 47.1112 83.211 46.543 86.243C45.9836 89.2276 46.0703 92.6145 47.4561 95.5247C47.5901 95.8061 47.6146 96.1272 47.5246 96.4252C46.9946 98.1818 46.6035 101.757 46.9489 105.843C47.2933 109.917 48.3567 114.329 50.593 117.829C51.0786 118.589 51.2195 119.642 51.1 120.674C50.9756 121.748 50.5567 122.946 49.7444 124.085C48.0977 126.395 44.9392 128.339 39.648 128.754L39.5291 128.763L39.4106 128.75C36.0562 128.373 33.4871 127.034 31.6574 125.042C29.8428 123.067 28.8294 120.533 28.4176 117.867C27.5999 112.573 29.1088 106.486 31.8964 102.331C33.9145 99.3231 33.171 96.6128 31.8373 95.6451C31.1809 95.1689 30.2182 94.9526 28.9519 95.3914C27.6634 95.8378 26.0538 96.9755 24.3158 99.2358C24.2088 99.4072 24.0985 99.5824 23.9857 99.7617C22.6161 101.938 20.8665 104.719 19.9762 108.595C19.016 112.775 19.0433 118.323 21.9069 125.754C24.9333 130.976 29.6059 136.532 35.71 138.65C41.6996 140.728 49.4668 139.618 59.0293 130.588L59.8156 129.845L60.665 130.518C72.4634 139.855 83.9668 138.566 93.25 134.385C101.225 130.793 107.453 125.117 110.725 122.135C111.3 121.611 111.783 121.171 112.169 120.839C114.362 118.953 115.857 117.264 116.772 115.828C117.699 114.374 117.961 113.291 117.897 112.574C117.841 111.945 117.526 111.458 116.823 111.099C116.059 110.709 114.836 110.484 113.118 110.611C112.804 110.635 112.323 110.764 111.573 111.032C111.163 111.179 110.744 111.34 110.275 111.52C109.874 111.674 109.438 111.841 108.942 112.025C106.874 112.791 104.216 113.664 100.949 114.108C100.264 114.201 99.6322 113.721 99.5379 113.036C99.4436 112.351 99.9224 111.72 100.607 111.627C103.617 111.218 106.082 110.413 108.068 109.677C108.492 109.52 108.918 109.356 109.327 109.2C109.834 109.005 110.314 108.821 110.725 108.674C111.478 108.405 112.242 108.165 112.927 108.114C114.892 107.968 116.631 108.191 117.958 108.869C119.175 109.49 120.02 110.489 120.304 111.789C123.136 109.767 126.6 107.08 129.967 104.098C134.149 100.393 138.111 96.2941 140.549 92.4896C141.187 85.8636 139.499 80.3108 137.241 76.1565C134.93 71.9042 132.069 69.2005 130.606 68.3245C129.074 67.4075 128.05 67.1375 127.419 67.1431C126.879 67.1478 126.6 67.3469 126.395 67.6608C126.143 68.0469 125.968 68.6859 125.948 69.553C125.928 70.3987 126.057 71.344 126.292 72.2325C127.953 78.5052 127.529 84.5894 126.742 87.7596C126.575 88.4304 125.896 88.8382 125.225 88.6703C124.554 88.5024 124.145 87.8224 124.312 87.1516C125.003 84.3679 125.419 78.7125 123.872 72.8692C123.588 71.7945 123.419 70.611 123.445 69.4891C123.471 68.3885 123.689 67.221 124.298 66.2882C124.955 65.2832 126.006 64.6511 127.392 64.639C128.687 64.6276 130.182 65.155 131.888 66.1764C133.824 67.3353 136.969 70.4168 139.44 74.9636C141.666 79.0591 143.384 84.4113 143.171 90.7376C148.256 87.799 152.329 83.7485 155.181 79.8689C156.784 77.6878 157.986 75.5826 158.76 73.7906C159.555 71.951 159.835 70.5905 159.773 69.8448L159.718 69.1755L160.245 68.7602C163.069 66.5338 164.824 64.5858 165.736 63.018C166.663 61.4236 166.591 60.4748 166.323 59.9805C166.044 59.4655 165.261 58.8978 163.536 58.7378C161.852 58.5816 159.529 58.8513 156.67 59.7084L155.279 60.1254L155.07 58.6868C155.056 58.5927 154.959 58.3031 154.686 57.8227C154.434 57.3784 154.091 56.873 153.707 56.3797C153.322 55.8864 152.915 55.428 152.542 55.0713C152.142 54.6877 151.876 54.5139 151.774 54.4711L149.314 53.4377L151.677 52.2062C153.769 51.1155 155.313 50.1346 156.412 49.2706C157.524 48.3971 158.117 47.6925 158.391 47.1743C158.649 46.6881 158.588 46.4546 158.541 46.347C158.472 46.1871 158.26 45.9272 157.716 45.6611C156.617 45.124 154.746 44.8532 152.656 45.0067C150.586 45.1587 148.521 45.7118 147.056 46.6125L146.497 46.956L145.896 46.691C138.751 43.541 133.788 43.429 130.226 45.0264C129.183 45.4944 128.235 46.1187 127.369 46.8858C125.243 48.7686 123.594 51.5248 122.267 54.9454C122.218 55.0739 122.148 55.2281 122.049 55.3773C121.962 55.5091 121.775 55.7557 121.445 55.9098C121.036 56.1008 120.588 56.0663 120.23 55.872C119.94 55.715 119.774 55.4911 119.695 55.3729C119.533 55.1282 119.436 54.8457 119.376 54.6474C119.307 54.4215 119.247 54.1662 119.192 53.9055C119.039 53.1687 118.896 52.1799 118.767 51.2962C118.72 50.9657 118.674 50.6499 118.63 50.3675C118.426 49.0367 117.807 46.804 116.727 44.5027C115.645 42.195 114.154 39.9331 112.269 38.4306L112.176 38.3569L112.099 38.2672C111.026 37.0194 108.865 36.4889 107.285 37.0932C106.553 37.3734 105.977 37.8854 105.669 38.686C105.352 39.5123 105.269 40.7892 105.841 42.6615C106.316 44.2174 107.272 47.5511 107.587 50.9656C107.745 52.6725 107.749 54.4586 107.423 56.0816C107.097 57.7027 106.419 59.2645 105.128 60.3745L105.086 60.4104L105.041 60.4425C102.008 62.6173 94.8988 66.1646 87.2295 65.8127C86.8266 65.7942 86.457 65.5827 86.2365 65.2446C85.5767 64.2329 84.0179 63.0703 81.9716 62.415C80.1424 61.8292 78.0787 61.7004 76.1595 62.3451C75.8162 63.6209 75.2543 64.7436 74.714 65.6138C74.0908 66.6175 73.4367 67.3794 73.0703 67.6944C72.5466 68.1448 71.7562 68.0845 71.305 67.5598C70.8538 67.035 70.9126 66.2445 71.4364 65.7941C71.5442 65.7015 72.0426 65.1659 72.5866 64.2898C73.1178 63.4342 73.6337 62.346 73.8626 61.1705C74.0865 60.0207 74.3303 56.3851 74.3323 54.7872C74.3349 52.6843 73.8437 51.3312 73.2486 50.5744C72.6871 49.8603 71.9992 49.6165 71.2695 49.7222ZM76.5716 59.6425C76.7245 57.9773 76.8344 55.9041 76.8357 54.7949C76.8388 52.3481 76.2737 50.3746 75.2152 49.0285C74.1231 47.6396 72.5602 47.0042 70.9062 47.2438C67.74 47.7024 64.8811 51.1657 63.7805 56.577C63.419 57.8755 61.9969 60.5798 59.264 64.3766C56.5418 68.1585 52.6022 72.9111 47.3598 78.2389C46.0131 79.6076 44.6949 82.5089 44.0823 85.7772C43.4862 88.9577 43.5082 92.7372 44.9984 96.1635C44.4299 98.384 44.1164 102.052 44.4543 106.049C44.8181 110.352 45.95 115.208 48.4843 119.175C48.5514 119.28 48.6936 119.687 48.6131 120.381C48.5374 121.035 48.273 121.832 47.7051 122.629C46.6007 124.178 44.242 125.856 39.5678 126.247C36.8216 125.915 34.8643 124.835 33.4992 123.349C32.0997 121.826 31.2476 119.793 30.8918 117.489C30.1743 112.845 31.5218 107.387 33.9759 103.729C36.4765 100.002 36.0823 95.6342 33.3048 93.619C31.9055 92.6038 30.0693 92.3525 28.1286 93.0249C26.2187 93.6867 24.2265 95.2264 22.2904 97.7587L22.2542 97.8061L22.2226 97.8568C22.107 98.0424 21.9851 98.2357 21.8581 98.4371C20.4864 100.613 18.5254 103.724 17.5362 108.03C16.4485 112.765 16.548 118.852 19.6077 126.746L19.6425 126.836L19.6907 126.919C22.8246 132.354 27.9058 138.592 34.8937 141.016C41.8415 143.426 50.2839 141.945 59.9654 133.137C72.3955 142.484 84.6123 141.024 94.2815 136.668C102.669 132.89 109.246 126.883 112.469 123.939C113.011 123.444 113.458 123.036 113.803 122.739C116.114 120.752 117.797 118.883 118.884 117.177C119.333 116.471 119.694 115.774 119.951 115.092C123.104 112.947 127.438 109.686 131.628 105.974C135.856 102.229 140.01 97.9633 142.637 93.8765C148.922 90.6919 153.859 85.8972 157.199 81.3549C158.898 79.0438 160.199 76.776 161.058 74.7878C161.762 73.1602 162.216 71.6126 162.277 70.3438C164.969 68.1616 166.831 66.1185 167.9 64.2805C169.016 62.3618 169.401 60.4074 168.523 58.7889C167.656 57.1911 165.832 56.4363 163.762 56.2443C161.917 56.0732 159.652 56.3181 157.079 56.9915C157.009 56.8532 156.936 56.7183 156.863 56.589C156.539 56.0182 156.123 55.4114 155.68 54.8428C155.314 54.3726 154.917 53.9129 154.52 53.5093C155.909 52.7145 157.048 51.9586 157.961 51.2408C159.208 50.2611 160.1 49.3017 160.604 48.3499C161.125 47.3661 161.258 46.3236 160.838 45.3543C160.44 44.4374 159.646 43.8194 158.812 43.4116C157.153 42.6008 154.778 42.3395 152.468 42.5092C150.367 42.6635 148.138 43.1871 146.321 44.1481C140.198 41.542 135.24 40.9366 131.211 42.0243C131.227 40.1755 130.707 38.3777 130.023 36.8339C129.066 34.6727 127.721 32.8492 126.747 31.8037C126.275 31.2974 125.483 31.2687 124.978 31.7397C124.472 32.2107 124.445 33.0029 124.917 33.5093C125.724 34.3753 126.904 35.9684 127.734 37.8444C128.488 39.5466 128.899 41.3532 128.62 43.0176C128.094 43.2844 127.592 43.5835 127.111 43.9126C125.061 39.0704 121.76 36.4722 120.043 35.6958C119.412 35.4107 118.671 35.6904 118.388 36.3204C118.104 36.9504 118.385 37.6922 119.015 37.9773C120.201 38.5138 123.306 40.8409 125.087 45.5906C123.564 47.0975 122.311 48.9502 121.259 51.0347L121.258 51.0313C121.207 50.6793 121.156 50.328 121.105 49.9917C120.861 48.4029 120.165 45.9408 118.994 43.4427C117.84 40.983 116.174 38.3768 113.915 36.5443C112.111 34.536 108.882 33.7999 106.387 34.754C105.064 35.2602 103.919 36.2538 103.332 37.7848C102.754 39.2901 102.769 41.1708 103.446 43.389C103.911 44.9088 104.803 48.0419 105.094 51.1915C105.24 52.7668 105.229 54.2872 104.968 55.5834C104.712 56.8579 104.236 57.8163 103.533 58.4402C100.836 60.3579 94.5976 63.4446 87.929 63.3297C86.7795 61.9247 84.8683 60.7147 82.7309 60.0302C80.8643 59.4324 78.7109 59.1976 76.5716 59.6425ZM139.467 70.1678C139.839 69.5856 140.613 69.4163 141.196 69.7895C143.637 71.3532 145.382 73.668 146.57 75.8581C147.759 78.0502 148.438 80.2065 148.702 81.5692C148.834 82.2482 148.391 82.9046 147.713 83.0353C147.034 83.166 146.377 82.7214 146.245 82.0424C146.028 80.9268 145.435 79.013 144.37 77.0491C143.303 75.0831 141.813 73.156 139.849 71.8976C139.266 71.5244 139.095 70.7499 139.467 70.1678ZM143.808 68.5014C144.18 67.9192 144.954 67.7499 145.536 68.1231C150.144 71.0745 152.81 74.8788 153.612 76.5401C153.913 77.1632 153.653 77.9115 153.03 78.2114C152.408 78.5113 151.66 78.2494 151.359 77.6263C150.751 76.3686 148.393 72.9239 144.189 70.2313C143.606 69.858 143.436 69.0836 143.808 68.5014Z" fill="#444444"/>
<path d="M140.853 48.2468C141.427 49.4641 140.587 51.0641 138.977 51.8204C137.368 52.5767 135.598 52.2029 135.025 50.9855C134.451 49.7681 135.291 48.1682 136.901 47.4119C138.51 46.6556 140.28 47.0294 140.853 48.2468Z" fill="#3A3A3A"/>
<path d="M150.591 60.5319C151.165 61.7493 150.325 63.3492 148.716 64.1055C147.106 64.8618 145.336 64.488 144.763 63.2706C144.19 62.0533 145.029 60.4533 146.639 59.697C148.248 58.9408 150.018 59.3145 150.591 60.5319Z" fill="#3A3A3A"/>
<path d="M138.312 58.0221C139.234 59.4862 139.388 61.0458 138.657 61.5053C137.926 61.9649 136.586 61.1505 135.665 59.6863C134.743 58.2221 134.589 56.6626 135.32 56.203C136.051 55.7435 137.391 56.5579 138.312 58.0221Z" fill="#F0AAAA"/>
<path fill-rule="evenodd" clip-rule="evenodd" d="M55.7338 109.929C56.3206 107.81 58.5311 105.608 61.5451 106.422C62.2128 106.602 62.609 107.289 62.43 107.957C62.251 108.624 61.5646 109.02 60.8968 108.839C59.6142 108.493 58.489 109.365 58.1465 110.602C57.9837 111.19 58.0729 111.653 58.2635 111.927C58.4254 112.16 58.8279 112.498 59.8674 112.491C60.2174 112.488 60.5528 112.632 60.7921 112.888C61.0314 113.144 61.1527 113.489 61.1268 113.838C61.0193 115.282 61.3237 116.21 61.7105 116.768C62.0919 117.318 62.6141 117.602 63.1592 117.678C64.2851 117.835 65.5505 117.116 65.8127 115.624C65.9324 114.943 66.5813 114.489 67.2622 114.61C67.9431 114.731 68.3981 115.381 68.2784 116.062C67.7709 118.95 65.2063 120.492 62.818 120.159C61.6059 119.99 60.4499 119.341 59.6539 118.192C59.0436 117.311 58.6827 116.194 58.6138 114.872C57.5838 114.652 56.7549 114.141 56.2082 113.353C55.4797 112.304 55.4319 111.019 55.7338 109.929Z" fill="#444444"/>
</g>
<defs>
<clipPath id="clip0_1237_5209">
<rect width="161.346" height="87.0901" fill="white" transform="translate(0.517578 105.777) rotate(-40.6905)"/>
</clipPath>
</defs>
</svg>
