<svg width="127" height="104" viewBox="0 0 127 104" fill="none" xmlns="http://www.w3.org/2000/svg">
<g clip-path="url(#clip0_1374_3557)">
<path d="M115.453 75.6098C113.669 68.8924 108.577 65.7203 106.254 64.974C105.418 55.4577 102.073 52.9386 100.4 52.9386C97.8915 52.9386 96.139 56.4051 95.7807 59.3762C92.3817 53.9294 86.5696 45.5172 80.3295 38.2443C77.9135 35.4284 75.4333 32.7834 73.0043 30.5473C69.4563 27.2813 66.0173 24.888 63.0463 24.1099C71.0747 23.662 75.953 15.4332 75.0331 12.3544C73.695 7.87616 69.8295 8.06275 68.064 8.71583C61.6525 11.0875 57.1924 11.9812 51.6171 10.1153C47.4357 8.71583 44.8083 5.91694 41.303 4.51745C19.5596 -4.16334 9.80296 17.9522 9.80296 25.8036C7.60072 28.0178 5.75957 30.3243 4.78526 32.5066C2.09058 40.157 -0.399689 58.0327 11.1968 68.3327C17.7012 75.1434 28.48 87.9251 34.6127 98.0011C37.1216 102.123 42.9755 102.2 43.8118 99.6805C44.235 98.4057 44.7007 96.4109 44.8083 94.3626C47.3567 97.0682 50.5021 102.244 54.6835 100.285C56.2015 99.5739 57.6941 95.8081 56.3561 91.5141C64.8206 96.5472 73.0817 100.718 81.4446 101.64C89.064 102.479 104.024 103.263 108.484 99.6805C112.48 100.334 121.753 100.408 121.307 95.4821C120.936 93.4296 117.684 89.3245 113.77 89.3245C114.765 87.3816 115.35 85.3634 115.654 83.4468C115.89 81.9585 115.957 80.5314 115.915 79.2484C115.868 77.8182 115.686 76.5671 115.453 75.6098Z" fill="#F3EDDD"/>
<path d="M103.189 85.9625C108.206 85.6826 108.485 81.4842 103.746 76.4462C100.85 73.3674 98.7284 69.169 92.8744 77.5658C90.9231 80.0848 88.1355 85.1228 95.1045 85.9625C97.4273 86.2424 99.1744 86.1864 103.189 85.9625Z" fill="#BDB4AC"/>
<path d="M104.027 75.5556C104.232 77.4254 105.376 78.8331 106.581 78.6999C107.787 78.5666 108.598 76.9429 108.393 75.0731C108.188 73.2033 107.044 71.7955 105.839 71.9288C104.633 72.062 103.822 73.6858 104.027 75.5556Z" fill="#454545"/>
<path d="M88.9745 75.5556C89.1795 77.4254 90.323 78.8331 91.5284 78.6999C92.7339 78.5666 93.545 76.9429 93.3399 75.0731C93.1349 73.2033 91.9915 71.7955 90.786 71.9288C89.5806 72.062 88.7695 73.6858 88.9745 75.5556Z" fill="#454545"/>
<path d="M97.0546 79.8057C97.0546 80.5786 98.1778 81.2052 99.5634 81.2052C100.949 81.2052 102.072 80.5786 102.072 79.8057C102.072 79.0328 100.949 78.4062 99.5634 78.4062C98.1778 78.4062 97.0546 79.0328 97.0546 79.8057Z" fill="#FF8C8C"/>
<path d="M29.8743 53.4973C39.9097 57.9955 66.9495 56.912 80.3301 38.1033C77.2637 33.7183 69.1796 25.788 63.6044 24.1087C54.6841 25.5082 47.4363 22.4293 44.3699 19.9103C42.2389 18.1597 38.5159 14.8723 31.5469 14.3125C29.5026 14.3125 24.1876 15.0962 19.2814 18.231C16.0292 24.4819 14.2637 46.5 29.8743 53.4973Z" fill="#BDB4AC"/>
<path d="M43.533 42.0195C47.7144 36.9815 56.0773 28.3049 73.918 31.6635C72.2454 29.4244 68.3427 25.7858 63.6038 24.3864H59.4224C49.1082 27.4652 38.5153 34.5514 38.5153 43.1391C38.5153 45.3782 40.4666 46.4978 43.533 42.0195Z" fill="#867A78"/>
<path d="M30.9888 34.1826C33.4976 29.1445 41.0242 21.3076 46.5994 21.3076L38.7941 16.2695C33.2189 19.9081 27.3091 27.6331 27.0861 31.6635C26.8074 36.7016 29.595 36.9815 30.9888 34.1826Z" fill="#867A78"/>
<path d="M42.1392 4.51705C31.2675 -1.08079 13.4268 1.43826 9.24537 26.6284C17.3294 20.2842 28.2011 7.87577 47.9932 21.5905C54.9622 25.229 68.3427 26.6285 74.1967 17.672C76.5029 14.1436 76.7055 5.07684 64.1613 9.55513C61.2808 11.0479 55.2409 13.1937 42.1392 4.51705Z" fill="#BDB4AC"/>
<path d="M54.9628 23.829C54.684 20.4703 54.6282 12.8013 56.6353 11.2339C61.9318 12.6333 69.1796 5.63604 73.361 9.27463C76.9849 12.4281 75.0336 17.3915 71.1309 20.7502C69.0873 22.509 65.2769 24.9485 54.9628 23.829Z" fill="#867A78"/>
<path d="M44.6486 20.1904C44.6486 17.2982 45.6521 10.0583 48.5513 8.71484L41.861 4.23658C40.0955 6.10253 37.1221 10.6741 37.9583 15.7121L44.6486 20.1904Z" fill="#867A78"/>
<path d="M25.6929 3.67684C27.5513 2.93046 29.5955 2.27733 32.9406 2.27734C31.9185 4.51648 29.7628 10.5062 31.5468 14.3127L24.5778 15.7121C23.7415 12.9132 23.6858 5.69207 25.6929 3.67684Z" fill="#867A78"/>
<path d="M82.5591 71.9705C85.068 72.8595 96.553 73.5378 100.121 64.1335C97.6122 62.4541 90.0857 62.734 90.0857 62.734C89.2494 59.6552 85.3468 52.658 83.1167 52.9378C81.7229 53.1128 76.8167 61.2786 77.2627 65.533C77.5855 68.6118 80.0503 71.0814 82.5591 71.9705Z" fill="#BDB4AC"/>
<path d="M92.8738 61.8915C94.8251 69.7284 103.745 73.0871 111.551 68.6089C111.179 68.0491 108.484 65.586 106.254 64.6904C105.697 60.8652 104.024 53.2148 100.4 53.2148C97.8915 53.2148 95.6614 57.4132 95.6614 62.1714L92.8738 61.8915Z" fill="#867A78"/>
<path fill-rule="evenodd" clip-rule="evenodd" d="M27.4729 4.16315C31.1911 3.25028 35.6407 3.46022 40.891 5.55632C42.3586 6.14224 43.663 6.99239 45.1207 7.94245C45.279 8.0456 45.439 8.14993 45.6013 8.25523C47.2285 9.31094 49.0308 10.4284 51.2645 11.1759C57.2005 13.1626 61.9563 12.1668 68.4495 9.7649C69.1608 9.50176 70.3086 9.33785 71.3716 9.67653C72.3582 9.99087 73.3969 10.7731 73.965 12.6747C74.092 13.0997 74.0525 13.9122 73.6334 15.0318C73.2294 16.1112 72.5244 17.3325 71.5445 18.4935C69.5811 20.8201 66.6195 22.7878 62.9845 22.9905L62.9461 22.9927L62.908 22.9975C62.7168 23.0215 62.5283 23.0455 62.342 23.0692C61.2117 23.2131 60.1643 23.3465 59.0837 23.405C55.9645 23.5736 52.5307 23.1193 46.9351 20.0473C44.9274 18.945 42.6415 17.5055 39.993 15.6355C36.0259 12.8345 29.2475 12.3967 22.7758 14.9495L22.6879 14.9841L22.6071 15.0331C22.5317 15.0789 22.4548 15.1255 22.3766 15.1729C19.6276 16.8385 15.1916 19.5263 11.2647 22.9197C11.5529 21.5561 12.0251 20.0017 12.6974 18.3714C13.9094 15.4324 15.7393 12.3272 18.2058 9.73247C20.6684 7.14182 23.7471 5.0779 27.4729 4.16315ZM8.69781 25.332C8.78432 23.2221 9.43766 20.4229 10.6369 17.5148C11.9338 14.3702 13.902 11.017 16.5926 8.1865C19.287 5.35194 22.7244 3.02391 26.9432 1.98811C31.1697 0.95043 36.0935 1.23134 41.715 3.47564C43.4007 4.14867 44.8944 5.12371 46.3239 6.05682C46.4873 6.16346 46.6498 6.26955 46.8117 6.37459C48.42 7.41805 50.022 8.39981 51.9697 9.05169C57.1841 10.7969 61.3488 10.0053 67.6785 7.66382C68.7327 7.27388 70.4004 7.01796 72.0461 7.54227C73.7681 8.09093 75.3312 9.45452 76.1011 12.0312C76.434 13.1456 76.2087 14.5163 75.721 15.8195C75.2181 17.1629 74.3743 18.6041 73.246 19.941C71.6695 21.8091 69.4865 23.5307 66.8124 24.4801C69.0687 25.7319 71.4205 27.5691 73.7578 29.7206C76.2284 31.9949 78.7393 34.6741 81.1743 37.5121C86.6636 43.91 91.8169 51.1733 95.3129 56.562C95.5849 55.8071 95.9315 55.0807 96.3474 54.4343C97.2303 53.062 98.5907 51.8176 100.4 51.8176C101.767 51.8176 103.323 52.7934 104.582 54.7863C105.797 56.7082 106.831 59.6971 107.297 64.1684C110.08 65.3373 114.788 68.7576 116.531 75.3199L116.534 75.3312L116.537 75.3425C116.683 75.9426 116.808 76.6391 116.897 77.4093C120.036 75.8882 122.971 75.8882 124.897 75.8883H124.931C125.547 75.8883 126.046 76.3895 126.046 77.0079C126.046 77.6262 125.547 78.1274 124.931 78.1274C122.839 78.1274 120.001 78.1386 117.042 79.8657C117.044 80.5315 117.019 81.2287 116.958 81.9481C118.485 81.7121 120.075 81.865 121.485 82.1605C123.454 82.5732 125.227 83.2968 126.285 83.853C126.83 84.1399 127.041 84.8165 126.755 85.3643C126.47 85.912 125.796 86.1234 125.25 85.8365C124.357 85.3666 122.777 84.7187 121.029 84.3524C119.494 84.0306 117.943 83.9501 116.637 84.2988C116.382 85.6425 115.99 87.0293 115.422 88.4044C117.077 88.8065 118.523 89.7627 119.634 90.8194C121.078 92.1934 122.161 93.9339 122.404 95.2804L122.413 95.3295L122.418 95.3793C122.568 97.0376 121.868 98.3123 120.736 99.192C119.664 100.026 118.22 100.501 116.765 100.773C114.05 101.279 110.879 101.148 108.773 100.855C107.459 101.75 105.644 102.329 103.661 102.714C101.43 103.147 98.8378 103.362 96.1803 103.436C90.8626 103.585 85.1635 103.174 81.3229 102.751C73.424 101.881 65.6766 98.2092 57.9154 93.724C58.0155 95.0582 57.8479 96.263 57.5103 97.2902C56.9846 98.8897 56.0031 100.166 54.8763 100.694C53.6183 101.283 52.4069 101.398 51.2632 101.149C50.1434 100.905 49.1599 100.328 48.3027 99.6478C47.4462 98.9681 46.6667 98.1457 45.9632 97.3548C45.8978 97.2812 45.8334 97.2084 45.7699 97.1362C45.6493 98.1644 45.3907 99.2057 44.7697 100.252C44.3099 101.027 43.4783 101.532 42.635 101.826C41.7626 102.131 40.7288 102.265 39.6657 102.188C37.5338 102.035 35.1407 101.014 33.6612 98.5835C27.5965 88.6192 16.9024 75.9278 10.4232 69.1389C4.36971 63.7423 1.88159 56.3213 1.30526 49.3947C0.729118 42.4704 2.04897 35.8969 3.76777 32.0472C4.7739 29.7936 6.59309 27.4903 8.69781 25.332ZM45.9334 93.9331C45.927 92.7176 45.6561 91.6618 45.302 90.6819C45.1045 90.1353 44.8769 89.6015 44.6574 89.0881L44.6424 89.053C44.4969 88.7125 44.3542 88.3789 44.2177 88.0401C44.2787 87.9089 44.326 87.7847 44.364 87.6789C44.4366 87.4772 44.5116 87.2294 44.5796 87.0048C44.6101 86.9043 44.6391 86.8084 44.6659 86.7233C44.7518 86.4506 44.8399 86.2025 44.9399 85.9801C46.8958 87.2712 49.6846 88.9001 52.4167 90.4957C53.4374 91.0919 54.4502 91.6834 55.4087 92.251C55.8769 94.0064 55.7545 95.4871 55.3925 96.5885C54.9875 97.8209 54.3243 98.4812 53.9332 98.6645C53.1004 99.0547 52.3855 99.1025 51.7361 98.961C51.0627 98.8143 50.3862 98.447 49.6855 97.891C48.9842 97.3345 48.3078 96.6292 47.6265 95.8632C47.391 95.5984 47.1478 95.3179 46.9027 95.0352C46.5785 94.6613 46.251 94.2835 45.9334 93.9331ZM43.7345 83.768C43.2542 84.6098 42.6444 85.9801 42.6444 85.9801L41.6794 87.6417L41.9315 88.3167C42.1439 88.8855 42.3731 89.4216 42.586 89.9194L42.6082 89.9713C42.8309 90.4922 43.0333 90.9687 43.2056 91.4455C43.5446 92.3837 43.7487 93.2773 43.6948 94.3021C43.6766 94.6495 43.6635 94.9724 43.6512 95.2752C43.5855 96.8969 43.543 97.9447 42.8539 99.106C42.7704 99.2467 42.494 99.5049 41.9026 99.7114C41.3404 99.9076 40.6126 100.012 39.8255 99.9551C38.2566 99.842 36.5936 99.1072 35.5641 97.4159C29.3731 87.2441 18.5345 74.3969 12.0016 67.5563L11.9699 67.5231L11.9356 67.4927C6.41784 62.5918 4.07407 55.7759 3.52761 49.2082C2.97984 42.625 4.25247 36.4354 5.80273 32.9631C6.69514 30.9643 8.42532 28.7716 10.5919 26.5932C14.7554 22.4071 20.2708 19.0645 23.5824 17.0575L23.678 16.9995C29.665 14.6658 35.5572 15.2409 38.7102 17.4671C41.41 19.3733 43.7678 20.8604 45.8652 22.0119C51.7808 25.2595 55.6232 25.8344 59.2036 25.6409C60.3715 25.5777 61.5076 25.4328 62.6339 25.2892C62.7447 25.275 62.8554 25.2609 62.966 25.2469C65.6203 26.0083 68.8157 28.2091 72.2507 31.3711C74.6383 33.5689 77.0876 36.1798 79.4847 38.9736C85.5588 46.053 91.2338 54.2326 94.6362 59.6503C94.6093 60.0648 94.6133 60.4782 94.6241 60.873C94.625 60.9085 94.626 60.9437 94.6271 60.9786C93.8431 60.8327 93.0703 60.7863 92.3734 60.8098C91.84 60.8277 91.3339 60.8871 90.8847 60.9818C90.7594 60.6189 90.6006 60.2212 90.418 59.806C89.9696 58.786 89.3535 57.6046 88.6674 56.4805C87.9847 55.3622 87.2088 54.2614 86.4333 53.4251C86.0464 53.0078 85.6328 52.627 85.2053 52.3433C84.7924 52.0692 84.2651 51.8176 83.6746 51.8176C82.4532 51.8176 81.4071 52.6407 80.621 53.5177C79.792 54.4425 79.0284 55.6769 78.3822 56.9892C77.1028 59.5872 76.1481 62.7732 76.1481 64.9725C76.1481 65.5908 76.6473 66.0921 77.2631 66.0921C77.8789 66.0921 78.3782 65.5908 78.3782 64.9725C78.3782 63.2533 79.1796 60.4217 80.3812 57.9816C80.9755 56.7749 81.6336 55.7351 82.2786 55.0156C82.9599 54.2555 83.4375 54.0604 83.6681 54.0568C83.6681 54.0568 83.7645 54.071 83.9755 54.2111C84.2035 54.3625 84.4825 54.6072 84.8011 54.9508C85.4369 55.6364 86.1245 56.5998 86.766 57.6506C87.4039 58.6957 87.9726 59.7884 88.3779 60.7102C88.5807 61.1717 88.7365 61.5764 88.8394 61.9015C88.8908 62.0638 88.9258 62.1963 88.9472 62.2991C88.9699 62.4079 88.9711 62.4535 88.9711 62.4535C88.9711 62.8664 89.1974 63.2458 89.56 63.4406C89.9226 63.6354 90.3625 63.6141 90.7046 63.385C90.7528 63.3528 90.9251 63.2686 91.2643 63.1905C91.5841 63.1169 91.9888 63.0631 92.448 63.0476C93.3727 63.0165 94.437 63.1433 95.3891 63.5018C95.7316 63.6307 96.1152 63.5828 96.4158 63.3737C96.7164 63.1645 96.8957 62.8207 96.8957 62.4535C96.8957 62.0491 96.8813 61.6405 96.8682 61.2687C96.8626 61.1085 96.8572 60.9551 96.8533 60.8118C96.8396 60.3094 96.842 59.8877 96.8876 59.5093C97.0495 58.1664 97.529 56.7243 98.2206 55.6493C98.9308 54.5455 99.7011 54.0567 100.4 54.0567C100.706 54.0567 101.659 54.3405 102.699 55.9861C103.722 57.6035 104.735 60.4196 105.144 65.0709L105.209 65.812L105.914 66.0388C107.948 66.6922 112.702 69.6134 114.373 75.8855C114.585 76.7594 114.756 77.929 114.801 79.2837C114.84 80.5018 114.777 81.8572 114.553 83.2692C114.264 85.0878 113.711 86.9895 112.779 88.8112C111.794 90.7346 110.382 92.5776 108.391 94.1494C103.682 91.5821 93.1438 86.8439 83.7779 85.9692C83.1647 85.9119 82.6214 86.3646 82.5644 86.9802C82.5073 87.5959 82.9582 88.1414 83.5713 88.1987C92.8276 89.0632 103.477 93.9505 107.793 96.3748C108.044 96.6525 108.149 96.8875 108.194 97.0701C108.246 97.2794 108.237 97.4954 108.177 97.7311C108.116 97.9746 108.005 98.2185 107.871 98.4686C107.819 98.565 107.771 98.6509 107.719 98.7416C107.702 98.7712 107.685 98.8013 107.668 98.8324C107.649 98.8655 107.628 98.9026 107.606 98.9424C106.687 99.6004 105.203 100.134 103.238 100.515C101.171 100.917 98.7106 101.125 96.1181 101.198C90.9358 101.343 85.3451 100.942 81.5662 100.525C73.461 99.6322 65.379 95.5766 56.9242 90.5493C55.8002 89.881 54.6156 89.189 53.4354 88.4997C50.6679 86.8833 47.9256 85.2815 46.0507 84.0338C46.5308 82.8032 47.0452 80.8815 47.2567 78.5818C47.5366 75.5392 47.2958 71.7416 45.675 67.895C45.435 67.3255 44.7808 67.0592 44.2136 67.3001C43.6465 67.541 43.3812 68.198 43.6212 68.7674C45.0667 72.198 45.2906 75.6092 45.0361 78.3759C44.7926 81.024 44.1195 82.9987 43.7345 83.768ZM110.188 98.7632C110.244 98.612 110.296 98.4512 110.339 98.2822C110.467 97.7739 110.518 97.1748 110.358 96.5309C110.288 96.247 110.181 95.9684 110.034 95.6968C111.935 94.14 113.361 92.3551 114.411 90.4881C115.752 90.6766 117.038 91.4348 118.1 92.4449C119.326 93.6107 120.051 94.9168 120.201 95.634C120.257 96.4112 119.965 96.9603 119.371 97.4214C118.706 97.9387 117.665 98.3273 116.358 98.5713C114.365 98.9432 112.031 98.9303 110.188 98.7632ZM74.6588 76.7127C77.1416 76.2972 80.9822 76.6876 84.8957 80.093C85.361 80.498 86.0653 80.4475 86.4686 79.9802C86.8719 79.513 86.8216 78.8059 86.3562 78.4009C81.9068 74.5291 77.3846 73.9865 74.2922 74.504C73.6848 74.6057 73.2744 75.1825 73.3756 75.7924C73.4769 76.4023 74.0514 76.8144 74.6588 76.7127ZM72.8771 84.3679C73.9991 83.5934 78.3668 82.1238 85.2635 84.5041C85.8459 84.7051 86.4803 84.394 86.6804 83.8093C86.8806 83.2246 86.5708 82.5876 85.9884 82.3866C78.6125 79.8408 73.4652 81.2447 71.6137 82.5228C71.1063 82.8731 70.9777 83.5701 71.3266 84.0796C71.6755 84.5891 72.3697 84.7182 72.8771 84.3679Z" fill="#444444"/>
</g>
<defs>
<clipPath id="clip0_1374_3557">
<rect width="126" height="103" fill="white" transform="matrix(-1 0 0 1 126.883 0.921875)"/>
</clipPath>
</defs>
</svg>
