<svg width="115" height="120" viewBox="0 0 115 120" fill="none" xmlns="http://www.w3.org/2000/svg">
<g clip-path="url(#clip0_1374_3499)">
<path d="M22.6949 12.1272C25.603 -4.70693 33.1644 1.67845 33.7459 10.9662H39.2714C42.7612 -2.38497 49.45 -2.09468 51.7765 12.7077C53.5213 15.3199 55.8815 18.5126 58.4653 21.7053C63.351 27.7424 80.2764 34.476 86.3836 37.6687C84.2509 30.7996 82.3122 18.5126 85.5112 14.4492C88.7101 10.3858 97.3765 8.64431 94.8173 19.0931C93.9448 24.7045 93.654 33.315 108.486 48.4077C114.761 54.7931 114.709 66.4609 109.358 73.6589C108.855 78.7911 106.998 83.4461 104.123 87.0101C101.797 90.4931 90.7458 102.393 90.7458 102.393L80.2764 114.874C76.4958 119.517 69.807 118.357 70.3886 112.842C70.3886 109.359 72.1336 102.393 72.1336 102.393C69.5567 96.8785 71.8428 90.7833 74.4601 86.1394C74.4601 86.1394 71.7577 89.4839 70.9703 92.2346C70.3887 94.2663 69.807 107.617 69.807 107.617C68.9346 114.874 61.6642 121.839 59.3376 114.003L54.9754 91.6541L57.8836 114.003C57.8836 117.776 50.904 119.01 48.8682 111.391C45.3785 98.3297 36.6539 85.8492 32.0009 77.7224C27.3479 69.5955 21.5315 57.9858 15.7152 39.7004C14.2617 37.3794 13.3813 35.1471 12.9409 33.0248C12.5616 31.1971 12.5086 29.4511 12.6968 27.8004C13.602 19.8625 20.0865 14.1297 22.6949 12.1272Z" fill="#BAAA96"/>
<path fill-rule="evenodd" clip-rule="evenodd" d="M43.3177 4.19866C42.2778 5.65743 41.2508 7.9923 40.3965 11.2607C40.2628 11.7719 39.8002 12.1286 39.2709 12.1286H33.7453C33.1311 12.1286 32.6227 11.6519 32.5843 11.04C32.4476 8.85615 31.9009 6.87316 31.1453 5.3895C30.3638 3.85509 29.474 3.06554 28.7774 2.87001C28.4663 2.7827 28.1572 2.79949 27.8181 2.96158C27.4573 3.13408 27.0089 3.49937 26.5224 4.20033C25.5379 5.61868 24.5569 8.18022 23.8407 12.3259C23.7911 12.6131 23.635 12.8711 23.4036 13.0488C20.826 15.0276 14.6993 20.5033 13.8521 27.9331C13.6772 29.466 13.7261 31.0881 14.0794 32.7907C14.4897 34.7675 15.3145 36.8723 16.7011 39.0865C16.7528 39.169 16.7939 39.2577 16.8234 39.3505C22.6126 57.5505 28.3942 69.0853 33.0103 77.1477C33.9298 78.7536 35.0227 80.55 36.211 82.5032C40.9336 90.2655 47.1622 100.503 49.9917 111.093C50.9161 114.553 52.8436 115.693 54.2388 115.814C55.7308 115.942 56.6786 115.06 56.7184 114.069L53.8213 91.805C53.7404 91.1833 54.1686 90.6098 54.7886 90.5094C55.4087 90.4091 55.9966 90.8181 56.1167 91.4335L60.468 113.726C61.0007 115.486 61.7056 116.069 62.1952 116.23C62.6982 116.395 63.4503 116.272 64.4167 115.544C66.3391 114.097 68.2315 110.867 68.6463 107.523L68.651 107.417C68.6555 107.318 68.662 107.173 68.6706 106.988C68.6877 106.618 68.7127 106.087 68.7446 105.444C68.8084 104.158 68.8995 102.421 69.0089 100.619C69.1182 98.8191 69.2462 96.9474 69.3839 95.3943C69.5167 93.8965 69.6686 92.555 69.8512 91.917C70.295 90.3668 71.2481 88.7231 72.0367 87.5209C72.4391 86.9074 72.8154 86.3841 73.0915 86.0136C73.2298 85.828 73.3435 85.68 73.4235 85.5772C73.4635 85.5259 73.4952 85.4858 73.5173 85.4579L73.5432 85.4254L73.5505 85.4163L73.5535 85.4126C73.5536 85.4125 73.554 85.412 74.4595 86.1408L73.554 85.412C73.9338 84.942 74.6112 84.841 75.112 85.1797C75.6129 85.5184 75.77 86.1837 75.4734 86.71C72.8768 91.3173 70.8705 96.9457 73.1873 101.904C73.3001 102.145 73.3263 102.418 73.2616 102.676L73.2614 102.677L73.2571 102.694L73.2431 102.751C73.2307 102.801 73.2123 102.876 73.1889 102.973C73.142 103.167 73.0747 103.449 72.9939 103.798C72.8321 104.498 72.6166 105.466 72.4012 106.54C71.9639 108.723 71.5513 111.231 71.5513 112.843C71.5513 112.884 71.5492 112.924 71.545 112.965C71.4251 114.101 71.686 114.905 72.0898 115.448C72.4977 115.996 73.1257 116.376 73.9166 116.529C75.5141 116.836 77.717 116.177 79.373 114.143L79.3839 114.13L89.8533 101.649C89.8659 101.634 89.8788 101.62 89.8921 101.605L90.7453 102.394C89.8921 101.605 89.892 101.605 89.8921 101.605L89.8925 101.605L89.894 101.603L90.0157 101.472C90.0634 101.42 90.1244 101.355 90.1976 101.275C90.2489 101.22 90.3062 101.158 90.3692 101.09C90.6751 100.758 91.1149 100.281 91.65 99.6971C92.7204 98.5292 94.1713 96.9363 95.6942 95.2355C98.7716 91.7985 102.048 88.0242 103.155 86.3675C103.174 86.3387 103.195 86.3106 103.217 86.2836C105.936 82.9119 107.716 78.476 108.2 73.5472C109.327 62.0634 103.397 47.875 85.8432 38.6985C84.4418 37.9659 82.449 37.038 80.1196 35.9535C79.9611 35.8797 79.801 35.8052 79.6394 35.7299C77.1179 34.5555 74.2613 33.2186 71.4397 31.7905C68.6201 30.3634 65.8152 28.8351 63.3973 27.2736C60.9974 25.7236 58.8988 24.0908 57.5598 22.4362C54.9577 19.2209 52.5758 15.9996 50.808 13.3531C50.7147 13.2133 50.6528 13.055 50.6267 12.889C50.0556 9.25519 49.2286 6.60112 48.3034 4.85827C47.3518 3.06583 46.4476 2.49991 45.8369 2.43527C45.2655 2.37478 44.3826 2.70482 43.3177 4.19866ZM91.6184 103.162L81.1787 115.607C81.1768 115.609 81.1749 115.612 81.173 115.614C79.0487 118.219 76.0201 119.299 73.4757 118.808C72.1945 118.562 71.023 117.908 70.2223 116.833C69.5073 115.872 69.1456 114.653 69.1936 113.257C68.2733 114.977 67.0883 116.442 65.8175 117.398C64.5663 118.34 63.0101 118.942 61.4683 118.436C60.2622 118.04 59.3484 117.059 58.706 115.646C57.9343 117.369 55.9685 118.293 54.0387 118.127C51.4352 117.903 48.855 115.85 47.7437 111.691C45.0109 101.463 39.0276 91.6202 34.3112 83.8613C33.094 81.8589 31.9612 79.9953 30.9903 78.2998C26.3122 70.1291 20.4788 58.4825 14.65 40.1914C13.2877 37.989 12.4056 35.8429 11.9145 33.7712C10.5279 33.044 8.84012 32.9666 7.14486 33.2628C5.29516 33.5859 3.6022 34.3279 2.63811 34.8964C2.08501 35.2226 1.37168 35.0396 1.04484 34.4875C0.718006 33.9355 0.901434 33.2236 1.45454 32.8974C2.62311 32.2082 4.57873 31.3538 6.74367 30.9756C8.23036 30.7158 9.89549 30.6681 11.4889 31.1175C11.4104 30.1838 11.409 29.272 11.4737 28.3844C7.61776 25.9513 3.70281 26.0115 2.29868 26.3229C1.67152 26.462 1.05013 26.0674 0.910763 25.4415C0.771395 24.8155 1.16682 24.1954 1.79398 24.0563C3.59088 23.6577 7.68498 23.6234 11.8328 25.9006C13.3842 18.7336 18.9873 13.5798 21.6265 11.4881C22.3599 7.4548 23.3849 4.6429 24.6099 2.87809C25.2503 1.9555 25.9834 1.26411 26.8131 0.867471C27.6646 0.460403 28.5551 0.395571 29.4073 0.634781C31.0372 1.0923 32.3285 2.58842 33.2192 4.3374C33.9991 5.86875 34.5618 7.76093 34.8071 9.80666H38.3817C39.2306 6.81723 40.2635 4.4777 41.422 2.85256C42.6654 1.10837 44.2545 -0.0672161 46.0823 0.126269C47.8709 0.315603 49.2932 1.76325 50.3592 3.77119C51.4268 5.78223 52.2931 8.62973 52.8846 12.2751C54.5921 14.8138 56.8734 17.8926 59.3697 20.9772C60.4735 22.3411 62.3227 23.8139 64.6613 25.3242C66.9819 26.8229 69.706 28.3095 72.492 29.7196C75.2758 31.1286 78.101 32.451 80.6233 33.6258C80.7933 33.705 80.9621 33.7836 81.1295 33.8615C82.3632 34.4359 83.5217 34.9752 84.5547 35.4689C83.7523 32.3384 83.0662 28.6162 82.7878 25.0996C82.6084 22.8336 82.5952 20.6164 82.8436 18.6795C83.0884 16.7703 83.6042 14.993 84.5959 13.7333C85.5198 12.5598 86.8119 11.5811 88.1807 10.9412C89.5388 10.3064 91.0838 9.95426 92.5088 10.1844C94.0007 10.4253 95.3037 11.3053 95.9709 12.9548C96.6006 14.5119 96.6125 16.6256 95.9588 19.3208C95.5434 22.0112 95.2831 25.3426 96.8591 29.8108C98.4567 34.3398 101.974 40.125 109.316 47.5962C112.703 51.0434 114.336 55.862 114.444 60.7042C114.549 65.4371 113.202 70.298 110.482 74.091C109.917 79.2834 108.012 84.0233 105.061 87.6994C103.817 89.5439 100.435 93.4258 97.429 96.7827C95.8983 98.4922 94.441 100.092 93.3667 101.264C92.8294 101.85 92.3876 102.33 92.0801 102.663C91.9263 102.83 91.8061 102.96 91.7242 103.048L91.6184 103.162ZM110.61 69.0541C111.663 66.4687 112.181 63.5977 112.118 60.7557C112.02 56.3682 110.542 52.1602 107.655 49.222C100.165 41.6006 96.4115 35.5342 94.6646 30.5818C92.9058 25.5955 93.2144 21.829 93.6672 18.9165C93.6723 18.8836 93.6788 18.8511 93.6867 18.8188C94.3004 16.3131 94.185 14.7426 93.8135 13.8239C93.4754 12.9882 92.8918 12.5984 92.1372 12.4765C91.3156 12.3438 90.2542 12.536 89.1676 13.0439C88.0917 13.5469 87.1009 14.3097 86.4253 15.1679C85.8176 15.9398 85.376 17.2222 85.1513 18.9743C84.9301 20.6987 84.9351 22.7444 85.1071 24.9167C85.4358 29.068 86.3631 33.5477 87.3551 36.8699C103.099 45.2599 109.968 57.7365 110.61 69.0541ZM55.4928 26.2953C53.3012 25.5954 47.9484 25.2179 44.1867 29.1807C43.7449 29.6462 43.0086 29.6661 42.5422 29.2251C42.0758 28.7841 42.0559 28.0493 42.4978 27.5838C47.1116 22.7233 53.5465 23.2358 56.2019 24.0839C56.8138 24.2793 57.1511 24.9328 56.9553 25.5434C56.7595 26.1541 56.1047 26.4908 55.4928 26.2953ZM50.4837 33.1276C48.3835 33.0917 46.0595 33.5189 43.9762 34.8703C43.4375 35.2198 42.717 35.0672 42.3669 34.5296C42.0168 33.992 42.1696 33.2729 42.7083 32.9235C45.278 31.2564 48.0918 30.7645 50.5235 30.806C52.9453 30.8473 55.0589 31.4181 56.3112 31.9615C56.9003 32.2171 57.1703 32.9011 56.9141 33.4891C56.658 34.0771 55.9727 34.3465 55.3835 34.0909C54.4062 33.6668 52.5938 33.1636 50.4837 33.1276Z" fill="#4A965B"/>
<path d="M90.7443 102.392C90.7443 102.392 101.795 90.4923 104.122 87.0093C105.05 85.8585 105.872 84.5939 106.577 83.2362C102.559 83.6232 92.78 83.2362 90.7443 76.8508C89.7264 73.6581 90.4535 66.9825 84.3463 68.4337C80.2749 68.724 77.0759 68.4337 75.9127 62.9191C75.1168 59.146 72.5974 56.0113 67.479 57.4045C65.1525 58.0378 60.8286 57.5194 59.3361 53.0508C58.7545 51.3094 56.7188 47.8264 51.4841 48.4069C48.2851 48.7617 47.878 45.9689 43.9229 39.6996L35.1984 27.2191C32.2902 22.5752 28.8004 22.5752 26.4739 25.4776C24.76 27.6158 19.9014 33.1401 16.877 42.8923C22.6933 61.1777 27.3463 69.5947 31.9993 77.7215C36.6524 85.8484 45.3769 98.3289 48.8667 111.39C50.9024 119.009 57.882 117.775 57.882 114.002L54.9739 91.6533L59.3361 114.002C61.6627 121.839 68.933 114.873 69.8055 107.617C69.8055 107.617 70.3871 94.2654 70.9688 92.2337C71.7562 89.483 74.4585 86.1386 74.4585 86.1386C71.8412 90.7825 69.5552 96.8777 72.1321 102.392C72.1321 102.392 70.3871 109.358 70.3871 112.841C69.8055 118.356 76.4943 119.517 80.2749 114.873L90.7443 102.392Z" fill="white"/>
<path d="M32.8726 28.67C32.8726 29.4715 31.4403 30.1212 29.6736 30.1212C27.9068 30.1212 26.4746 29.4715 26.4746 28.67C26.4746 27.8685 27.9068 27.2188 29.6736 27.2188C31.4403 27.2188 32.8726 27.8685 32.8726 28.67Z" fill="#E98080"/>
<path d="M67.7705 41.7313C68.3521 41.2475 69.5154 37.2615 69.5154 29.8312L77.3674 33.6044C77.4643 36.5068 76.6113 43.1825 72.4235 45.5044C70.097 46.0849 65.9092 46.143 67.7705 41.7313Z" fill="#92836E"/>
<path d="M80.5664 51.0191C82.1174 49.5678 85.2776 44.9239 85.5103 37.9581L93.0715 41.7313C92.296 45.6012 89.698 53.7473 85.5103 55.3727C83.3776 55.7597 79.4031 55.4308 80.5664 51.0191Z" fill="#92836E"/>
<path d="M93.0715 61.7581C95.1072 60.0166 99.2949 54.8503 99.7603 48.1166L105.577 55.3727C103.638 59.0491 98.8878 66.402 95.398 66.402C93.5562 65.7247 90.5123 63.8478 93.0715 61.7581Z" fill="#92836E"/>
<path d="M84.347 26.0581C86.7705 25.0906 92.199 23.5039 94.5256 24.8971C93.7501 20.5434 97.0547 11.9337 92.7807 11.5459C86.3827 10.9654 82.6021 15.8995 84.347 26.0581Z" fill="#92836E"/>
<path d="M95.9796 30.9922C93.4592 30.7987 87.3715 30.8761 85.5103 32.7337L86.3827 36.5068L89.5817 38.8288C91.5205 37.6678 96.096 35.462 98.8878 35.9264L95.9796 30.9922Z" fill="#92836E"/>
<path d="M101.796 41.441L96.5613 43.4727L100.924 48.1166L105.577 45.5044L101.796 41.441Z" fill="#92836E"/>
<path d="M32.8498 16.4198C32.0344 18.1088 30.9887 19.2929 30.0875 18.8596C28.8722 18.2753 29.4624 16.872 30.2777 15.1831C31.093 13.4942 31.9943 12.2406 33.0399 12.7434C34.0856 13.2461 33.6651 14.7309 32.8498 16.4198Z" fill="#92836E"/>
<path d="M37.5457 16.6605C36.7347 18.5439 35.8087 19.9555 34.7654 19.508C33.7221 19.0605 34.1111 17.4185 34.9221 15.5351C35.7331 13.6518 36.6743 12.2467 37.7024 12.6877C38.7305 13.1287 38.3567 14.7771 37.5457 16.6605Z" fill="#92836E"/>
<path fill-rule="evenodd" clip-rule="evenodd" d="M43.3177 4.19866C42.2778 5.65743 41.2508 7.9923 40.3965 11.2607C40.2628 11.7719 39.8002 12.1286 39.2709 12.1286H33.7453C33.1311 12.1286 32.6227 11.6519 32.5843 11.04C32.4476 8.85615 31.9009 6.87316 31.1453 5.3895C30.3638 3.85509 29.474 3.06554 28.7774 2.87001C28.4663 2.7827 28.1572 2.79949 27.8181 2.96158C27.4573 3.13408 27.0089 3.49937 26.5224 4.20033C25.5379 5.61868 24.5569 8.18022 23.8407 12.3259C23.7911 12.6131 23.635 12.8711 23.4036 13.0488C20.826 15.0276 14.6993 20.5033 13.8521 27.9331C13.6772 29.466 13.7261 31.0881 14.0794 32.7907C14.4897 34.7675 15.3145 36.8723 16.7011 39.0865C16.7528 39.169 16.7939 39.2577 16.8234 39.3505C22.6126 57.5505 28.3942 69.0853 33.0103 77.1477C33.9298 78.7536 35.0227 80.55 36.211 82.5032C40.9336 90.2655 47.1622 100.503 49.9917 111.093C50.9161 114.553 52.8436 115.693 54.2388 115.814C55.7308 115.942 56.6786 115.06 56.7184 114.069L53.8213 91.805C53.7404 91.1833 54.1686 90.6098 54.7886 90.5094C55.4087 90.4091 55.9966 90.8181 56.1167 91.4335L60.468 113.726C61.0007 115.486 61.7056 116.069 62.1952 116.23C62.6982 116.395 63.4503 116.272 64.4167 115.544C66.3391 114.097 68.2315 110.867 68.6463 107.523L68.651 107.417C68.6555 107.318 68.662 107.173 68.6706 106.988C68.6877 106.618 68.7127 106.087 68.7446 105.444C68.8084 104.158 68.8995 102.421 69.0089 100.619C69.1182 98.8191 69.2462 96.9474 69.3839 95.3943C69.5167 93.8965 69.6686 92.555 69.8512 91.917C70.295 90.3668 71.2481 88.7231 72.0367 87.5209C72.4391 86.9074 72.8154 86.3841 73.0915 86.0136C73.2298 85.828 73.3435 85.68 73.4235 85.5773C73.4635 85.5259 73.4952 85.4858 73.5173 85.4579L73.5432 85.4254L73.5505 85.4163L73.5535 85.4126C73.5536 85.4125 73.554 85.412 74.4595 86.1408L73.554 85.412C73.9338 84.942 74.6112 84.841 75.112 85.1797C75.6129 85.5184 75.77 86.1837 75.4734 86.71C72.8768 91.3173 70.8705 96.9457 73.1873 101.904C73.3001 102.145 73.3263 102.418 73.2616 102.676L73.2614 102.677L73.2571 102.694L73.2431 102.751C73.2307 102.801 73.2123 102.876 73.1889 102.973C73.142 103.167 73.0747 103.449 72.9939 103.798C72.8321 104.498 72.6166 105.466 72.4012 106.54C71.9639 108.723 71.5513 111.231 71.5513 112.843C71.5513 112.884 71.5492 112.924 71.545 112.965C71.4251 114.101 71.686 114.905 72.0898 115.448C72.4977 115.996 73.1257 116.376 73.9166 116.529C75.5141 116.836 77.717 116.177 79.373 114.143L79.3839 114.13L89.8533 101.649C89.8659 101.634 89.8788 101.62 89.8921 101.605L90.7453 102.394C89.8921 101.605 89.892 101.605 89.8921 101.605L89.8925 101.605L89.894 101.603L90.0157 101.472C90.0634 101.42 90.1244 101.355 90.1976 101.275C90.2489 101.22 90.3062 101.158 90.3692 101.09C90.6751 100.758 91.1149 100.281 91.65 99.6971C92.7204 98.5292 94.1713 96.9363 95.6942 95.2355C98.7716 91.7985 102.048 88.0242 103.155 86.3675C103.174 86.3387 103.195 86.3106 103.217 86.2836C105.936 82.9119 107.716 78.476 108.2 73.5472C109.327 62.0634 103.397 47.875 85.8432 38.6985C84.4418 37.9659 82.449 37.038 80.1196 35.9535C79.9611 35.8797 79.801 35.8052 79.6394 35.7299C77.1179 34.5555 74.2613 33.2186 71.4397 31.7905C68.6201 30.3634 65.8152 28.8351 63.3973 27.2736C60.9974 25.7236 58.8988 24.0908 57.5598 22.4362C54.9577 19.2209 52.5758 15.9996 50.808 13.3531C50.7147 13.2133 50.6528 13.055 50.6267 12.889C50.0556 9.25519 49.2286 6.60112 48.3034 4.85827C47.3518 3.06583 46.4476 2.49991 45.8369 2.43527C45.2655 2.37478 44.3826 2.70482 43.3177 4.19866ZM91.6184 103.162L81.1787 115.607C81.1768 115.609 81.1749 115.612 81.173 115.614C79.0487 118.219 76.0201 119.299 73.4757 118.808C72.1945 118.562 71.023 117.908 70.2223 116.833C69.5073 115.872 69.1456 114.653 69.1936 113.257C68.2733 114.977 67.0883 116.442 65.8175 117.398C64.5663 118.34 63.0101 118.942 61.4683 118.436C60.2622 118.04 59.3484 117.059 58.706 115.646C57.9343 117.369 55.9685 118.293 54.0387 118.127C51.4352 117.903 48.855 115.85 47.7437 111.691C45.0109 101.463 39.0276 91.6202 34.3112 83.8613C33.094 81.8589 31.9612 79.9953 30.9903 78.2998C26.3122 70.1291 20.4788 58.4825 14.65 40.1914C13.2877 37.989 12.4056 35.8429 11.9145 33.7712C10.5279 33.044 8.84012 32.9666 7.14486 33.2628C5.29516 33.5859 3.6022 34.3279 2.63811 34.8964C2.08501 35.2226 1.37168 35.0396 1.04484 34.4875C0.718006 33.9355 0.901434 33.2236 1.45454 32.8974C2.62311 32.2082 4.57873 31.3538 6.74367 30.9756C8.23036 30.7158 9.89549 30.6681 11.4889 31.1175C11.4104 30.1838 11.409 29.272 11.4737 28.3844C7.61776 25.9513 3.70281 26.0115 2.29867 26.3229C1.67152 26.462 1.05013 26.0674 0.910762 25.4415C0.771395 24.8155 1.16682 24.1954 1.79398 24.0563C3.59088 23.6577 7.68498 23.6234 11.8328 25.9006C13.3842 18.7336 18.9873 13.5798 21.6265 11.4881C22.3599 7.4548 23.3849 4.6429 24.6099 2.87809C25.2503 1.9555 25.9834 1.26411 26.8131 0.867471C27.6646 0.460403 28.5551 0.395571 29.4073 0.634781C31.0372 1.0923 32.3285 2.58842 33.2192 4.3374C33.9991 5.86875 34.5618 7.76093 34.8071 9.80666H38.3817C39.2306 6.81723 40.2635 4.4777 41.422 2.85256C42.6654 1.10837 44.2545 -0.0672161 46.0823 0.126269C47.8709 0.315603 49.2932 1.76325 50.3592 3.77119C51.4268 5.78223 52.2931 8.62973 52.8846 12.2751C54.5921 14.8138 56.8734 17.8926 59.3697 20.9772C60.4735 22.3411 62.3227 23.8139 64.6613 25.3242C66.9819 26.8229 69.706 28.3095 72.492 29.7196C75.2758 31.1286 78.101 32.451 80.6233 33.6258C80.7933 33.705 80.9621 33.7836 81.1295 33.8615C82.3632 34.4359 83.5217 34.9752 84.5547 35.4689C83.7523 32.3384 83.0662 28.6162 82.7878 25.0996C82.6084 22.8336 82.5952 20.6164 82.8436 18.6795C83.0884 16.7703 83.6042 14.993 84.5959 13.7333C85.5198 12.5598 86.8119 11.5811 88.1807 10.9412C89.5388 10.3064 91.0838 9.95426 92.5088 10.1844C94.0007 10.4253 95.3037 11.3053 95.9709 12.9548C96.6006 14.5119 96.6125 16.6256 95.9588 19.3208C95.5434 22.0112 95.2831 25.3426 96.8591 29.8108C98.4567 34.3398 101.974 40.125 109.316 47.5962C112.703 51.0434 114.336 55.862 114.444 60.7042C114.549 65.4371 113.202 70.298 110.482 74.091C109.917 79.2834 108.012 84.0233 105.061 87.6994C103.817 89.5439 100.435 93.4258 97.429 96.7827C95.8983 98.4922 94.441 100.092 93.3667 101.264C92.8294 101.85 92.3876 102.33 92.0801 102.663C91.9263 102.83 91.8061 102.96 91.7242 103.048L91.6184 103.162ZM110.61 69.0541C111.663 66.4687 112.181 63.5977 112.118 60.7557C112.02 56.3682 110.542 52.1602 107.655 49.222C100.165 41.6006 96.4115 35.5342 94.6646 30.5818C92.9058 25.5955 93.2144 21.829 93.6672 18.9165C93.6723 18.8836 93.6788 18.8511 93.6867 18.8188C94.3004 16.3131 94.185 14.7426 93.8135 13.8239C93.4755 12.9882 92.8918 12.5984 92.1372 12.4765C91.3156 12.3438 90.2542 12.536 89.1676 13.0439C88.0917 13.5469 87.1009 14.3097 86.4253 15.1679C85.8176 15.9398 85.376 17.2222 85.1513 18.9743C84.9301 20.6987 84.9351 22.7444 85.1071 24.9167C85.4358 29.068 86.3631 33.5477 87.3551 36.8699C103.099 45.2599 109.968 57.7365 110.61 69.0541ZM55.4928 26.2953C53.3012 25.5954 47.9484 25.2179 44.1867 29.1807C43.7449 29.6462 43.0086 29.6661 42.5422 29.2251C42.0758 28.7841 42.0559 28.0493 42.4978 27.5838C47.1116 22.7233 53.5465 23.2358 56.2019 24.0839C56.8138 24.2793 57.1511 24.9328 56.9553 25.5434C56.7595 26.1541 56.1047 26.4908 55.4928 26.2953ZM50.4837 33.1276C48.3835 33.0917 46.0595 33.5189 43.9762 34.8703C43.4375 35.2198 42.717 35.0672 42.3669 34.5296C42.0168 33.992 42.1696 33.2729 42.7083 32.9235C45.278 31.2564 48.0918 30.7645 50.5235 30.806C52.9453 30.8473 55.0589 31.4181 56.3112 31.9615C56.9003 32.2171 57.1703 32.9011 56.9141 33.4891C56.658 34.0771 55.9727 34.3465 55.3835 34.0909C54.4062 33.6668 52.5938 33.1636 50.4837 33.1276Z" fill="#444444"/>
<path d="M24.7292 24.0286C24.7292 25.7919 23.6876 27.2213 22.4027 27.2213C21.1178 27.2213 20.0762 25.7919 20.0762 24.0286C20.0762 22.2654 21.1178 20.8359 22.4027 20.8359C23.6876 20.8359 24.7292 22.2654 24.7292 24.0286Z" fill="#515151"/>
<path d="M40.4343 24.0286C40.4343 25.7919 39.3927 27.2213 38.1078 27.2213C36.8229 27.2213 35.7812 25.7919 35.7812 24.0286C35.7812 22.2654 36.8229 20.8359 38.1078 20.8359C39.3927 20.8359 40.4343 22.2654 40.4343 24.0286Z" fill="#515151"/>
</g>
<defs>
<clipPath id="clip0_1374_3499">
<rect width="114" height="119" fill="white" transform="translate(0.882812 0.105469)"/>
</clipPath>
</defs>
</svg>
