<svg width="204" height="203" viewBox="0 0 204 203" fill="none" xmlns="http://www.w3.org/2000/svg">
<g clip-path="url(#clip0_1237_5217)">
<path d="M138.333 77.8115C139.876 76.3422 142.576 74.4694 144.438 74.512C135.126 52.3751 150.897 65.8469 155.082 70.2414C161.359 71.0427 167.257 73.7258 170.554 78.1321C171.707 79.6728 172.542 81.4243 172.963 83.3797C173.675 86.684 172.415 91.9461 170.308 96.3823C178.489 95.7926 183.777 99.1977 185.002 101.662C187.848 104.65 182.564 108.593 179.566 110.19C180.617 112.968 178.646 116.182 171.687 117.693C161.657 119.871 153.316 124.295 150.399 126.234C140.62 132.737 134.852 132.418 129.618 131.778C117.725 130.323 104.851 133.576 99.023 134.518C94.7901 140.224 90.6294 144.713 83.4726 146.436C78.699 155.547 65.2978 166.633 60.3867 161.476C58.6358 162.258 57.0634 162.553 55.9459 162.55C49.3633 162.534 50.065 157.257 54.0662 152.19C58.3886 143.046 58.4334 141.328 58.7657 136.822C59.0649 132.766 62.7096 128.458 64.9937 128.796C62.3202 125.989 62.9709 120.187 64.4423 114.976C56.6242 120.007 40.1348 120.208 34.0761 110.894C24.6514 96.407 32.0163 82.69 43.1573 75.8516C59.5633 66.5971 65.7112 70.9934 66.8446 74.2434C67.7901 79.2087 64.4177 82.1408 59.9555 82.8986C46.1951 83.014 41.1782 93.2381 42.7622 99.2712C46.2822 112.678 59.8118 102.168 64.0808 97.8238C78.046 81.5924 92.3958 77.9636 99.2337 76.918C102.903 76.357 120.77 77.8839 126.67 80.5382C123.64 68.7595 128.596 64.8541 138.333 77.8115Z" fill="#F1C184"/>
<path d="M82.4427 105.416C79.7246 101.032 75.309 94.4867 79.3482 84.8292L85.5717 81.5467C84.5896 87.2788 82.2238 96.9766 87.9558 104.49C89.1976 107.648 86.1574 110.253 82.4427 105.416Z" fill="#D29F5C"/>
<path d="M96.1761 103.31C92.6585 97.6356 88.0783 87.7267 89.715 79.277L98.1654 77.0608C95.2587 85.6569 98.7498 97.0644 101.628 101.707C104.026 105.575 99.3739 108.468 96.1761 103.31Z" fill="#D29F5C"/>
<path d="M107.695 99.3639C105.014 93.8844 100.979 81.6 103.58 76.5531L111.654 77.5988C109.856 83.3619 111.516 95.1304 113.946 99.0507C116.185 102.661 110.573 104.006 107.695 99.3639Z" fill="#D29F5C"/>
<path d="M66.4496 72.9419C65.0643 70.2417 61.0461 69.9159 54.4639 70.9485C50.2499 71.6096 45.3738 73.3201 40.304 78.1479C42.5359 80.4916 46.812 85.7766 46.0619 88.1668C47.4393 87.5535 49.5887 84.8084 54.5801 82.9879C56.0896 82.8075 59.9565 82.8958 62.9977 81.6757C65.3369 80.7372 68.9045 77.7268 66.4496 72.9419Z" fill="#D29F5C"/>
<path d="M43.1515 92.6141C41.2024 90.4201 36.3522 86.2684 32.5443 87.2131C30.7809 88.8923 29.7985 93.5986 29.9294 96.8257C32.6431 97.1743 39.432 98.4185 42.3224 99.6882C41.864 98.0299 41.3881 94.2933 43.1515 92.6141Z" fill="#D29F5C"/>
<path d="M43.9851 101.876C39.8056 102.783 31.8254 104.908 31.6222 106.107C32.4144 108.704 34.4732 112.19 36.5879 113.528L46.9144 104.952C45.6254 104.922 44.3812 103.174 43.9851 101.876Z" fill="#D29F5C"/>
<path d="M58.7095 138.967C60.3118 143.475 67.9606 146.917 71.1551 148.064C73.4504 147.973 78.2613 147.582 82.5803 146.821C81.3599 149.659 77.1207 156.712 69.0895 161.343C66.9189 162.154 62.3682 163.554 60.1184 161.192C59.6172 161.505 59.1568 161.764 58.7553 161.967C52.0033 163.704 50.8383 160.568 51.0997 158.783C51.9036 154.331 53.614 153.037 54.7385 151.128C57.5498 146.356 58.8628 141.335 58.7095 138.967Z" fill="white"/>
<path d="M154.553 123.532C149.685 120.627 149.061 111.585 156.103 105.298C157.581 104.782 160.407 104.363 164.08 104.405C165.843 102.726 168.94 99.3576 171.167 96.3993C176.125 95.8678 183.364 98.5265 185.839 102.538C186.168 106.414 182.858 108.226 179.226 109.674C179.649 110.09 179.798 111.642 179.798 111.642C178.827 115.919 173.847 117.31 169.748 117.861C165.209 118.832 158.035 121.892 154.553 123.532Z" fill="white"/>
<path fill-rule="evenodd" clip-rule="evenodd" d="M38.2603 77.7903C43.0536 73.7666 49.0027 70.9072 54.6028 69.6989C56.3471 69.3225 59.5632 68.8099 62.4343 69.3393C63.8818 69.6062 65.3447 70.1561 66.4747 71.2213C67.6343 72.3144 68.3347 73.8481 68.4076 75.8495C68.5095 78.6495 66.8761 80.7402 64.7209 82.0825C62.5815 83.4151 59.8009 84.1116 57.1525 84.1904C55.3592 84.2437 52.4256 85.0451 49.6899 86.8509C46.9822 88.6382 44.5568 91.3489 43.5901 95.1695C43.2762 96.5794 43.6838 99.2179 45.0094 101.417C46.3031 103.562 48.2814 105.007 50.9885 104.634C52.3712 104.443 53.914 103.863 56.8334 101.668C59.771 99.4607 63.9885 95.7077 70.7127 89.3044L70.7582 89.2611L70.8079 89.2227C81.406 81.028 89.3954 76.921 97.8315 75.7354C105.769 74.6199 113.965 76.1154 124.878 78.921C124.489 76.8243 124.32 74.6775 124.523 73.2044C124.612 72.5582 124.711 71.9196 124.862 71.3455C125.012 70.7722 125.233 70.1855 125.61 69.6795C126.461 68.5365 127.777 68.2074 129.39 68.3686C130.347 68.4643 131.47 68.8901 133.037 70.1646C134.399 71.2724 136.148 73.0643 138.476 75.9569C139.494 74.8222 140.866 73.8747 142.468 73.4541C142.052 72.5968 141.64 71.6126 141.278 70.6135C140.647 68.8751 140.116 66.9565 139.987 65.4436C139.924 64.7023 139.956 63.423 140.557 62.3559C140.875 61.7912 141.367 61.2636 142.091 60.9516C142.808 60.6429 143.634 60.5959 144.538 60.7769C146.07 61.0835 147.674 61.9375 149.509 63.3433C151.289 64.7069 153.361 66.6487 155.874 69.2725C162.704 70.7007 167.293 73.0304 170.169 75.9514C171.511 74.3893 173.277 73.2717 174.972 72.4926C177.117 71.5066 179.277 71.0025 180.651 70.8383C181.318 70.7586 181.921 71.2343 181.999 71.9008C182.076 72.5674 181.599 73.1723 180.932 73.2521C179.789 73.3886 177.878 73.8294 175.982 74.7008C174.334 75.4585 172.794 76.4971 171.75 77.8532C172.4 78.7923 172.9 79.7681 173.27 80.7668C174.59 79.675 176.162 78.8997 177.656 78.3563C179.828 77.5661 181.988 77.2109 183.349 77.1255C184.02 77.0835 184.595 77.5925 184.635 78.2625C184.675 78.9325 184.164 79.5097 183.494 79.5517C182.343 79.6239 180.414 79.9371 178.48 80.6405C176.708 81.2853 175.056 82.2127 173.957 83.4677C174.518 87.2627 173.518 91.1462 172.065 94.4936C174.524 94.8901 177.614 95.5922 180.334 96.6425C182.016 97.292 183.624 98.0998 184.858 99.0986C186.086 100.093 187.074 101.387 187.212 103.009L187.214 103.036L187.215 103.063C187.3 105.142 186.183 107.066 184.763 108.442C183.699 109.473 182.354 110.306 180.96 110.713C181.117 111.944 180.858 113.277 179.867 114.542C178.558 116.213 176.099 117.588 172.167 118.587L172.146 118.592L172.125 118.597C166.026 119.921 159.86 122.076 146.831 129.901L146.757 129.945L146.678 129.978C146.389 130.101 146.094 130.23 145.79 130.362C144.219 131.049 142.417 131.836 139.96 132.361C137.016 132.989 133.169 133.241 127.524 132.653C120.307 131.902 112.276 133.324 101.492 135.234C100.9 135.339 100.299 135.445 99.6897 135.553C97.0143 139.324 94.5 141.987 91.8975 143.884C89.3223 145.762 86.7079 146.856 83.8543 147.562C81.2751 151.123 77.1536 155.983 72.8179 159.426C70.579 161.204 68.2036 162.668 65.8933 163.336C63.8185 163.936 61.7096 163.91 59.8513 162.805C59.2349 163.168 58.5925 163.509 57.9225 163.825L57.7339 163.913L57.5266 163.935C55.6969 164.121 53.1291 163.936 51.3963 162.674C50.475 162.003 49.7861 161.019 49.6322 159.697C49.4835 158.42 49.8506 156.976 50.7076 155.365L50.7392 155.306L50.7773 155.25C53.1597 151.763 55.9971 146.635 57.2459 138.956C57.2538 138.87 57.2619 138.781 57.2702 138.689C57.4122 137.125 57.6191 134.846 58.4746 132.74C59.2519 130.826 60.5817 129.011 62.8572 127.919C62.0568 126.387 61.795 124.502 61.8123 122.602C61.8277 120.896 62.0693 119.063 62.4384 117.242C59.3573 118.769 55.6128 119.663 50.6239 119.722C43.5187 119.896 37.6255 117.273 33.7197 112.522C29.8263 107.785 28.0117 101.062 28.771 93.2042L28.7746 93.1673L28.7804 93.1307C29.7404 87.078 33.4709 81.8108 38.2603 77.7903ZM63.2209 114.005C64.0286 111.122 65.1177 108.452 66.1927 106.658C66.5381 106.081 67.2849 105.892 67.8606 106.236C68.4363 106.579 68.6229 107.325 68.2774 107.902C67.2976 109.538 66.2263 112.165 65.447 115.073C64.7534 117.661 64.2644 120.318 64.2435 122.616C64.2223 124.958 64.6891 126.675 65.6293 127.663C65.9228 127.971 66.0329 128.411 65.9194 128.822C65.8059 129.234 65.4853 129.556 65.0747 129.672C62.6999 130.343 61.4514 131.865 60.7268 133.648C60.0129 135.406 59.8342 137.352 59.6864 138.961C59.6785 139.046 59.6707 139.131 59.663 139.214L59.6592 139.255L59.6526 139.296C58.3423 147.399 55.3445 152.858 52.8227 156.56C52.1237 157.891 51.9773 158.808 52.0472 159.408C52.1128 159.972 52.3819 160.38 52.8318 160.708C53.7992 161.412 55.5177 161.66 57.0836 161.535C57.841 161.169 58.5586 160.767 59.2401 160.334C64.3849 157.067 67.4984 152.033 70.0549 147.407C70.2498 147.055 70.6062 146.821 71.0068 146.783C71.7762 146.709 72.5186 146.641 73.2368 146.575C76.9834 146.231 80.0688 145.947 82.8628 145.301C85.6347 144.66 88.0713 143.67 90.469 141.922C92.8797 140.164 95.3027 137.602 97.9898 133.75C98.1755 133.484 98.4595 133.303 98.7789 133.246C99.6063 133.101 100.42 132.956 101.222 132.814C111.843 130.931 120.211 129.447 127.784 130.236C133.244 130.804 136.825 130.546 139.459 129.983C141.658 129.514 143.221 128.833 144.782 128.152C145.072 128.026 145.363 127.899 145.657 127.774C158.769 119.906 165.175 117.622 171.595 116.226C175.32 115.277 177.142 114.085 177.955 113.047C178.697 112.1 178.7 111.148 178.332 110.203C178.053 109.488 177.562 108.803 177.025 108.245C176.475 107.672 175.969 107.327 175.741 107.223C172.267 105.637 167.908 105.175 163.658 105.324C159.424 105.472 155.414 106.221 152.715 106.959C152.067 107.137 151.399 106.756 151.224 106.108C151.049 105.461 151.432 104.792 152.08 104.615C154.938 103.833 159.136 103.05 163.58 102.894C163.652 102.892 163.724 102.889 163.796 102.887C164.768 101.894 167.253 98.8329 169.184 94.9316C170.978 91.3069 172.193 87.157 171.473 83.3638C171.16 81.7192 170.482 80.1253 169.305 78.643C166.996 75.7335 162.653 73.1212 155.01 71.5784L154.636 71.5029L154.373 71.2266C151.773 68.497 149.72 66.5724 148.026 65.2747C146.326 63.972 145.066 63.3634 144.053 63.1606C143.503 63.0504 143.201 63.1173 143.048 63.1837C142.901 63.2468 142.78 63.3553 142.674 63.544C142.426 63.9836 142.363 64.6796 142.41 65.2304C142.512 66.4311 142.961 68.1172 143.564 69.778C144.166 71.437 144.871 72.9352 145.418 73.7689C145.666 74.1464 145.683 74.6308 145.463 75.0263C145.242 75.4219 144.821 75.6633 144.369 75.6529C142.344 75.6066 140.515 76.9371 139.552 78.5715C139.347 78.919 138.984 79.1431 138.582 79.1698C138.18 79.1966 137.792 79.0225 137.545 78.705C134.76 75.1244 132.841 73.144 131.499 72.0521C130.175 70.9751 129.486 70.8221 129.141 70.7876C127.967 70.6702 127.69 70.9495 127.558 71.1274C127.443 71.2819 127.324 71.5337 127.213 71.9553C127.103 72.3761 127.02 72.8886 126.932 73.528C126.727 75.0184 127.023 77.7865 127.67 80.2907C128.115 82.015 128.671 83.3922 129.192 84.0777L130.101 85.2729L128.739 85.9145C128.253 86.1431 127.65 86.8338 127.193 87.8252C126.732 88.8236 126.61 89.7091 126.69 90.087C126.828 90.7434 126.408 91.3895 125.751 91.53C125.094 91.6705 124.449 91.2523 124.311 90.5959C124.071 89.4619 124.44 87.9943 124.986 86.8124C125.357 86.0075 125.898 85.1439 126.599 84.4866C126.17 83.6488 125.804 82.6391 125.504 81.5965C113.962 78.5847 105.873 77.0591 98.1624 78.1427C90.3523 79.2403 82.7775 83.0423 72.341 91.1056C65.6454 97.4805 61.3478 101.312 58.2904 103.61C55.2078 105.927 53.2741 106.772 51.313 107.042C47.3323 107.591 44.5344 105.344 42.9261 102.676C41.3539 100.069 40.7322 96.7826 41.2222 94.6253L41.2253 94.6114L41.2288 94.5976C42.3745 90.0485 45.259 86.8669 48.3549 84.8234C51.4261 82.7962 54.7939 81.8287 57.088 81.7605C59.4082 81.6915 61.7449 81.0762 63.4401 80.0203C65.1195 78.9743 66.0381 77.5999 65.9779 75.9457C65.9254 74.5051 65.4477 73.5995 64.8039 72.9926C64.1306 72.3579 63.1648 71.9473 61.986 71.73C59.6045 71.2909 56.7774 71.7149 55.1085 72.0751C49.8999 73.199 44.312 75.8794 39.8202 79.6501C35.3348 83.4153 32.0372 88.1839 31.1875 93.4676C30.4848 100.82 32.2068 106.846 35.6001 110.974C38.9853 115.093 44.1372 117.451 50.5795 117.292L50.5875 117.292L50.5955 117.291C56.3944 117.224 60.2002 115.969 63.2209 114.005ZM166.981 102.907C170.371 103.059 173.795 103.659 176.757 105.011C177.358 105.285 178.107 105.857 178.781 106.558C179.271 107.068 179.77 107.696 180.17 108.412C181.143 108.152 182.197 107.548 183.074 106.699C184.188 105.619 184.822 104.337 184.787 103.196C184.719 102.501 184.276 101.761 183.324 100.99C182.366 100.214 181.018 99.5153 179.452 98.9106C176.663 97.8336 173.394 97.1353 170.964 96.7858C169.651 99.2825 168.158 101.423 166.981 102.907ZM62.2641 161.181C63.1416 161.385 64.1256 161.319 65.2249 161.001C67.0961 160.46 69.1807 159.215 71.3095 157.524C74.6235 154.892 77.8531 151.338 80.2903 148.248C78.1703 148.564 75.891 148.773 73.4091 149C72.9041 149.046 72.3907 149.094 71.8685 149.142C69.6145 153.175 66.7369 157.766 62.2641 161.181ZM128.225 98.0485C127.815 97.518 127.914 96.7545 128.446 96.3432C129.721 95.3578 131.952 94.0367 134.612 93.1742C137.27 92.3122 140.466 91.874 143.597 92.806C144.24 92.9974 144.605 93.6742 144.411 94.3176C144.218 94.961 143.54 95.3275 142.897 95.1361C140.397 94.3919 137.733 94.7154 135.355 95.4864C132.978 96.2571 130.995 97.4405 129.93 98.2644C129.398 98.6757 128.635 98.5791 128.225 98.0485ZM137.278 99.1222C139.673 97.9266 142.636 97.1433 145.605 98.0087C146.249 98.1964 146.617 98.8711 146.427 99.5156C146.237 100.16 145.561 100.53 144.917 100.343C142.766 99.7155 140.465 100.245 138.358 101.296C136.26 102.344 134.507 103.838 133.56 104.868C133.105 105.363 132.336 105.396 131.843 104.943C131.349 104.489 131.318 103.72 131.773 103.225C132.891 102.01 134.876 100.321 137.278 99.1222Z" fill="#444444"/>
<path d="M146.919 86.5764C147.957 88.0994 147.899 89.9491 146.789 90.7078C145.679 91.4666 143.937 90.847 142.898 89.324C141.86 87.801 141.918 85.9513 143.028 85.1926C144.138 84.4338 145.88 85.0534 146.919 86.5764Z" fill="#494949"/>
<path d="M162.169 78.7561C163.207 80.2791 163.149 82.1288 162.039 82.8875C160.929 83.6463 159.187 83.0267 158.148 81.5037C157.11 79.9807 157.168 78.131 158.278 77.3723C159.388 76.6135 161.13 77.2331 162.169 78.7561Z" fill="#494949"/>
<path d="M163.216 88.0517C161.985 90.7318 155.115 95.3465 151.018 94.2212C149.31 93.7523 146.997 91.7649 149.489 86.8782C150.474 84.823 153.281 81.5913 156.916 82.3192C159.825 82.9015 164.857 84.4782 163.216 88.0517Z" fill="white"/>
<path d="M158.71 86.2174C159.07 86.7827 158.329 87.9014 157.054 88.7162C155.78 89.531 154.454 89.7332 154.094 89.168C153.734 88.6028 154.475 87.484 155.749 86.6692C157.024 85.8545 158.349 85.6522 158.71 86.2174Z" fill="#D97070"/>
</g>
<defs>
<clipPath id="clip0_1237_5217">
<rect width="157.669" height="128.646" fill="white" transform="translate(0.337891 108.977) rotate(-43.5994)"/>
</clipPath>
</defs>
</svg>
