<svg width="1921" height="668" viewBox="0 0 1921 668" fill="none" xmlns="http://www.w3.org/2000/svg">
<path d="M637.793 625.998L594.612 649.162C565.087 665.001 529.592 665.001 500.067 649.162L456.886 625.998C427.361 610.159 391.866 610.159 362.341 625.998L319.16 649.162C289.635 665.001 254.14 665.001 224.615 649.162L181.434 625.998C151.909 610.159 116.414 610.159 86.8895 625.998L43.7084 649.162C14.1835 665.001 -21.3115 665.001 -50.8364 649.162L-94.0174 625.998C-123.542 610.159 -159.037 610.159 -188.562 625.998L-264.288 666.621C-270.95 670.195 -279.016 665.369 -279.016 657.809V0.324219H2200.05V657.809C2200.05 665.369 2191.98 670.195 2185.32 666.621L2109.6 625.998C2080.07 610.159 2044.58 610.159 2015.05 625.998L1971.87 649.162C1942.35 665.001 1906.85 665.001 1877.33 649.162L1834.14 625.998C1804.62 610.159 1769.12 610.159 1739.6 625.998L1696.42 649.162C1666.89 665.001 1631.4 665.001 1601.87 649.162L1558.69 625.998C1529.17 610.159 1493.67 610.159 1464.15 625.998L1420.97 649.162C1391.44 665.001 1355.95 665.001 1326.42 649.162L1283.24 625.998C1253.72 610.159 1218.22 610.159 1188.7 625.998L1145.52 649.162C1115.99 665.001 1080.5 665.001 1050.97 649.162L1007.79 625.998C978.264 610.159 942.769 610.159 913.244 625.998L870.063 649.162C840.538 665.001 805.044 665.001 775.519 649.162L732.338 625.998C702.813 610.159 667.318 610.159 637.793 625.998Z" fill="#B1D082"/>
</svg>
